<svg width="200" height="162" viewBox="0 0 200 162" fill="none" xmlns="http://www.w3.org/2000/svg">
<path d="M109.768 74.2434H77.3674C77.3674 75.2604 78.1921 76.0845 79.2086 76.0845H109.768V74.2434H109.768Z" fill="#303030" stroke="#303030" stroke-width="0.544713" stroke-miterlimit="10" stroke-linecap="round" stroke-linejoin="round"/>
<path d="M114.804 45.2454H116.122L109.657 76.4634H108.339L114.804 45.2454Z" fill="#303030"/>
<path d="M116.122 45.2454H116.568C117.247 45.2454 117.679 45.8206 117.532 46.5303L111.599 75.1779C111.452 75.8877 110.782 76.4629 110.103 76.4629H109.657L116.122 45.2454Z" fill="#F55571"/>
<path d="M185.775 116.255H192.016L198.857 54.7439H196.476C194.278 54.7439 192.432 56.3958 192.189 58.5798L185.775 116.255Z" fill="#D6D899" stroke="#242424" stroke-width="0.759377" stroke-miterlimit="10" stroke-linecap="round" stroke-linejoin="round"/>
<path d="M196.517 54.7432H198.856L192.016 116.255H189.677L196.517 54.7432Z" fill="#242424" stroke="#242424" stroke-width="0.759377" stroke-miterlimit="10" stroke-linecap="round" stroke-linejoin="round"/>
<path d="M150.314 110.8H188.69C189.566 110.8 190.276 111.511 190.276 112.387V114.652H146.959V114.156C146.959 112.302 148.461 110.8 150.314 110.8Z" fill="#D6D899" stroke="#242424" stroke-width="0.759377" stroke-miterlimit="10" stroke-linecap="round" stroke-linejoin="round"/>
<path d="M147.004 116.256H190.276V114.652H147.004V116.256Z" fill="#242424" stroke="#242424" stroke-width="0.759377" stroke-miterlimit="10" stroke-linecap="round" stroke-linejoin="round"/>
<path d="M189.726 161.183H191.1L184.353 116.382H180.451L189.726 161.183Z" fill="#242424" stroke="#242424" stroke-width="0.759377" stroke-miterlimit="10" stroke-linecap="round" stroke-linejoin="round"/>
<path d="M144.221 161.183H142.847L149.594 116.382H153.496L144.221 161.183Z" fill="#242424" stroke="#242424" stroke-width="0.759377" stroke-miterlimit="10" stroke-linecap="round" stroke-linejoin="round"/>
<path d="M145.245 152.988H188.191V151.722H145.245V152.988Z" fill="#242424" stroke="#242424" stroke-width="0.759377" stroke-miterlimit="10" stroke-linecap="round" stroke-linejoin="round"/>
<path d="M120.053 105.586C119.541 91.4354 125.721 87.5053 134.712 86.3086C144.673 84.9822 172.227 85.7912 172.227 85.7912H182.694C186.096 94.8338 185.349 106.69 176.18 108.956C171.096 110.212 163.693 109.802 154.637 109.802C145.581 109.802 139.685 109.804 139.685 109.804C139.916 116.648 138.247 122.473 137.375 131.929C136.452 141.931 136.375 142.239 136.665 147.097C136.804 149.408 139.172 155.214 136.125 157.014C135.688 157.272 134.341 157.843 130.286 157.843C126.23 157.843 111.027 157.682 99.9636 157.842C99.2523 157.852 96.6659 157.712 96.6659 157.014C96.6659 155.05 99.3586 153.813 102.405 152.398C105.766 150.837 108.616 149.488 112.377 147.689C115.187 146.345 116.769 145.689 119.591 143.536C121.869 141.799 121.815 140.074 121.844 133.996C121.882 126.294 120.451 116.598 120.053 105.586Z" fill="#FAAC73"/>
<path d="M136.913 134.414C138.131 134.64 138.39 135.81 137.989 138.519C136.973 145.372 137.972 148.634 138.045 150.277C138.118 151.921 139.682 156.65 136.418 158.61C134.899 159.522 125.715 159.236 118.508 159.372C111.302 159.508 102.651 159.463 99.8298 159.372C95.472 159.232 95.4816 155.747 97.9334 154.258C100.584 152.648 104.888 150.429 109.728 148.282C115.664 145.648 118.545 143.89 120.177 142.186C121.087 141.237 120.638 138.393 120.807 136.326C120.878 135.453 120.531 134.287 121.845 133.996C121.93 134.5 121.992 135.018 122.033 135.552C122.033 135.552 122.858 137.88 129.36 137.889C135.649 137.898 136.792 136.01 136.792 136.01L136.913 134.414Z" fill="#242424"/>
<path d="M101.157 151.62C104.558 149.98 112.453 146.425 115.507 144.877C118.561 143.329 119.504 140.33 124.175 140.673C127.955 140.951 129.266 143.068 129.796 143.494C130.782 144.286 132.226 146.013 134.528 145.934C136.812 145.856 137.515 143.208 137.515 143.208L137.704 140.859C139.624 141.594 139.385 142.337 139.164 143.776C138.969 145.038 139.086 147.274 139.262 149.1C139.463 151.175 139.659 153.408 139.687 157.013C139.31 159.566 136.74 160.033 132.769 160.028C127.66 160.022 110.4 160.003 110.4 160.003C106.738 159.998 101.066 159.991 98.8543 159.989C96.6425 159.986 94.9633 158.197 94.9633 157.429C94.9617 154.654 96.6293 153.803 101.157 151.62Z" fill="white"/>
<path d="M101.348 151.948C104.418 150.469 107.526 149.07 110.615 147.632C112.067 146.956 113.52 146.279 114.958 145.574C115.589 145.264 116.21 144.951 116.786 144.545C117.406 144.107 117.976 143.606 118.551 143.112C119.713 142.113 120.943 141.278 122.501 141.081C124.323 140.851 126.32 141.218 127.857 142.248C128.302 142.546 128.696 142.906 129.065 143.292C129.36 143.601 129.668 143.873 129.987 144.158C131.306 145.333 132.814 146.474 134.691 146.304C136.136 146.173 137.161 145.094 137.698 143.814C138.025 143.037 137.98 142.154 138.047 141.324C138.059 141.168 138.071 141.013 138.084 140.858C137.924 140.98 137.764 141.102 137.604 141.224C138.068 141.405 138.706 141.658 138.88 142.178C139.027 142.621 138.879 143.155 138.81 143.599C138.561 145.203 138.692 146.87 138.827 148.477C138.944 149.857 139.086 151.233 139.168 152.616C139.217 153.437 139.251 154.258 139.274 155.081C139.287 155.56 139.297 156.039 139.303 156.518C139.307 156.875 139.292 157.178 139.178 157.517C138.845 158.506 137.929 159.013 136.974 159.271C135.585 159.648 134.103 159.649 132.674 159.648C130.811 159.646 128.947 159.644 127.084 159.641C124.661 159.638 122.237 159.636 119.814 159.633C117.669 159.63 115.523 159.628 113.378 159.625C112.39 159.624 111.402 159.623 110.413 159.622C107.5 159.618 104.587 159.614 101.673 159.611C101.041 159.611 100.409 159.61 99.777 159.609C99.1908 159.609 98.5919 159.646 98.0173 159.514C97.3409 159.358 96.6955 159.035 96.1695 158.581C95.8439 158.3 95.4318 157.905 95.3458 157.473C95.3417 157.453 95.3417 157.333 95.3448 157.233C95.3488 157.099 95.3564 156.965 95.3711 156.832C95.3959 156.603 95.443 156.376 95.5103 156.156C95.6318 155.759 95.8389 155.39 96.1112 155.077C96.8833 154.189 97.995 153.624 99.0237 153.092C99.7912 152.697 100.57 152.323 101.348 151.948C101.788 151.736 101.404 151.081 100.965 151.292C99.5355 151.982 98.0476 152.637 96.7375 153.543C95.8743 154.14 95.123 154.884 94.794 155.904C94.6385 156.386 94.5565 156.94 94.5829 157.447C94.6092 157.945 94.9261 158.386 95.2481 158.744C96.2297 159.837 97.6391 160.367 99.086 160.369C102.09 160.373 105.095 160.376 108.099 160.38C109.43 160.381 110.761 160.383 112.091 160.384C114.094 160.387 116.097 160.389 118.1 160.392C120.627 160.395 123.156 160.398 125.683 160.4C127.79 160.403 129.897 160.405 132.004 160.407C133.319 160.409 134.637 160.417 135.943 160.241C137.112 160.084 138.402 159.774 139.234 158.873C139.605 158.471 139.86 157.975 139.989 157.444C140.091 157.019 140.062 156.593 140.055 156.159C140.048 155.674 140.036 155.19 140.021 154.705C139.972 153.178 139.875 151.653 139.738 150.131C139.586 148.448 139.409 146.764 139.446 145.071C139.461 144.385 139.568 143.726 139.653 143.047C139.716 142.549 139.714 142.02 139.43 141.584C139.061 141.018 138.41 140.729 137.804 140.492C137.556 140.395 137.341 140.638 137.324 140.858C137.286 141.323 137.249 141.787 137.212 142.252C137.19 142.522 137.169 142.792 137.147 143.061C137.143 143.109 137.14 143.157 137.135 143.205C137.146 143.099 137.163 143.095 137.128 143.176C136.962 143.568 136.84 143.916 136.582 144.301C136.215 144.852 135.693 145.307 135.044 145.478C133.296 145.941 131.734 144.7 130.523 143.62C129.803 142.979 129.161 142.24 128.371 141.682C126.88 140.63 124.98 140.211 123.175 140.27C121.503 140.325 120.053 140.939 118.75 141.963C117.595 142.871 116.574 143.912 115.248 144.583C113.949 145.24 112.628 145.856 111.309 146.473C108.145 147.954 104.963 149.395 101.805 150.89C101.525 151.023 101.245 151.157 100.965 151.291C100.525 151.504 100.91 152.159 101.348 151.948Z" fill="#242424"/>
<path d="M124.411 148.073C121.556 145.218 118.282 142.931 115.608 144.407" stroke="#242424" stroke-width="0.759377" stroke-miterlimit="10" stroke-linecap="round" stroke-linejoin="round"/>
<path d="M119.731 150.337C116.876 147.483 113.602 145.196 110.928 146.672" stroke="#242424" stroke-width="0.759377" stroke-miterlimit="10" stroke-linecap="round" stroke-linejoin="round"/>
<path d="M114.842 152.602C111.987 149.747 108.713 147.461 106.039 148.936" stroke="#242424" stroke-width="0.759377" stroke-miterlimit="10" stroke-linecap="round" stroke-linejoin="round"/>
<path d="M139.262 149.1C133.095 150.104 130.036 155.027 130.036 159.458" stroke="#242424" stroke-width="0.759377" stroke-miterlimit="10" stroke-linecap="round" stroke-linejoin="round"/>
<path d="M96.4747 160.84C98.4405 161.208 109.305 161.164 109.305 161.164C109.305 161.164 127.374 161.179 131.508 161.182C135.641 161.185 137.841 161.097 138.897 160.09C139.519 159.496 139.863 158.541 139.686 157.014C137.968 158.059 138.406 158.357 131.344 158.351C124.282 158.345 107.046 158.369 103.303 158.328C100.695 158.3 96.6428 158.539 94.9626 157.301C94.3444 157.869 93.4767 160.278 96.4747 160.84Z" fill="white" stroke="#242424" stroke-width="0.759377" stroke-miterlimit="10" stroke-linecap="round" stroke-linejoin="round"/>
<path d="M121.408 126.611L121.677 131.029C124.597 133.081 131.889 133.989 137.375 131.928L137.879 127.783C132.394 129.844 124.329 128.663 121.408 126.611Z" fill="#242424"/>
<path d="M126.617 93.3524C134.384 83.8415 136.639 82.9019 146.058 82.9019C156.107 82.9019 167.892 82.9019 167.892 82.9019V108.808C155.503 108.808 140.667 108.862 140.667 108.862C136.727 114.462 130.036 118.846 121.358 125.887C113.559 132.215 113.143 132.977 110.447 137.029C109.165 138.956 107.554 145.017 104.038 144.616C103.534 144.559 102.115 144.202 98.8798 141.758C95.6443 139.314 83.6102 130.022 74.6855 123.481C74.1119 123.061 72.133 121.389 72.5532 120.832C73.7373 119.265 76.6315 119.901 79.9146 120.608C83.5373 121.389 86.6249 122.031 90.7099 122.862C93.7626 123.483 95.4195 123.913 98.9689 123.897C101.834 123.883 102.83 122.475 106.517 117.642C106.517 117.642 119.648 101.887 126.617 93.3524Z" fill="#FAAC73"/>
<path d="M117.38 129.177C118.216 130.092 117.558 130.87 116.821 131.502C112.236 135.436 110.562 139.042 109.629 140.397C108.697 141.753 107.095 146.469 103.308 146.065C101.546 145.878 94.3905 140.114 88.559 135.879C82.727 131.644 75.8506 126.393 73.6545 124.621C70.2616 121.882 72.3696 119.108 75.2239 119.397C78.3095 119.709 83.0814 120.534 88.2376 121.737C94.5616 123.213 97.9201 123.547 100.249 123.172C101.548 122.963 103.029 120.537 104.358 118.475C104.833 117.738 105.293 117.081 106.516 117.641L105.476 119.004C105.476 119.004 105.265 121.255 109.814 125.902C114.045 130.224 116.549 129.895 116.549 129.895L117.38 129.177Z" fill="#242424"/>
<path d="M79.3858 119.235C83.0885 119.976 91.5308 121.898 94.9004 122.504C98.2705 123.109 100.831 121.284 104.351 124.374C107.2 126.874 106.969 129.353 107.136 130.013C107.445 131.239 107.557 133.489 109.44 134.812C111.31 136.126 113.722 134.394 113.722 134.394L115.133 133.058C116.066 134.237 115.485 134.87 114.44 135.883C113.524 136.773 112.269 138.628 111.309 140.191C110.219 141.968 109.029 143.867 106.878 146.761C105.039 148.571 102.707 147.394 99.5407 144.997C95.4679 141.913 81.708 131.493 81.708 131.493C78.7879 129.282 74.2666 125.858 72.5028 124.523C70.7395 123.188 70.4778 120.748 70.9405 120.135C72.6142 117.921 74.4574 118.248 79.3858 119.235Z" fill="white"/>
<path d="M79.2847 119.601C82.3252 120.211 85.3511 120.896 88.3825 121.55C89.9205 121.881 91.4585 122.211 93.0006 122.523C94.4074 122.808 95.7763 123.066 97.2212 123.002C98.8427 122.929 100.465 122.704 102.016 123.325C103.002 123.719 103.872 124.392 104.612 125.142C105.271 125.812 105.831 126.589 106.193 127.46C106.595 128.428 106.633 129.443 106.846 130.452C107.163 131.965 107.475 133.497 108.625 134.627C109.266 135.257 110.052 135.66 110.96 135.684C111.718 135.704 112.465 135.479 113.145 135.159C113.926 134.791 114.459 134.22 115.081 133.631C115.188 133.53 115.295 133.429 115.402 133.328C115.203 133.302 115.004 133.276 114.805 133.251C115.007 133.514 115.246 133.834 115.22 134.186C115.197 134.509 114.966 134.787 114.76 135.018C114.271 135.565 113.739 136.05 113.285 136.628C112.29 137.894 111.442 139.26 110.596 140.627C109.865 141.807 109.109 142.971 108.319 144.112C107.814 144.84 107.298 145.559 106.772 146.271C106.409 146.763 105.889 147.109 105.284 147.225C103.967 147.476 102.586 146.627 101.535 145.948C100.55 145.313 99.6259 144.59 98.6923 143.883C97.0804 142.662 95.4685 141.442 93.8566 140.221C90.4278 137.625 86.9989 135.028 83.5701 132.432C80.4369 130.06 77.3037 127.687 74.1705 125.314C73.2264 124.599 72.183 123.96 71.614 122.884C71.3497 122.384 71.169 121.816 71.129 121.25C71.0991 120.828 71.1234 120.504 71.3664 120.207C71.9142 119.537 72.587 119.075 73.4471 118.92C74.5538 118.721 75.744 118.942 76.8364 119.132C77.6545 119.273 78.4696 119.437 79.2847 119.601C79.7621 119.697 79.9661 118.965 79.4867 118.869C77.9659 118.565 76.4279 118.215 74.8762 118.115C73.8941 118.052 72.871 118.133 72.0038 118.639C71.213 119.1 70.4344 119.86 70.3671 120.81C70.278 122.067 70.8571 123.404 71.7015 124.311C72.103 124.741 72.6062 125.075 73.074 125.429C73.5919 125.821 74.1093 126.214 74.6272 126.606C75.8908 127.562 77.1549 128.52 78.4185 129.476C79.713 130.457 81.0069 131.437 82.3014 132.417C83.6794 133.46 85.0575 134.504 86.436 135.547C88.3754 137.016 90.3154 138.485 92.2548 139.954C94.0444 141.309 95.834 142.664 97.6236 144.02C98.3461 144.567 99.0639 145.12 99.7934 145.658C101.067 146.598 102.502 147.646 104.093 147.945C104.697 148.058 105.329 148.054 105.91 147.836C106.199 147.727 106.468 147.583 106.715 147.398C107.071 147.131 107.31 146.815 107.571 146.459C108.555 145.121 109.502 143.756 110.401 142.36C111.215 141.093 111.975 139.791 112.823 138.546C113.293 137.855 113.781 137.17 114.336 136.545C114.823 135.996 115.466 135.531 115.797 134.861C116.146 134.154 115.917 133.462 115.46 132.867C115.311 132.672 115.059 132.606 114.864 132.79C114.548 133.089 114.231 133.389 113.915 133.688C113.777 133.819 113.588 133.95 113.475 134.104C113.423 134.175 113.587 134.038 113.501 134.086C113.444 134.118 113.392 134.158 113.337 134.192C112.154 134.92 110.607 135.294 109.439 134.338C108.188 133.316 107.894 131.775 107.583 130.279C107.558 130.156 107.527 130.035 107.501 129.912C107.494 129.879 107.487 129.847 107.48 129.814C107.462 129.721 107.48 129.821 107.473 129.762C107.448 129.569 107.431 129.374 107.406 129.181C107.327 128.56 107.195 127.95 106.968 127.365C106.257 125.534 104.794 123.956 103.087 123.002C101.597 122.169 99.9878 122.069 98.3212 122.175C97.5193 122.226 96.7169 122.288 95.9135 122.242C95.2589 122.205 94.6185 122.071 93.9766 121.945C92.5449 121.665 91.1183 121.361 89.6917 121.055C86.5722 120.387 83.4582 119.689 80.3341 119.042C80.0511 118.983 79.7682 118.925 79.4852 118.868C79.0093 118.773 78.8053 119.505 79.2847 119.601Z" fill="#242424"/>
<path d="M100.079 130.421C99.5217 126.422 98.2875 122.624 95.2651 122.189" stroke="#242424" stroke-width="0.759377" stroke-miterlimit="10" stroke-linecap="round" stroke-linejoin="round"/>
<path d="M94.9797 129.407C94.4228 125.408 93.1881 121.61 90.1653 121.176" stroke="#242424" stroke-width="0.759377" stroke-miterlimit="10" stroke-linecap="round" stroke-linejoin="round"/>
<path d="M89.7134 128.267C89.156 124.269 87.9217 120.47 84.8994 120.036" stroke="#242424" stroke-width="0.759377" stroke-miterlimit="10" stroke-linecap="round" stroke-linejoin="round"/>
<path d="M111.309 140.191C105.784 137.275 100.376 139.36 97.7048 142.895" stroke="#242424" stroke-width="0.759377" stroke-miterlimit="10" stroke-linecap="round" stroke-linejoin="round"/>
<path d="M70.0923 123.769C71.4389 125.247 80.1348 131.762 80.1348 131.762C80.1348 131.762 94.5437 142.664 97.8399 145.159C101.136 147.652 102.945 148.908 104.394 148.74C105.249 148.642 106.099 148.087 106.879 146.762C104.877 146.56 105.047 147.062 99.4154 142.801C93.7838 138.539 80.0168 128.17 77.0542 125.881C74.9908 124.286 71.6131 122.035 71.0187 120.034C70.1829 120.114 68.0384 121.515 70.0923 123.769Z" fill="white" stroke="#242424" stroke-width="0.759377" stroke-miterlimit="10" stroke-linecap="round" stroke-linejoin="round"/>
<path d="M111.442 111.167L108.584 114.636C109.609 118.301 114.95 125.1 120.2 127.308L124.178 124.321C118.313 121.849 112.467 114.832 111.442 111.167Z" fill="#242424"/>
<path d="M168.983 81.2593C161.539 81.2593 141.863 81.5185 137.192 82.1518C132.522 82.7851 128.528 83.7799 123.593 91.8009C118.758 99.658 116.769 101.461 113.537 104.04C112.246 105.07 110.314 107.207 111.467 111.408C112.348 114.621 118.239 123.178 124.178 124.322C130.117 125.465 130.747 122.143 131.899 119.83C133.383 116.85 140.965 109.811 140.965 109.811H168.983V81.2593Z" fill="#0091BF"/>
<path d="M123.593 91.8008C118.758 99.6578 116.769 101.461 113.536 104.04C112.245 105.07 110.213 106.882 111.114 111.564" stroke="#242424" stroke-width="0.759377" stroke-miterlimit="10" stroke-linecap="round" stroke-linejoin="round"/>
<path d="M119.282 117.121C119.424 113.737 119.402 107.144 119.12 102.08C118.838 97.0162 119.606 91.0946 125.148 87.6505C131.16 83.9149 143.483 84.7173 155.146 84.1812C158.025 80.3803 160.642 76.0503 160.642 76.0503H187.16C187.604 83.5752 191.727 110.52 169.447 110.52C158.988 110.52 158.125 110.52 158.125 110.52C152.382 110.52 141.19 110.52 141.19 110.52C141.19 110.52 141.115 112.043 140.722 117.38C140.377 122.061 142.72 124.403 137.879 127.783C132.393 129.843 124.327 128.662 121.407 126.611C117.323 122.451 119.141 120.506 119.282 117.121Z" fill="#0091BF"/>
<path d="M121.407 126.611C117.323 122.451 119.141 120.506 119.282 117.121C119.424 113.737 119.402 107.144 119.12 102.08C118.838 97.0161 119.606 91.0945 125.148 87.6505C131.159 83.9149 143.483 84.7173 155.146 84.1812" stroke="#242424" stroke-width="0.759377" stroke-miterlimit="10" stroke-linecap="round" stroke-linejoin="round"/>
<path d="M137.879 98.0015C140.411 101.265 141.19 104.346 141.19 110.521" stroke="#242424" stroke-width="0.759377" stroke-miterlimit="10" stroke-linecap="round" stroke-linejoin="round"/>
<path d="M161.932 18.6305C164.089 21.6052 166.962 24.2914 170.336 25.8167C172.152 26.6373 174.193 27.1162 176.182 26.7543C179.884 21.8538 183.107 17.705 183.615 12.2395C183.852 9.69867 182.846 7.4742 181.251 6.39892C177.941 -0.480019 167.894 -0.0102164 163.317 1.22757C160.563 1.97226 159.235 2.92402 158.919 5.83091C158.631 8.48316 158.604 9.9275 159.246 13.0673C159.649 15.0376 160.744 16.9917 161.932 18.6305Z" fill="#242424"/>
<path d="M180.343 6.42702C181.318 5.30061 182.72 4.58376 184.213 4.49921C184.385 4.4896 184.549 4.58224 184.578 4.765C184.603 4.92244 184.486 5.12039 184.312 5.13051C183.242 5.19126 182.211 5.5993 181.396 6.28476C182.263 6.05493 183.203 6.17187 183.992 6.65635C184.139 6.74646 184.159 6.97073 184.062 7.10286C183.954 7.2517 183.764 7.26385 183.616 7.17323C182.799 6.67153 181.673 6.67002 180.861 7.18589C180.715 7.27853 180.529 7.28562 180.411 7.14083C180.343 7.0573 180.325 6.92112 180.366 6.81278C180.264 6.71457 180.223 6.56623 180.343 6.42702Z" fill="#242424"/>
<path d="M179.231 31.9661L176.182 26.7548C174.759 27.1724 172.65 26.6829 171.446 24.7829C170.241 22.8835 170.103 20.6534 170.103 20.6534C170.103 20.6534 171.177 18.2351 171.536 17.0641C171.536 17.0641 171.232 16.568 170.675 15.7094C169.465 16.6652 169.52 17.626 168.901 17.8604C168.068 18.1758 166.952 15.8035 168.604 12.7215C169.542 10.7238 166.919 5.1272 162.373 5.1272C160.501 5.41576 158.874 7.28636 158.155 8.81017C157.436 10.334 157.163 11.9332 157.12 13.2586C157.056 15.232 157.141 15.7195 157.106 17.2656C157.072 18.7438 156.913 19.9644 156.687 21.7024C156.303 24.6609 156.771 26.2541 157.984 27.3926C159.295 28.6233 161.676 28.9706 162.966 29.0739C164.256 29.1772 164.767 29.3194 165.698 29.1716L166.666 33.4717L162.338 38.3287C170.231 40.0327 174.619 35.8101 179.231 31.9661Z" fill="#FAAC73"/>
<path d="M170.221 16.0727C170.994 15.1726 172.484 14.593 174.129 15.2577C175.615 15.8576 176.382 17.394 176.116 18.8703C175.854 20.3298 174.681 21.318 173.386 21.6911C171.804 22.1467 170.623 21.5721 169.757 20.8796" fill="#FAAC73"/>
<path d="M170.221 16.0727C170.994 15.1726 172.484 14.593 174.129 15.2577C175.615 15.8576 176.382 17.394 176.116 18.8703C175.854 20.3298 174.681 21.318 173.386 21.6911C171.804 22.1467 170.623 21.5721 169.757 20.8796" stroke="#242424" stroke-width="1.0125" stroke-miterlimit="10" stroke-linecap="round" stroke-linejoin="round"/>
<path d="M173.899 18.4715C173.704 17.7551 173.168 17.303 172.528 17.3152C171.889 17.3278 171.167 17.8047 170.682 18.5342" stroke="#242424" stroke-width="1.0125" stroke-miterlimit="10" stroke-linecap="round" stroke-linejoin="round"/>
<path d="M172.515 18.8802C172.448 18.5531 172.269 18.3106 172.053 18.1456C171.837 17.9806 171.569 17.9031 171.313 17.854" stroke="#242424" stroke-width="1.0125" stroke-miterlimit="10" stroke-linecap="round" stroke-linejoin="round"/>
<path d="M163.915 15.2442C163.915 15.2442 163.271 14.7005 162.419 14.2079C161.769 13.8328 160.683 13.6303 160.366 13.6961C160.135 14.3983 160.2 14.9709 160.319 15.3106C160.909 16.1135 162.496 15.913 163.915 15.2442Z" fill="white"/>
<path d="M160.018 14.954C160.127 15.5635 160.599 15.9442 161.074 15.8045C161.549 15.6648 161.845 15.0573 161.737 14.4482C161.628 13.8387 161.155 13.458 160.68 13.5977C160.206 13.7375 159.91 14.345 160.018 14.954Z" fill="#242424"/>
<path d="M161.851 14.7247L160.878 14.7009L161.71 15.3084L161.851 14.7247Z" fill="white"/>
<path d="M160.366 13.6953C161.315 13.709 162.976 14.3509 163.915 15.2434" stroke="#242424" stroke-width="1.0125" stroke-miterlimit="10" stroke-linecap="round" stroke-linejoin="round"/>
<path d="M157.555 19.7938C156.358 19.5103 154.292 18.6477 154.754 17.3152C154.998 16.6115 157.628 15.9737 158.127 12.926" fill="#FAAC73"/>
<path d="M157.555 19.7938C156.358 19.5103 154.292 18.6477 154.754 17.3152C154.998 16.6115 157.628 15.9737 158.127 12.926" stroke="#242424" stroke-width="1.0125" stroke-miterlimit="10" stroke-linecap="round" stroke-linejoin="round"/>
<path d="M159.617 11.2007C161.758 11.4406 163.713 12.6506 164.706 13.8626" stroke="#242424" stroke-width="1.0125" stroke-miterlimit="10" stroke-linecap="round" stroke-linejoin="round"/>
<path d="M158.128 22.3794C158.725 22.5667 160.471 22.3526 161.107 21.7112" stroke="#242424" stroke-width="1.0125" stroke-miterlimit="10" stroke-linecap="round" stroke-linejoin="round"/>
<path d="M167.752 27.1494L165.698 29.1719C163.118 29.6928 161.96 29.1081 160.116 28.5477C163.394 28.9785 167.752 27.1494 167.752 27.1494Z" fill="#242424"/>
<path d="M172.723 5.75077C171.15 2.20904 170.483 0.522717 170.483 0.522717C163.154 0.191629 160.365 1.32462 158.724 2.81098C157.993 3.47366 157.205 6.16691 160.356 9.67321C161.427 10.8649 162.975 11.7762 164.741 12.2657C165.186 12.3887 165.574 11.9488 165.36 11.5661C165.049 11.0117 164.85 10.4407 164.764 9.9481C165.671 11.3155 167.223 12.2364 168.895 12.6444C170.567 13.0524 172.353 12.9811 174.068 12.6631C174.306 12.6191 174.568 12.5553 174.705 12.3655C174.889 12.1118 174.755 11.7716 174.573 11.5256C173.328 9.83824 173.557 7.62998 172.723 5.75077Z" fill="#242424"/>
<path d="M135.118 64.8439C134.008 64.8439 131.052 63.7327 127.113 62.7931C124.382 62.1415 122.952 62.9789 121.396 64.0597C119.615 65.2965 118.196 67.0841 117.27 68.3006C116.517 69.2913 116.624 70.5985 117.061 71.6985C117.613 73.0887 118.518 74.6318 120.083 74.9618C120.952 75.1451 121.68 74.694 121.647 73.7691C121.996 74.9188 123.894 75.9728 124.838 74.9872C124.96 74.8601 125.105 74.6809 125.178 74.5224C125.23 74.409 125.212 74.161 125.267 74.0805C125.399 73.8845 125.374 73.961 125.62 73.9833C126.772 74.0881 127.872 74.3386 129.025 74.5006C129.851 74.6171 130.706 74.5482 131.539 74.5862C134.017 74.6986 142.656 74.5862 142.656 74.5862C142.656 74.5862 149.05 74.8414 152.75 74.5862C156.45 74.3311 158.613 71.3447 160.242 67.5058C162.126 63.0644 165.087 55.8417 165.087 55.8417L158.627 38.7173C153.776 42.0241 152.66 51.5351 150.448 62.4503C150.447 62.4503 137.496 64.8439 135.118 64.8439Z" fill="#FAAC73"/>
<path d="M159.248 37.2795C155.473 39.0884 153.763 41.1164 152.562 47.1707C150.91 55.5 149.573 61.6753 149.573 61.6753L134.36 63.879C134.917 66.9914 134.977 71.0096 134.633 74.973C134.633 74.973 148.992 74.973 152.74 74.973C157.442 74.973 159.219 72.3223 160.826 68.3011C162.433 64.2799 166.143 55.4003 166.143 55.4003L159.248 37.2795Z" fill="white" stroke="#242424" stroke-width="1.0125" stroke-miterlimit="10" stroke-linecap="round" stroke-linejoin="round"/>
<path d="M137.304 63.4529C137.963 66.9607 138.004 71.6587 137.534 74.9731L137.304 63.4529Z" fill="white"/>
<path d="M137.304 63.4529C137.963 66.9607 138.004 71.6587 137.534 74.9731" stroke="#242424" stroke-width="1.0125" stroke-miterlimit="10" stroke-linecap="round" stroke-linejoin="round"/>
<path d="M154.53 54.7434C154.213 59.8606 154.605 65.9842 154.215 71.9651C153.781 78.6455 153.179 80.8801 155.148 81.718C157.117 82.5558 175.216 87.3809 187.554 81.2588C189.678 79.29 187.715 76.5279 187.748 71.6907C187.782 66.8534 189.008 60.177 189.788 54.0827C190.595 47.7835 189.79 44.8381 187.974 41.9378C185.574 38.1034 184.245 36.6464 180.695 32.1636C173.708 36.0703 164.679 35.4188 164.679 35.4188L164.76 33.3943C164.76 33.3943 161.979 35.1535 159.249 37.2792C155.147 43.0211 155.147 44.7515 154.53 54.7434Z" fill="white" stroke="#242424" stroke-width="1.0125" stroke-miterlimit="10" stroke-linecap="round" stroke-linejoin="round"/>
<path d="M164.678 35.4186C164.678 35.4186 168.237 34.2238 172.098 32.1401C175.684 30.2052 176.824 29.2995 177.655 28.4131L180.693 32.1629C177.439 36.7303 170.188 39.624 170.188 39.624C167.731 36.8948 167.145 36.3871 165.466 37.0113" fill="white"/>
<path d="M164.678 35.4186C164.678 35.4186 168.237 34.2238 172.098 32.1401C175.684 30.2052 176.824 29.2995 177.655 28.4131L180.693 32.1629C177.439 36.7303 170.188 39.624 170.188 39.624C167.731 36.8948 167.145 36.3871 165.466 37.0113" stroke="#242424" stroke-width="1.0125" stroke-miterlimit="10" stroke-linecap="round" stroke-linejoin="round"/>
<path d="M164.678 35.4189C164.492 38.1608 163.94 38.5511 162.634 40.4921C161.329 42.4331 158.647 45.2898 158.128 53.482C157.456 64.0697 158.067 74.3568 158.128 82.2826" stroke="#242424" stroke-width="1.0125" stroke-miterlimit="10" stroke-linecap="round" stroke-linejoin="round"/>
<path d="M162.634 40.4926C163.94 38.5516 164.492 38.1613 164.678 35.4194L165.609 34.9689L166.666 33.4724L166.209 31.4443C166.209 31.4443 164.186 32.5976 162.491 33.765C161.199 34.6545 160.691 35.0752 160.856 36.0143L161.963 35.3101C161.963 35.3101 163.934 37.086 162.634 40.4926Z" fill="white" stroke="#242424" stroke-width="1.0125" stroke-miterlimit="10" stroke-linecap="round" stroke-linejoin="round"/>
<path d="M146.132 76.3383C151.796 76.3383 155.015 76.2299 159.701 75.8295C163.241 75.5268 165.037 73.7761 168.688 70.2218C172.567 66.4461 175.94 61.619 177.392 60.5301V40.8784C177.392 40.8784 174.793 41.6246 173.151 42.5951C170.1 44.3989 169.655 45.704 164.083 53.4775C159.276 60.1858 157.476 62.6118 157.476 62.6118C157.476 62.6118 150.632 64.3087 145.887 65.2018C141.738 65.9824 138.279 66.6086 136.206 66.3105C134.132 66.0123 129.879 64.8094 128.227 64.7639C126.575 64.7183 122.669 66.4806 121.231 67.5872C119.792 68.6939 119.253 70.4881 119.09 71.9314C118.928 73.3747 119.714 73.7579 120.51 73.7194C120.425 75.1101 121.262 75.4215 122.361 75.5263C122.447 76.6491 123.383 77.1149 124.377 76.8263C125.084 77.6697 126.199 77.3402 126.555 76.0725C126.771 75.303 128.036 74.9112 131.231 75.7637C132.494 76.1008 133.223 76.7802 136.657 76.6051C140.09 76.4299 140.469 76.3383 146.132 76.3383Z" fill="#FAAC73"/>
<path d="M125.131 68.3013C123.943 68.7771 122.298 69.613 121.753 70.4483C121.208 71.2836 120.554 72.1265 120.51 73.7192" stroke="#242424" stroke-width="1.0125" stroke-miterlimit="10" stroke-linecap="round" stroke-linejoin="round"/>
<path d="M122.361 75.526C122.336 74.2325 123.021 72.7001 123.459 72.2369C124.427 71.2133 126.403 70.2878 126.403 70.2878" stroke="#242424" stroke-width="1.0125" stroke-miterlimit="10" stroke-linecap="round" stroke-linejoin="round"/>
<path d="M127.483 72.3474C126.442 72.7868 125.146 73.5913 124.781 74.1401C124.416 74.6883 124.298 75.8603 124.377 76.8262" stroke="#242424" stroke-width="1.0125" stroke-miterlimit="10" stroke-linecap="round" stroke-linejoin="round"/>
<path d="M178.851 39.1316C173.474 39.769 170.302 42.7234 166.156 49.2014C162.01 55.6794 157.475 62.611 157.475 62.611L141.191 66.0682C141.191 66.0682 142.499 67.7804 143.084 71.0097C143.651 74.1368 143.342 76.3679 143.342 76.3679C143.342 76.3679 150.769 76.456 154.349 76.3679C157.929 76.2798 161.321 77.0387 164.678 74.5864C168.035 72.1341 181.25 58.0188 181.25 58.0188" fill="white"/>
<path d="M178.851 39.1316C173.474 39.769 170.302 42.7234 166.156 49.2014C162.01 55.6794 157.475 62.611 157.475 62.611L141.191 66.0682C141.191 66.0682 142.499 67.7804 143.084 71.0097C143.651 74.1368 143.342 76.3679 143.342 76.3679C143.342 76.3679 150.769 76.456 154.349 76.3679C157.929 76.2798 161.321 77.0387 164.678 74.5864C168.035 72.1341 181.25 58.0188 181.25 58.0188" stroke="#242424" stroke-width="1.0125" stroke-miterlimit="10" stroke-linecap="round" stroke-linejoin="round"/>
<path d="M144.455 65.376C146.4 67.5923 147.013 73.1221 146.641 76.3019" stroke="#242424" stroke-width="1.0125" stroke-miterlimit="10" stroke-linecap="round" stroke-linejoin="round"/>
<path d="M148.091 79.243H40.9498V79.12C40.9498 77.4701 42.2873 76.1326 43.9372 76.1326H145.104C146.754 76.1326 148.092 77.4701 148.092 79.12V79.243H148.091Z" fill="#D6D899"/>
<path d="M99.8246 76.1326C98.1069 76.1326 96.7142 77.5253 96.7142 79.243" stroke="#242424" stroke-width="0.759377" stroke-miterlimit="10" stroke-linecap="round" stroke-linejoin="round"/>
<path d="M148.091 79.2432H40.9496V80.8141H148.091V79.2432Z" fill="#242424"/>
<path d="M138.52 161.271L134.358 85.2467C134.198 82.3201 131.778 80.0288 128.847 80.0288H118.067C115.136 80.0288 112.716 82.3201 112.556 85.2467L108.394 161.271" stroke="#242424" stroke-width="0.759377" stroke-miterlimit="10" stroke-linecap="round" stroke-linejoin="round"/>
<path d="M137.919 151.589H108.924" stroke="#242424" stroke-width="0.759377" stroke-miterlimit="10" stroke-linecap="round" stroke-linejoin="round"/>
<path d="M79.2699 161.271L75.108 85.2467C74.9481 82.3201 72.5277 80.0288 69.5965 80.0288H58.8169C55.8857 80.0288 53.4658 82.3201 53.3053 85.2467L49.1434 161.271" stroke="#242424" stroke-width="0.759377" stroke-miterlimit="10" stroke-linecap="round" stroke-linejoin="round"/>
<path d="M78.6691 151.589H49.6741" stroke="#242424" stroke-width="0.759377" stroke-miterlimit="10" stroke-linecap="round" stroke-linejoin="round"/>
<path d="M48.1149 64.9114C51.8951 68.2375 53.7586 69.894 58.3888 68.8966C64.6233 67.5536 74.1833 62.3356 76.6584 60.749C79.1335 59.1619 82.1133 57.7626 83.9317 56.8686C85.7502 55.9741 86.8209 55.0552 88.0161 53.7805C88.9269 52.8085 88.4763 51.3692 88.4763 51.3692C88.4763 51.3692 89.4519 50.5471 88.8753 49.7978C88.2986 49.0485 87.3276 49.7705 87.3276 49.7705C87.3276 49.7705 87.6258 49.1123 86.4508 48.7038C85.8636 48.4998 85.496 48.5119 83.7373 49.2227C82.2996 49.8034 79.3279 51.113 78.08 51.1267C76.832 51.1404 77.8415 49.409 78.5624 48.2963C79.2833 47.1835 78.9492 46.0875 78.1645 46.1406C77.3803 46.1938 75.5077 47.2726 74.2324 49.5128C71.9462 53.5289 71.2213 55.4658 68.2521 56.413C66.9323 56.8337 57.1318 58.1261 57.1318 58.1261C57.1318 58.1261 49.4489 49.7973 45.895 45.848C42.3406 41.8988 41.6587 41.5398 37.9611 40.5349V54.6441C37.9611 54.6441 45.7553 62.8353 48.1149 64.9114Z" fill="#FAAC73"/>
<path d="M37.1943 39.6687C41.821 40.668 43.1023 41.6785 47.4986 46.8094C51.8949 51.9402 57.1837 57.3369 57.1837 57.3369L67.6043 55.5863L68.6234 58.9559L65.715 60.9849L69.5458 60.6837L71.1106 64.3014C71.1106 64.3014 63.2875 68.2542 60.0496 69.3315C56.8116 70.4088 53.8389 71.0082 49.8359 67.3505C46.641 64.431 37.1948 54.8937 37.1948 54.8937L37.1943 39.6687Z" fill="white"/>
<path d="M57.1837 57.3369C53.8824 57.8882 51.9091 60.6584 51.9091 60.6584" stroke="#242424" stroke-width="0.759377" stroke-miterlimit="10" stroke-linecap="round" stroke-linejoin="round"/>
<path d="M83.7675 55.7305C84.2008 55.3458 84.4565 54.9286 85.7358 53.2727C85.8836 53.0813 86.038 52.85 85.9773 52.6156C85.9271 52.4207 85.7378 52.2906 85.5449 52.2334C85.0078 52.0744 84.4388 52.3554 83.9968 52.6996C82.515 53.8534 81.3056 55.9406 79.1393 55.3529C78.6462 55.2192 78.1749 55.0071 77.6747 54.9018C76.2623 54.6046 74.6975 55.2754 73.9386 56.5031" stroke="#242424" stroke-width="0.759377" stroke-miterlimit="10" stroke-linecap="round" stroke-linejoin="round"/>
<path d="M88.4763 51.3684C87.8881 51.2282 87.3363 51.6787 85.9172 52.4842" stroke="#242424" stroke-width="0.759377" stroke-miterlimit="10" stroke-linecap="round" stroke-linejoin="round"/>
<path d="M87.3284 49.77C86.4895 50.1765 82.4578 52.0492 82.4578 52.0492" stroke="#242424" stroke-width="0.759377" stroke-miterlimit="10" stroke-linecap="round" stroke-linejoin="round"/>
<path d="M62.4707 106.752C62.6251 115.749 66.227 127.275 67.0153 135.82C67.0153 135.82 67.1059 137.011 66.0291 140.69C65.4418 142.697 63.8831 146.426 66.6361 148.053C67.031 148.286 74.6263 147.63 76.6184 150.705C80.7463 157.076 81.1235 159.638 91.1214 159.638C97.8677 159.638 100.256 159.701 100.256 159.071C100.256 157.296 99.6938 157.326 96.9317 155.83C93.9873 154.234 93.9033 153.611 91.812 152.016C89.5738 150.309 86.7039 147.132 84.2025 143.66C82.3415 141.078 81.2627 136.971 81.2632 131.481C81.2637 125.992 82.2185 115.305 82.6276 104C83.1525 89.4723 76.8082 85.4374 67.5777 84.2082C57.3514 82.8469 30.6391 83.6767 30.6391 83.6767H19.8929C16.4008 92.9608 17.1672 103.555 26.5805 105.881C31.7999 107.17 39.4008 106.75 48.6976 106.75C57.9949 106.75 62.4707 106.752 62.4707 106.752Z" fill="#FAAC73"/>
<path d="M97.7079 158.301H90.5849C86.053 158.301 82.2945 157.969 80.6361 156.784C78.9781 155.599 76.2145 150.563 74.2249 149.009C73.6655 148.572 72.7745 148.268 71.7271 148.053V151.132C73.9348 151.65 77.0796 157.691 78.7569 159.672C80.8512 162.147 86.6053 161.695 90.8061 161.695H97.8041C98.7715 161.695 99.5501 160.886 99.499 159.907C99.4504 158.989 98.6267 158.301 97.7079 158.301Z" fill="white"/>
<path d="M97.4055 155.525C96.4689 155.009 93.9428 153.432 91.8114 152.016C91.8757 153.604 87.6015 153.497 84.0547 151.181C80.0355 148.556 78.2707 145.803 75.7623 142.642C72.8933 139.026 72.2499 137.052 66.7014 135.743C66.6011 138.908 63.7034 142.3 64.69 147.921C64.69 147.921 67.8288 149.067 70.4588 149.535C73.0882 150.004 74.8743 150.516 76.2543 152.242C77.4304 153.714 79.7611 156.744 82.5106 158.819C83.7853 159.781 85.4215 159.703 89.1258 159.801C94.9553 159.955 100.927 159.907 100.927 159.907C100.927 158.079 100.816 157.407 97.4055 155.525Z" fill="#242424"/>
<path d="M99.1353 158.301H92.0123C87.4804 158.301 83.7219 157.969 82.0635 156.784C80.4055 155.599 77.6419 150.563 75.6523 149.008C73.6627 147.454 67.5604 147.547 64.6525 147.547C64.6525 148.067 64.9674 148.935 65.1683 149.51C65.6493 150.889 67.3852 152.881 67.3852 161.695H70.9249C70.9249 156.895 70.6698 150.941 73.1099 151.119C75.3207 151.565 78.4159 157.748 80.1843 159.672C81.9526 161.596 88.0327 161.695 92.2335 161.695H99.2315C100.199 161.695 100.978 160.886 100.926 159.907C100.878 158.989 100.055 158.301 99.1353 158.301Z" fill="#242424"/>
<path d="M55.6232 106.131C52.9244 110.435 53.298 113.896 48.3135 120.88C48.3135 120.88 47.6037 121.842 44.385 123.924C42.6293 125.06 39.0131 126.865 40.0353 129.895C40.1821 130.33 46.3614 134.794 45.8612 138.423C44.8249 145.944 43.4368 148.13 51.0072 154.661C56.1153 159.068 57.8831 160.675 58.2947 160.198C59.454 158.855 59.0085 158.51 57.8948 155.573C56.7076 152.442 57.0509 151.915 56.5097 149.341C55.93 146.587 55.8323 142.306 56.2059 138.044C56.4839 134.873 58.2537 130.186 61.1707 126.86C64.0878 123.535 72.569 114.071 78.2036 106.13C83.2701 98.9905 83.9799 91.2246 76.3654 87.0693C69.0931 83.1008 55.8586 83.6481 47.7728 83.4253L42.9442 79.4143H17.5435C13.0217 94.6135 19.1362 103.972 24.6118 105.223C30.0869 106.474 55.6232 106.131 55.6232 106.131Z" fill="#FAAC73"/>
<path d="M56.8686 157.952L51.475 153.299C48.0436 150.338 45.4141 147.632 44.9327 145.652C44.4512 143.671 45.6485 138.053 45.1575 135.576C45.0193 134.88 44.5429 134.068 43.8908 133.221L41.8795 135.552C43.2124 137.387 41.6481 144.015 41.6233 146.611C41.5924 149.853 46.2444 153.27 49.4252 156.014L54.7236 160.585C55.4561 161.217 56.5744 161.113 57.1754 160.338C57.7383 159.611 57.5642 158.552 56.8686 157.952Z" fill="white"/>
<path d="M58.4524 155.653C58.0808 154.65 57.1984 151.806 56.5094 149.342C55.5207 150.586 52.3536 147.713 51.1811 143.643C49.8527 139.03 50.3149 135.793 50.4804 131.761C50.6698 127.149 51.4722 125.234 48.1258 120.618C45.9824 122.949 41.5729 123.624 38.6483 128.525C38.6483 128.525 40.2764 131.443 41.9617 133.516C43.647 135.588 44.6651 137.142 44.5816 139.351C44.5107 141.233 44.2961 145.05 45.0225 148.417C45.3597 149.978 46.6496 150.987 49.39 153.481C53.7032 157.406 58.2564 161.271 58.2564 161.271C59.4512 159.887 59.8066 159.305 58.4524 155.653Z" fill="#242424"/>
<path d="M57.9496 158.885L52.556 154.232C49.1247 151.272 46.4952 148.566 46.0137 146.585C45.5323 144.605 46.7296 138.986 46.2385 136.51C45.7475 134.033 41.0661 130.118 38.8645 128.218C38.5243 128.612 38.1967 129.475 37.9724 130.042C37.4358 131.4 37.449 134.042 31.6919 140.716L34.372 143.028C37.5072 139.394 41.2033 134.719 42.9352 136.448C44.3178 138.23 42.6229 144.932 42.7049 147.545C42.7869 150.157 47.3259 154.203 50.5067 156.947L55.8052 161.518C56.5377 162.15 57.656 162.046 58.2569 161.271C58.8199 160.545 58.6457 159.486 57.9496 158.885Z" fill="#242424"/>
<path d="M28.2947 106.229C17.5429 106.229 13.0211 95.1543 16.6919 78.9436H43.6634L45.8849 80.4988C69.666 81.2845 76.3754 83.5125 79.5202 87.1894C82.9678 91.2207 83.8724 96.7945 77.6152 108.671C71.727 119.847 67.7013 126.802 63.6598 133.221C52.6793 132.606 44.4744 119.847 44.4744 119.847C44.4744 119.847 49.5673 111.219 52.4727 106.13C52.4727 106.13 39.0469 106.229 28.2947 106.229Z" fill="#242424"/>
<path d="M85.911 136.183C85.7652 132.708 83.8556 108.555 83.5827 100.4C83.4086 95.1958 82.8932 90.1859 77.4039 86.3455C71.9146 82.5056 60.1478 82.5744 48.174 82.0236C45.2175 78.1214 42.5313 73.676 42.5313 73.676H16.9534C16.9534 73.676 5.59874 107.487 30.0892 107.487H45.1157C51.0115 107.487 60.9244 107.487 60.9244 107.487C60.9244 107.487 61.8691 127.284 61.6873 135.605C70.9107 140.002 80.1675 138.955 85.911 136.183Z" fill="#0091BF"/>
<path d="M48.4029 81.8106C41.5462 81.4091 34.6896 82.0242 34.6896 82.0242" stroke="#242424" stroke-width="0.506251" stroke-miterlimit="10" stroke-linecap="round" stroke-linejoin="round"/>
<path d="M64.3247 94.635C61.7251 97.9859 60.6726 101.681 60.6726 108.021" stroke="#242424" stroke-width="0.506251" stroke-miterlimit="10" stroke-linecap="round" stroke-linejoin="round"/>
<path d="M28.5398 36.4875C34.2058 38.8254 36.6925 38.7302 40.013 41.5101C44.8563 46.771 45.6916 49.9017 47.1678 69.4779C47.8973 79.1493 48.1145 81.6745 48.1145 81.6745L32.2835 86.1311L28.5398 36.4875Z" fill="white"/>
<path d="M40.0139 41.51C44.8572 46.771 46.0226 50.0859 47.4988 69.6621" stroke="#242424" stroke-width="0.759377" stroke-miterlimit="10" stroke-linecap="round" stroke-linejoin="round"/>
<path d="M30.2686 38.2128L30.4695 35.0588C30.4695 35.0588 34.9306 36.7477 36.1947 38.0295C36.7531 38.596 35.6328 40.1978 35.9198 40.8671C36.3476 41.8649 41.2932 46.7183 43.0939 50.3243C45.8783 55.8997 44.9012 63.3375 44.9012 63.3375L31.9169 48.3758L30.2686 38.2128Z" fill="white" stroke="#242424" stroke-width="0.759377" stroke-miterlimit="10" stroke-linecap="round" stroke-linejoin="round"/>
<path d="M41.7525 18.5569C42.8055 25.0795 38.2148 31.2461 31.4989 32.33C24.783 33.4144 18.4847 29.0059 17.4317 22.4834C16.3787 15.9609 20.9694 9.79472 27.6853 8.71033C36.5994 7.27156 43.9132 11.1611 41.7525 18.5569Z" fill="#242424"/>
<path d="M42.1362 24.2919C42.0896 23.5796 41.474 22.558 41.2062 20.9987C41.0528 20.1057 41.43 19.3681 41.1667 18.3211C40.62 16.1493 39.1048 13.1736 34.3187 13.0708C34.6295 20.4474 28.6633 23.1847 28.6633 23.1847C29.0076 24.2777 29.6369 27.2332 29.6369 27.2332C28.6841 29.6308 26.9861 31.0402 23.9193 31.2184L21.3966 36.2713L21.4751 40.0616C23.8499 42.2344 27.6903 45.4977 33.3791 44.4083L31.3196 38.5514L32.6101 33.8899C38.2431 34.9753 42.7604 33.8575 42.1362 24.2919Z" fill="#FAAC73"/>
<path d="M29.8703 22.2421C29.1458 21.4073 27.7592 20.8798 26.242 21.5192C24.872 22.0963 24.178 23.5432 24.4392 24.9232C24.6979 26.2876 25.7939 27.2008 26.9973 27.537C28.4674 27.9471 29.5554 27.3968 30.3502 26.7396" fill="#FAAC73"/>
<path d="M29.8703 22.2421C29.1458 21.4073 27.7592 20.8798 26.242 21.5192C24.872 22.0963 24.178 23.5432 24.4392 24.9232C24.6979 26.2876 25.7939 27.2008 26.9973 27.537C28.4674 27.9471 29.5554 27.3968 30.3502 26.7396" stroke="#242424" stroke-width="0.759377" stroke-miterlimit="10" stroke-linecap="round" stroke-linejoin="round"/>
<path d="M26.4897 24.5265C26.6629 23.8537 27.1545 23.4244 27.7468 23.43C28.3391 23.435 29.0124 23.874 29.469 24.5523" stroke="#242424" stroke-width="0.759377" stroke-miterlimit="10" stroke-linecap="round" stroke-linejoin="round"/>
<path d="M27.7753 24.8954C27.834 24.5881 27.997 24.3593 28.1955 24.2028C28.3939 24.0464 28.641 23.971 28.8779 23.9224" stroke="#242424" stroke-width="0.759377" stroke-miterlimit="10" stroke-linecap="round" stroke-linejoin="round"/>
<path d="M35.8395 21.648C35.8395 21.648 36.3548 20.9975 37.1086 20.4791C37.6827 20.0842 38.5808 20.0128 38.9347 20.189C39.1362 20.3789 39.4966 20.9884 39.1337 21.8617C38.597 22.3421 36.7447 22.1796 35.8395 21.648Z" fill="white"/>
<path d="M39.4285 21.5937C39.2118 22.0898 38.6564 22.309 38.1877 22.0837C37.7189 21.8585 37.5143 21.2737 37.731 20.7776C37.9477 20.2815 38.503 20.0623 38.9718 20.2876C39.4406 20.5128 39.6446 21.0976 39.4285 21.5937Z" fill="#242424"/>
<path d="M37.5647 20.9885L38.5792 21.186L37.6118 21.5181L37.5647 20.9885Z" fill="white"/>
<path d="M38.9349 20.1892C37.8242 20.2201 37.0157 20.5492 35.8124 21.5277" stroke="#242424" stroke-width="0.759377" stroke-miterlimit="10" stroke-linecap="round" stroke-linejoin="round"/>
<path d="M39.3468 20.0137C39.1772 20.1716 38.9352 20.1893 38.595 20.2025" stroke="#242424" stroke-width="0.759377" stroke-miterlimit="10" stroke-linecap="round" stroke-linejoin="round"/>
<path d="M41.8195 25.9006C42.9246 25.6226 44.3123 24.5129 43.525 23.4635C42.7905 22.4844 41.4008 22.6256 40.9108 19.052" fill="#FAAC73"/>
<path d="M41.8195 25.9006C42.9246 25.6226 44.3123 24.5129 43.525 23.4635C42.7905 22.4844 41.4008 22.6256 40.9108 19.052" stroke="#242424" stroke-width="0.759377" stroke-miterlimit="10" stroke-linecap="round" stroke-linejoin="round"/>
<path d="M38.6374 17.2462C36.7466 17.2406 35.6764 17.5312 34.5834 19.22" stroke="#242424" stroke-width="0.759377" stroke-miterlimit="10" stroke-linecap="round" stroke-linejoin="round"/>
<path d="M40.8324 27.8562C39.7652 28.0977 38.6413 27.9276 37.8688 27.3328" stroke="#242424" stroke-width="0.759377" stroke-miterlimit="10" stroke-linecap="round" stroke-linejoin="round"/>
<path d="M33.0928 32.5542L32.6104 33.8897C34.8131 34.3139 36.6609 34.478 38.3948 33.8051C34.9588 33.5824 33.0928 32.5542 33.0928 32.5542Z" fill="#242424"/>
<path d="M34.2101 12.3982C34.9543 13.2603 35.701 17.1185 34.2542 19.7657C33.2584 21.5877 31.5837 22.3744 29.8138 21.8884" stroke="#242424" stroke-width="0.759377" stroke-miterlimit="10" stroke-linecap="round" stroke-linejoin="round"/>
<path d="M23.5733 3.84722C22.5193 4.00213 21.4592 4.64963 20.8072 5.39686C20.7515 5.46065 20.6907 5.53051 20.6072 5.5462C20.5368 5.55987 20.4654 5.53152 20.3976 5.50722C19.4413 5.16398 18.3716 5.57405 17.5393 6.15725C16.4402 6.92726 15.567 8.00355 14.9898 9.2145C14.4481 10.3515 14.1641 11.6668 14.5069 12.8787C14.8491 14.0907 15.931 15.1397 17.19 15.1685C16.7597 16.1588 17.2123 17.3905 18.0785 18.0349C18.9447 18.6794 20.1232 18.7948 21.1727 18.5417C22.2221 18.2891 23.1628 17.7059 24.0239 17.0548C25.6176 15.8504 27.0361 14.3418 27.8147 12.5021C28.4946 10.8947 28.6728 8.92087 27.964 7.28922C27.275 5.70162 26.3871 4.19248 24.5261 3.85481C24.2168 3.79862 23.8953 3.80014 23.5733 3.84722Z" fill="#242424"/>
<path d="M27.0395 7.15967C27.5078 6.71164 27.6495 5.99378 27.5149 5.35995C27.3807 4.72612 27.0056 4.16621 26.5687 3.6878C26.2538 3.34304 25.8939 3.02512 25.4625 2.84641C24.9877 2.64948 24.4546 2.63378 23.9448 2.7001C21.4059 3.03018 19.9302 4.9595 19.7115 7.43203C19.4559 7.27813 19.1313 7.32622 18.8397 7.38951C17.4521 7.68971 16.0933 8.23798 15.015 9.16139C13.9367 10.0848 13.1637 11.4147 13.1004 12.8332C13.0371 14.2512 13.7636 15.7259 15.0262 16.3755C15.376 16.5557 15.7638 16.6726 16.1576 16.6737C17.1023 16.6757 17.9108 16.0348 18.6332 15.4268" stroke="#242424" stroke-width="0.759377" stroke-miterlimit="10" stroke-linecap="round" stroke-linejoin="round"/>
<path d="M13.1198 6.40585C14.0006 6.2317 14.9397 6.36636 15.7356 6.78149C16.5314 7.19661 17.1799 7.88916 17.5419 8.71081" stroke="#242424" stroke-width="0.759377" stroke-miterlimit="10" stroke-linecap="round" stroke-linejoin="round"/>
<path d="M15.22 4.57666C16.4112 5.36388 17.2794 6.62546 17.5892 8.01917" stroke="#242424" stroke-width="0.759377" stroke-miterlimit="10" stroke-linecap="round" stroke-linejoin="round"/>
<path d="M44.9009 63.3372L20.4723 37.006L22.8132 32.8948C23.8282 34.0586 25.388 35.183 28.5399 36.4876C32.4011 38.0854 34.5866 38.2079 34.4838 39.6208C34.4063 40.6845 33.7639 42.2538 34.2464 42.8052C39.5225 48.8336 44.8999 50.5867 44.9009 63.3372Z" fill="white" stroke="#242424" stroke-width="0.759377" stroke-miterlimit="10" stroke-linecap="round" stroke-linejoin="round"/>
<path d="M33.5457 39.9092C32.8112 39.6206 32.1141 40.4514 31.419 41.8957C31.419 41.8957 27.5092 40.7961 22.6041 37.8188" fill="white"/>
<path d="M33.5457 39.9092C32.8112 39.6206 32.1141 40.4514 31.419 41.8957C31.419 41.8957 27.5092 40.7961 22.6041 37.8188" stroke="#242424" stroke-width="0.759377" stroke-miterlimit="10" stroke-linecap="round" stroke-linejoin="round"/>
<path d="M19.8233 36.1318C19.8233 36.1318 17.251 39.4579 15.7879 41.5275C14.3249 43.597 11.2408 47.7675 12.6796 53.6061C14.1548 59.5905 15.5363 65.4028 15.9692 68.7445C16.2253 70.7225 14.3249 77.3888 13.8328 85.5501C22.2285 89.3343 42.473 90.0319 49.8354 82.0245L47.498 69.6624C45.5783 63.436 42.1652 55.0332 19.8233 36.1318Z" fill="white"/>
<path d="M20.7249 40.3269C20.1989 41.4427 19.7554 42.5979 19.3995 43.779" stroke="#242424" stroke-width="0.759377" stroke-miterlimit="10" stroke-linecap="round" stroke-linejoin="round"/>
<path d="M20.4299 35.1636L18.738 38.1479L23.9104 43.6175C23.9104 43.6175 26.7211 43.5673 29.2048 44.2969L25.3978 44.9226C25.3978 44.9226 32.4245 50.055 36.2715 54.1009C40.1191 58.1469 45.661 64.0143 47.4982 69.6626C45.3451 60.9869 41.5649 53.6671 33.3626 45.8065C25.1603 37.9459 20.4299 35.1636 20.4299 35.1636Z" fill="white" stroke="#242424" stroke-width="0.759377" stroke-miterlimit="10" stroke-linecap="round" stroke-linejoin="round"/>
<path d="M21.2724 46.3999C24.2046 48.2973 25.5877 49.7199 27.2633 57.4392C28.8535 64.7662 30.4431 71.7145 30.4431 71.7145C30.4431 71.7145 43.3505 75.0633 46.9879 75.5539C49.3789 75.8764 56.1268 75.8263 57.9002 76.3852C59.6736 76.9441 62.7126 78.6405 63.4983 79.2966C64.3508 80.0084 66.7712 82.5098 66.8051 83.1087C66.8633 84.1333 65.3436 84.0255 63.5656 82.8059C62.8326 83.5395 61.8839 83.7511 59.1607 82.9452C56.4376 82.1397 54.9755 82.2794 52.5076 82.9416C50.0391 83.6038 48.5563 82.6505 47.0932 82.5427C44.1159 82.3235 33.5469 82.4627 27.6587 82.3073C23.6097 82.2005 20.8486 80.905 19.3997 77.3658C17.6638 73.1254 16.5642 70.544 13.9191 61.3287C11.2678 52.0922 12.3198 50.0155 13.7125 47.4549C14.8025 45.4507 18.3402 44.5025 21.2724 46.3999Z" fill="#FAAC73"/>
<path d="M27.0696 71.7018C28.5661 71.5757 29.4722 71.6086 30.6574 71.7377" stroke="#242424" stroke-width="0.506251" stroke-miterlimit="10" stroke-linecap="round" stroke-linejoin="round"/>
<path d="M57.1837 78.4558C59.0032 79.1894 60.769 80.0566 62.4624 81.0478C62.9707 81.3455 63.971 82.1023 63.566 82.8055" stroke="#242424" stroke-width="0.506251" stroke-miterlimit="10" stroke-linecap="round" stroke-linejoin="round"/>
<path d="M44.8819 82.8436L45.9957 82.8188C46.1683 82.8147 46.3095 82.6806 46.3222 82.5084L46.8426 75.4488L45.012 75.1384L44.4759 82.4163C44.4582 82.6502 44.6465 82.8486 44.8819 82.8436Z" fill="#242424"/>
<path d="M48.138 75.8741L43.7681 75.225C43.521 75.1886 43.3504 74.9583 43.3874 74.7112L43.4319 74.4115C43.4689 74.1644 43.6987 73.9938 43.9458 74.0303L48.3157 74.6793C48.5628 74.7158 48.7334 74.9461 48.6969 75.1932L48.6524 75.4929C48.6149 75.7404 48.3851 75.911 48.138 75.8741Z" fill="#242424"/>
<path d="M13.4709 45.3716C11.7567 48.7148 11.3988 51.9346 12.83 58.732C14.2611 65.5295 17.8479 75.1513 18.7379 77.3884C19.6279 79.6255 20.9158 82.0581 24.1356 82.4874C27.3553 82.9167 34.6904 82.8433 34.6904 82.8433L35.5024 78.4556L31.6246 77.3884C31.6246 77.3884 35.9419 76.9065 35.8705 76.6918C35.7991 76.4772 36.6577 72.8281 36.6577 72.8281L30.6571 71.2861C30.6571 71.2861 29.6051 65.5386 28.1345 58.5979C26.6633 51.6572 25.9783 48.1428 21.8418 45.3716C19.0705 43.5156 15.1856 44.318 13.4709 45.3716Z" fill="white"/>
<path d="M30.6572 71.2862C27.923 70.6499 25.6428 71.2862 25.6428 71.2862" stroke="#242424" stroke-width="0.759377" stroke-miterlimit="10" stroke-linecap="round" stroke-linejoin="round"/>
<path d="M12.8306 58.7325C14.2617 65.53 17.8485 75.1518 18.7385 77.3889C19.6285 79.626 20.9164 82.0586 24.1362 82.4879C27.3559 82.9172 34.691 82.8438 34.691 82.8438L35.503 78.4561L31.6251 77.3889C31.6251 77.3889 35.9425 76.9069 35.8711 76.6923C35.7997 76.4776 36.6583 72.8286 36.6583 72.8286L30.6577 71.2865C30.6577 71.2865 29.6057 65.5391 28.1351 58.5984C26.6639 51.6577 25.9789 48.1433 21.8423 45.372C19.0721 43.5161 15.1867 44.3185 13.4725 45.372" stroke="#242424" stroke-width="0.759377" stroke-miterlimit="10" stroke-linecap="round" stroke-linejoin="round"/>
<path d="M34.6899 109.571V161.417" stroke="#242424" stroke-width="0.759377" stroke-miterlimit="10" stroke-linecap="round" stroke-linejoin="round"/>
<path d="M34.6904 152.198C34.6904 157.054 26.3398 160.362 12.6239 160.362V161.416H34.6904H56.7569V160.362C43.041 160.362 34.6904 157.054 34.6904 152.198Z" fill="#242424" stroke="#242424" stroke-width="0.759377" stroke-miterlimit="10" stroke-linecap="round" stroke-linejoin="round"/>
<path d="M59.277 113.342H10.1038C10.1038 110.047 12.7752 107.375 16.0699 107.375H53.3103C56.6055 107.376 59.277 110.047 59.277 113.342Z" fill="#D6D899"/>
<path d="M10.9198 115.748H58.4609C58.9115 115.748 59.277 115.383 59.277 114.932V113.342H10.1038V114.932C10.1038 115.383 10.4688 115.748 10.9198 115.748Z" fill="#242424"/>
<path d="M6.91262 94.6138L0.450317 44.0469C3.85688 44.0469 6.97185 46.8085 7.40672 50.215L12.2925 88.4451C12.7279 91.8522 10.3192 94.6138 6.91262 94.6138Z" fill="#D6D899"/>
<path d="M8.39216 115.748C9.04016 115.748 9.54084 115.179 9.45883 114.537L4.34974 74.5591C3.19954 74.5591 2.31056 75.5686 2.45636 76.7096L7.32549 114.81C7.39434 115.346 7.85098 115.748 8.39216 115.748Z" fill="#242424"/>
<path d="M43.0395 82.3003H22.5384C20.3119 82.3003 18.5071 84.1051 18.5071 86.3316H47.0708C47.0708 84.1051 45.266 82.3003 43.0395 82.3003Z" fill="#D6D899"/>
<path d="M46.1408 88.0796H19.4371C18.9232 88.0796 18.5071 87.6635 18.5071 87.1496V86.3315H47.0708V87.1496C47.0708 87.6635 46.6541 88.0796 46.1408 88.0796Z" fill="#242424"/>
<path d="M24.496 88.0798L26.3879 91.4834L18.5071 115.748H22.4472L32.7889 91.4834L38.0853 88.0798H24.496Z" fill="#242424"/>
</svg>
