<svg width="168" height="186" viewBox="0 0 168 186" fill="none" xmlns="http://www.w3.org/2000/svg">
<path d="M141.207 17.0761C141.248 17.1254 135.76 21.6556 128.951 27.1939C122.141 32.734 116.59 37.1835 116.55 37.1346C116.509 37.0857 121.996 32.556 128.807 27.0159C135.615 21.4781 141.167 17.0272 141.207 17.0761Z" fill="#263238"/>
<path d="M150.246 91.0467C150.225 91.1061 143.123 88.5626 134.386 85.3665C125.646 82.1691 118.582 79.5295 118.604 79.47C118.625 79.4105 125.725 81.9537 134.465 85.1511C143.202 88.3471 150.268 90.9872 150.246 91.0467Z" fill="#263238"/>
<path d="M3.19784 30.0267C3.2278 29.9707 10.8787 34.0092 20.2846 39.0452C29.6939 44.083 37.2946 48.211 37.2647 48.2669C37.2347 48.3229 29.5855 44.2852 20.1762 39.2475C10.7704 34.2115 3.16788 30.0827 3.19784 30.0267Z" fill="#263238"/>
<path d="M5.95489 95.4341C5.93286 95.3746 12.2188 92.9606 19.994 90.0426C27.7719 87.1236 34.0926 84.8061 34.1151 84.8651C34.1371 84.9246 27.8525 87.3382 20.0747 90.2571C12.2995 93.1756 5.97692 95.4936 5.95489 95.4341Z" fill="#263238"/>
<path d="M80.5196 108.674C59.4283 108.674 42.2693 91.5146 42.2693 70.4229C42.2693 49.3316 59.4283 32.1726 80.5196 32.1726C101.611 32.1726 118.77 49.3316 118.77 70.4229C118.77 91.5142 101.611 108.674 80.5196 108.674ZM80.5196 32.6128C59.6715 32.6128 42.7099 49.5744 42.7099 70.4225C42.7099 91.271 59.6715 108.233 80.5196 108.233C101.368 108.233 118.33 91.271 118.33 70.4225C118.33 49.5744 101.368 32.6128 80.5196 32.6128Z" fill="black" fill-opacity="0.27"/>
<path d="M128.878 69.8759C128.878 69.8759 128.863 69.6102 128.846 69.0921C128.838 68.8321 128.828 68.5096 128.816 68.1267C128.806 67.743 128.796 67.2971 128.746 66.7935C128.706 66.289 128.662 65.7255 128.612 65.1034C128.549 64.4826 128.449 63.8071 128.358 63.0736C128.151 61.6099 127.832 59.9325 127.373 58.0679C126.881 56.2139 126.282 54.1594 125.391 51.9987C124.518 49.8345 123.442 47.5258 122.028 45.1937C119.232 40.5248 115.223 35.6386 109.758 31.4714C107.038 29.3825 103.945 27.5078 100.536 25.9591C97.1291 24.4122 93.4061 23.1697 89.4354 22.4546C85.4723 21.7228 81.2769 21.4346 76.9921 21.7686C74.8469 21.8955 72.6902 22.244 70.5251 22.6727C68.3644 23.1345 66.2099 23.7539 64.0739 24.5122C55.5607 27.5942 47.4714 33.3505 41.6432 41.335C40.1676 43.3124 38.8758 45.448 37.71 47.6668C37.4324 48.229 37.1191 48.7749 36.8697 49.3534C36.6102 49.9271 36.3507 50.502 36.0903 51.0779C35.6246 52.253 35.1435 53.4276 34.7597 54.6428C33.9689 57.0612 33.3141 59.5514 32.922 62.1056C32.5197 64.6566 32.3083 67.2535 32.2906 69.8689C32.3083 72.4855 32.518 75.0833 32.9198 77.6352C33.3124 80.1898 33.9653 82.6814 34.7562 85.1007C35.1404 86.3163 35.6215 87.4913 36.0868 88.6669C36.3472 89.2427 36.6071 89.8177 36.8662 90.3918C37.1147 90.9707 37.4293 91.5166 37.7064 92.0793C38.8722 94.2986 40.1641 96.4354 41.6401 98.4128C47.4687 106.4 55.5598 112.158 64.0743 115.24C66.2108 115.998 68.3657 116.618 70.5264 117.08C72.6919 117.508 74.8486 117.857 76.9943 117.984C81.2796 118.318 85.4754 118.029 89.439 117.297C93.41 116.582 97.1326 115.339 100.54 113.792C103.949 112.243 107.042 110.368 109.762 108.279C115.226 104.111 119.235 99.2249 122.03 94.5559C123.445 92.2238 124.52 89.9155 125.392 87.7513C126.283 85.5906 126.882 83.5361 127.374 81.6825C127.832 79.8179 128.152 78.141 128.358 76.6774C128.449 75.9442 128.549 75.2688 128.613 74.648C128.662 74.0263 128.707 73.4624 128.747 72.9583C128.796 72.4547 128.807 72.0093 128.816 71.6255C128.828 71.2426 128.838 70.9206 128.846 70.6602C128.863 70.1416 128.878 69.8759 128.878 69.8759C128.878 69.8759 128.879 70.1416 128.87 70.6602C128.865 70.9206 128.858 71.2431 128.851 71.6264C128.845 72.0106 128.838 72.4569 128.793 72.961C128.756 73.4659 128.715 74.0307 128.67 74.6533C128.61 75.275 128.513 75.9517 128.425 76.6866C128.226 78.1534 127.913 79.8342 127.461 81.7037C126.974 83.5626 126.38 85.6232 125.494 87.7914C124.625 89.9631 123.552 92.2797 122.14 94.6211C119.348 99.3086 115.336 104.218 109.86 108.407C107.133 110.508 104.032 112.394 100.612 113.953C97.1952 115.51 93.4589 116.762 89.4733 117.484C85.4947 118.223 81.2822 118.517 76.9794 118.185C74.8248 118.059 72.6584 117.711 70.4837 117.282C68.3133 116.82 66.1486 116.199 64.0021 115.439C55.4479 112.348 47.3171 106.568 41.459 98.5459C39.9755 96.5593 38.6771 94.4131 37.5055 92.1837C37.2266 91.6189 36.9112 91.0703 36.6609 90.4883C36.4001 89.912 36.1392 89.3344 35.8775 88.7554C35.4096 87.5746 34.9263 86.3938 34.5403 85.1725C33.745 82.7417 33.0886 80.2383 32.6942 77.6714C32.2902 75.1075 32.0791 72.4974 32.0615 69.8684C32.0791 67.2403 32.2915 64.6315 32.696 62.0681C33.0899 59.5021 33.7477 56.9999 34.543 54.5701C34.9289 53.3492 35.4127 52.1693 35.8806 50.9885C36.1423 50.41 36.4032 49.8323 36.664 49.256C36.9147 48.6749 37.2297 48.1264 37.5086 47.5615C38.6806 45.3325 39.979 43.1873 41.4621 41.2015C47.3198 33.1818 55.4492 27.4034 64.0021 24.313C66.1482 23.5526 68.3128 22.9322 70.4828 22.47C72.6576 22.0413 74.8235 21.6928 76.978 21.5673C81.2804 21.2355 85.4925 21.5289 89.4711 22.2674C93.4567 22.9895 97.1926 24.2412 100.61 25.7979C104.029 27.3567 107.131 29.242 109.857 31.3423C115.334 35.5315 119.346 40.4402 122.138 45.1281C123.552 47.4694 124.624 49.7865 125.493 51.9582C126.38 54.1264 126.973 56.187 127.46 58.0464C127.912 59.9162 128.225 61.5976 128.425 63.0643C128.513 63.7992 128.609 64.476 128.67 65.0981C128.715 65.7211 128.756 66.2855 128.793 66.7909C128.838 67.2953 128.845 67.7412 128.851 68.1259C128.859 68.5092 128.865 68.8317 128.87 69.0921C128.879 69.6107 128.878 69.8759 128.878 69.8759Z" fill="#263238"/>
<path d="M81.0975 124.865V124.425C111.789 124.425 136.759 99.4549 136.759 68.763C136.759 38.0711 111.789 13.1012 81.0975 13.1012C50.4056 13.1012 25.4357 38.0711 25.4357 68.763H24.9951C24.9951 37.8283 50.1624 12.6606 81.0975 12.6606C112.033 12.6606 137.2 37.8283 137.2 68.763C137.2 99.6976 112.033 124.865 81.0975 124.865Z" fill="black" fill-opacity="0.27"/>
<path d="M80.5264 119.328V117.125C106.58 117.125 127.776 95.9295 127.776 69.8758C127.776 43.8225 106.58 22.6263 80.5264 22.6263V20.4233C107.795 20.4233 129.979 42.6078 129.979 69.8758C129.979 97.1442 107.795 119.328 80.5264 119.328Z" fill="black" fill-opacity="0.27"/>
<path d="M138.081 68.7633H135.878C135.878 38.557 111.304 13.9828 81.0973 13.9828C50.8914 13.9828 26.3167 38.557 26.3167 68.7633H24.1138C24.1138 37.3427 49.6767 11.7798 81.0973 11.7798C112.518 11.7798 138.081 37.3427 138.081 68.7633Z" fill="black" fill-opacity="0.27"/>
<path d="M81.5231 133.329C46.5156 133.329 18.0347 104.848 18.0347 69.84C18.0347 34.8321 46.5156 6.35156 81.5231 6.35156V8.55454C47.7304 8.55454 20.2376 36.0473 20.2376 69.84C20.2376 103.633 47.7299 131.126 81.5231 131.126C115.316 131.126 142.809 103.633 142.809 69.84H145.012C145.012 104.848 116.531 133.329 81.5231 133.329Z" fill="black" fill-opacity="0.27"/>
<path d="M80.5203 140.781C80.1515 140.781 79.7827 140.778 79.4153 140.772L79.4223 140.332C79.788 140.338 80.1542 140.34 80.5203 140.34V140.781Z" fill="black" fill-opacity="0.27"/>
<path d="M74.9532 140.563C74.217 140.505 73.4693 140.435 72.7308 140.354L72.7789 139.916C73.5125 139.997 74.2557 140.067 74.9876 140.124L74.9532 140.563ZM68.3117 139.725C67.5754 139.596 66.8374 139.455 66.1193 139.305L66.2091 138.874C66.9229 139.023 67.6556 139.163 68.3879 139.292L68.3117 139.725ZM61.7798 138.258C61.067 138.061 60.3461 137.85 59.6372 137.63L59.7676 137.209C60.4726 137.427 61.1886 137.638 61.897 137.832L61.7798 138.258ZM55.4119 136.168C54.7171 135.903 54.0183 135.623 53.3345 135.335L53.505 134.929C54.1844 135.214 54.8792 135.493 55.5696 135.757L55.4119 136.168ZM49.2705 133.477C48.6052 133.147 47.9368 132.801 47.2834 132.45L47.4922 132.062C48.1412 132.411 48.8056 132.754 49.4665 133.082L49.2705 133.477ZM43.4158 130.213C42.7836 129.819 42.1513 129.412 41.5367 129.002L41.7816 128.635C42.3923 129.043 43.0206 129.448 43.6489 129.838L43.4158 130.213ZM37.9013 126.408C37.3123 125.959 36.7219 125.494 36.1464 125.026L36.4249 124.684C36.9963 125.15 37.5832 125.612 38.1688 126.058L37.9013 126.408ZM32.7737 122.101C32.2247 121.594 31.6814 121.075 31.158 120.559L31.4673 120.245C31.9872 120.757 32.5269 121.273 33.0724 121.777L32.7737 122.101ZM28.0778 117.328C27.5821 116.775 27.0904 116.207 26.6159 115.642L26.9534 115.359C27.4248 115.92 27.9139 116.485 28.4061 117.035L28.0778 117.328ZM23.8556 112.136C23.4128 111.535 22.977 110.924 22.5602 110.32L22.9228 110.07C23.337 110.671 23.7701 111.278 24.2098 111.875L23.8556 112.136ZM20.1449 106.569C19.766 105.937 19.3901 105.289 19.0289 104.64L19.4135 104.426C19.7726 105.07 20.1462 105.715 20.5229 106.343L20.1449 106.569ZM16.9814 100.678C16.6611 100.007 16.3496 99.3252 16.0548 98.6524L16.4584 98.4762C16.751 99.1445 17.0607 99.8213 17.3788 100.488L16.9814 100.678ZM14.3956 94.5156C14.1418 93.8199 13.8959 93.1101 13.6646 92.4061L14.0832 92.2682C14.3127 92.9678 14.5573 93.6728 14.8093 94.365L14.3956 94.5156ZM12.4072 88.1226C12.2208 87.404 12.0441 86.6744 11.882 85.9531L12.312 85.8562C12.4732 86.5726 12.649 87.2982 12.8341 88.0125L12.4072 88.1226ZM11.04 81.5692C10.9237 80.8404 10.8175 80.0972 10.7241 79.3596L11.1611 79.3041C11.2541 80.0372 11.3599 80.7757 11.4748 81.5L11.04 81.5692ZM10.3029 74.9158C10.2566 74.1795 10.2209 73.4292 10.1971 72.6859L10.6373 72.6718C10.6611 73.4102 10.6963 74.1562 10.7421 74.888L10.3029 74.9158ZM10.6364 68.235L10.1958 68.2218C10.2187 67.4789 10.2535 66.7286 10.2993 65.9919L10.7391 66.0197C10.6932 66.7515 10.6589 67.497 10.6364 68.235ZM11.1537 61.6027L10.7166 61.5476C10.8091 60.8123 10.9149 60.069 11.0303 59.3376L11.4652 59.4064C11.3506 60.1333 11.2457 60.8722 11.1537 61.6027ZM12.2979 55.0493L11.8683 54.9528C12.0304 54.2307 12.2062 53.5006 12.3917 52.7824L12.8187 52.8926C12.6345 53.6064 12.4591 54.332 12.2979 55.0493ZM14.0638 48.6356L13.6452 48.4981C13.8757 47.7949 14.1215 47.0829 14.3762 46.3815L14.7903 46.5322C14.5374 47.2292 14.2929 47.9368 14.0638 48.6356ZM16.4408 42.4086L16.0372 42.2319C16.3337 41.5548 16.6466 40.8701 16.9669 40.1973L17.3647 40.3867C17.0462 41.0551 16.7356 41.7354 16.4408 42.4086ZM19.4016 36.4403L19.0165 36.2262C19.3783 35.5772 19.7545 34.926 20.1361 34.2907L20.5137 34.5176C20.1352 35.1489 19.7607 35.7957 19.4016 36.4403ZM22.9162 30.784L22.5536 30.5341C22.9735 29.9248 23.4101 29.3128 23.8507 28.7149L24.2054 28.9766C23.7675 29.5706 23.3335 30.1786 22.9162 30.784ZM26.9503 25.4893L26.6128 25.206C27.0891 24.639 27.5813 24.071 28.0756 23.5185L28.4039 23.8124C27.913 24.3614 27.424 24.9254 26.9503 25.4893ZM31.466 20.6009L31.1567 20.2868C31.6819 19.7695 32.2256 19.2509 32.7715 18.746L33.0706 19.0694C32.5283 19.5717 31.9881 20.0867 31.466 20.6009ZM36.4214 16.1628L36.1433 15.8213C36.7179 15.3539 37.3074 14.8895 37.8956 14.4409L38.1626 14.7912C37.5784 15.2367 36.9924 15.6984 36.4214 16.1628ZM41.772 12.2151L41.5274 11.8485C42.139 11.4405 42.769 11.0343 43.4013 10.6408L43.6339 11.0149C43.0061 11.4061 42.3791 11.8097 41.772 12.2151ZM47.4697 8.79383L47.2609 8.40567C47.9147 8.05452 48.5805 7.70997 49.2396 7.38261L49.4357 7.77738C48.781 8.10254 48.1196 8.44488 47.4697 8.79383ZM53.464 5.93217L53.2935 5.52594C53.9773 5.23867 54.6722 4.95977 55.359 4.69718L55.5163 5.10869C54.8339 5.36997 54.1439 5.6471 53.464 5.93217ZM59.7073 3.65473L59.5764 3.23396C60.2849 3.01366 61.0057 2.80174 61.7182 2.60435L61.8358 3.02908C61.1278 3.22515 60.4118 3.43531 59.7073 3.65473ZM66.1466 1.98355L66.0563 1.55221C66.7837 1.4002 67.5212 1.25833 68.2487 1.13056L68.3249 1.56454C67.6019 1.69188 66.8692 1.83243 66.1466 1.98355ZM72.7154 0.935816L72.667 0.497864C73.4032 0.415913 74.1509 0.344976 74.8893 0.286377L74.9241 0.725651C74.1905 0.78381 73.4472 0.854306 72.7154 0.935816Z" fill="black" fill-opacity="0.27"/>
<path d="M79.4223 0.513909L79.4153 0.0733132C79.7832 0.0675854 80.1515 0.0649414 80.5203 0.0649414V0.505537C80.1542 0.505537 79.7876 0.508181 79.4223 0.513909Z" fill="black" fill-opacity="0.27"/>
<path d="M1.91333 157.761C1.91333 157.761 4.87193 159.674 6.23866 159.607C7.60582 159.539 12.974 152.862 12.974 152.862L10.1692 150.767L3.27697 151.912L1.91333 157.701" fill="#0F1C22"/>
<path d="M60.5293 60.123C61.74 64.5228 60.5196 69.5108 57.4147 72.8549C55.9995 74.3794 54.1961 75.6241 53.3022 77.5023C52.3117 79.5833 52.6316 82.0281 52.191 84.2901C51.7504 86.5522 49.8417 88.9627 47.6035 88.4146C49.6924 91.5119 52.8669 93.7519 56.2678 95.2989C59.6688 96.8458 63.3187 97.7539 66.9448 98.654C68.9618 99.1545 71.1388 99.6467 73.0682 98.8734C75.5659 97.8724 76.8062 95.1248 77.8068 92.6266C80.7125 85.3705 83.6187 78.1148 86.5244 70.8586" fill="#0F1C22"/>
<path d="M90.3622 51.4397C90.3595 49.7491 89.0633 48.3419 87.3789 48.1996L72.0136 41.1663C66.4683 40.6989 60.9304 50.6259 60.6987 56.1862C60.4418 62.3634 61.2437 69.7914 62.0729 74.3784C63.7401 83.6032 69.9644 83.7798 69.9644 83.7798L70.4927 98.6988L89.7762 98.6649L90.3622 51.4397Z" fill="#FAAC73"/>
<path d="M64.744 63.5474C64.7352 64.1749 65.2591 64.6996 65.9142 64.7208C66.5681 64.7419 67.106 64.252 67.1148 63.6241C67.1237 62.9967 66.5998 62.4715 65.9459 62.4504C65.2912 62.4292 64.7528 62.9205 64.744 63.5474Z" fill="#0F1C22"/>
<path d="M63.2226 60.3946C63.3539 60.5061 64.2848 60.3567 65.5313 60.633C66.7782 60.8996 67.6404 61.4397 67.7884 61.3886C67.8603 61.3675 67.7365 61.1912 67.3615 60.9507C66.9927 60.7119 66.3468 60.4162 65.5701 60.247C64.7933 60.0783 64.1165 60.0853 63.7169 60.1572C63.3094 60.2276 63.1574 60.3431 63.2226 60.3946Z" fill="#0F1C22"/>
<path d="M76.7901 62.9342C76.7813 63.5616 77.3052 64.0864 77.9604 64.1075C78.6142 64.1286 79.1522 63.6383 79.161 63.0109C79.1698 62.3835 78.6459 61.8583 77.9921 61.8371C77.3369 61.8155 76.799 62.3068 76.7901 62.9342Z" fill="#0F1C22"/>
<path d="M75.0398 61.0923C75.2249 61.1342 76.0307 60.4861 77.3631 60.0988C78.691 59.7014 79.8004 59.7842 79.9137 59.6542C79.9705 59.5948 79.7599 59.4829 79.273 59.4414C78.7946 59.3978 78.0226 59.4454 77.193 59.6899C76.3638 59.9353 75.7245 60.3037 75.3826 60.5892C75.0345 60.8773 74.9508 61.0756 75.0398 61.0923Z" fill="#0F1C22"/>
<path d="M70.5471 69.6197C70.5515 69.547 69.7549 69.4267 68.4644 69.2897C68.138 69.2628 67.8278 69.2051 67.7679 68.9835C67.6859 68.7495 67.815 68.3948 67.9648 68.0119C68.2547 67.2158 68.5583 66.3822 68.8764 65.5076C70.1405 61.9427 71.0481 59.0141 70.9045 58.9648C70.7604 58.915 69.6188 61.7643 68.3547 65.3292C68.0512 66.2081 67.7604 67.0457 67.4841 67.8476C67.3687 68.2208 67.1651 68.646 67.3422 69.1315C67.4352 69.3734 67.6784 69.5452 67.889 69.5972C68.0992 69.6567 68.2829 69.6558 68.4446 69.662C69.7404 69.7034 70.5441 69.6924 70.5471 69.6197Z" fill="#0F1C22"/>
<path d="M69.9661 83.8703C69.9661 83.8703 76.2014 84.1391 82.2913 80.2993C82.2913 80.2993 79.5759 87.1114 70.2939 86.443L69.9661 83.8703Z" fill="#884C3B"/>
<path d="M70.8251 72.7203C71.4362 71.7567 72.3786 71.1016 73.2413 71.0403C73.8401 70.9976 74.4084 71.2474 74.6992 71.8083C74.9905 72.3687 74.9556 73.2587 74.5437 73.9368C74.0802 74.7008 73.269 75.0237 72.6297 74.9184C71.9904 74.8127 71.4846 74.3655 71.007 73.9148C70.8753 73.7901 70.7405 73.6588 70.6726 73.4645C70.6043 73.2702 70.6193 72.9939 70.7581 72.7921" fill="#884C3B"/>
<path d="M74.3254 70.4228C74.1175 70.4153 74.1444 71.8019 72.9786 72.8113C71.8149 73.8238 70.3337 73.6995 70.327 73.8938C70.3094 73.9811 70.6619 74.156 71.2858 74.1595C71.8982 74.1674 72.7878 73.952 73.5011 73.3343C74.2122 72.7152 74.5061 71.9037 74.5413 71.334C74.5819 70.7528 74.4202 70.4127 74.3254 70.4228Z" fill="#0F1C22"/>
<path d="M74.0654 55.0241C74.2329 55.3536 75.4789 55.0351 76.9888 55.032C78.4987 54.9985 79.7517 55.2871 79.9112 54.9536C79.9813 54.7945 79.7324 54.4962 79.2063 54.2217C78.6846 53.9472 77.8783 53.7247 76.9729 53.7344C76.0679 53.7463 75.2674 53.9882 74.7523 54.275C74.2337 54.5623 73.9918 54.8672 74.0654 55.0241Z" fill="#0F1C22"/>
<path d="M62.0666 58.8503C62.353 59.1331 63.4387 58.8044 64.7529 58.7573C66.0655 58.6727 67.1855 58.8908 67.434 58.5811C67.5424 58.4308 67.3599 58.1449 66.8665 57.8823C66.3805 57.621 65.5729 57.4174 64.6701 57.4619C63.7678 57.5078 62.9914 57.7906 62.542 58.0995C62.0851 58.4092 61.9402 58.7119 62.0666 58.8503Z" fill="#0F1C22"/>
<path d="M99.8344 74.3031C99.0356 70.1986 96.5405 57.0428 92.8672 50.1836C89.194 43.3244 84.9938 40.6139 80.9121 39.6173C76.8304 38.6206 73.8234 40.1742 72.0297 41.8555C70.236 43.5368 69.7236 48.3199 69.7236 48.3199C69.7236 48.3199 79.5591 50.2651 82.9856 55.7668C86.9218 62.0867 87.9154 65.2886 87.9154 65.2886L89.2226 68.7653C89.2226 68.7653 90.2633 85.6908 89.921 89.0547L104.696 94.393C101.537 87.8448 100.634 78.4077 99.8344 74.3031Z" fill="#0F1C22"/>
<path d="M70.328 48.2476C70.328 48.2476 63.8398 47.9128 61.9218 54.2794C61.0539 57.1596 60.9499 65.5362 60.9499 65.5362C60.9499 65.5362 59.5625 58.8973 59.7757 55.1483C59.9894 51.3992 61.7447 46.6254 64.5504 43.9382C67.279 41.325 69.6023 40.075 74.5956 40.2592C74.5956 40.2592 73.8827 41.6797 72.6512 43.6003C72.0348 44.5621 71.0651 44.6718 70.328 48.2476Z" fill="#0F1C22"/>
<path d="M87.8588 65.7782C87.913 63.7273 90.1116 62.3077 91.9114 63.2924C92.8997 63.833 93.672 64.9482 93.6337 67.1251C93.5315 72.9304 87.7244 71.6298 87.7169 71.4633C87.713 71.3597 87.7958 68.1795 87.8588 65.7782Z" fill="#FAAC73"/>
<path d="M89.5301 69.2952C89.5561 69.2771 89.6301 69.3679 89.7997 69.4494C89.9649 69.5287 90.2504 69.5864 90.5553 69.4781C91.1726 69.2639 91.7062 68.299 91.7529 67.2535C91.7771 66.7257 91.6749 66.2203 91.4951 65.8004C91.3255 65.3726 91.0563 65.0712 90.7483 65.0109C90.4425 64.9346 90.2205 65.1153 90.1464 65.2774C90.0658 65.4382 90.1006 65.555 90.0698 65.5642C90.053 65.5788 89.9469 65.4647 89.998 65.2259C90.024 65.1113 90.0945 64.9752 90.2328 64.8659C90.3738 64.7553 90.58 64.7011 90.7946 64.728C91.2418 64.7668 91.6374 65.1858 91.8353 65.6466C92.0573 66.1101 92.1846 66.6776 92.1573 67.2707C92.0996 68.44 91.4814 69.5239 90.6377 69.7512C90.2275 69.8508 89.8891 69.7217 89.7155 69.5816C89.538 69.4358 89.5098 69.3058 89.5301 69.2952Z" fill="#884C3B"/>
<path d="M76.9013 39.4244C76.9141 39.4711 76.2369 39.6103 75.2341 40.0566C74.7283 40.2694 74.1675 40.61 73.5903 41.0409C73.0135 41.4758 72.4645 42.0596 71.9746 42.7332C70.9987 44.0925 70.455 45.5363 70.095 46.5735C69.7426 47.619 69.5672 48.2817 69.5284 48.2715C69.513 48.2676 69.5425 48.0988 69.6091 47.7957C69.6703 47.4912 69.7866 47.0577 69.9408 46.5237C70.2638 45.4671 70.789 43.9929 71.7891 42.5989C72.291 41.9085 72.862 41.3114 73.4621 40.8735C74.0621 40.4395 74.6464 40.106 75.1698 39.9086C75.4236 39.791 75.6681 39.7244 75.8778 39.6544C76.0871 39.5812 76.2726 39.5385 76.4251 39.5068C76.7291 39.4389 76.8978 39.409 76.9013 39.4244Z" fill="#414141"/>
<path d="M97.2585 84.3626C97.255 84.3639 97.2374 84.3225 97.207 84.2406C97.1735 84.1458 97.1303 84.0247 97.0766 83.8731C96.9488 83.5532 96.8294 83.0611 96.6972 82.4222C96.4597 81.1379 96.4223 79.2305 96.691 76.9196C96.81 75.7626 96.9792 74.5003 97.0894 73.142C97.1955 71.7858 97.2405 70.3226 97.0056 68.8153C96.7633 67.3124 96.2126 65.7836 95.3759 64.3508C94.5471 62.9118 93.4461 61.5684 92.1785 60.344C89.6279 57.8872 86.6503 56.2191 83.9631 54.7555C81.2565 53.3072 78.7927 52.0317 76.8277 50.7809C74.8565 49.5419 73.347 48.4113 72.3283 47.6037C71.8181 47.2006 71.4317 46.875 71.1713 46.6529C71.0506 46.5467 70.9546 46.4621 70.8788 46.3956C70.8136 46.3366 70.7818 46.3048 70.784 46.3018C70.7862 46.2987 70.8237 46.3242 70.8938 46.3776C70.9731 46.4392 71.074 46.5181 71.2004 46.6172C71.4833 46.8362 71.8794 47.1429 72.3825 47.5332C73.4166 48.3175 74.9371 49.4256 76.9132 50.643C78.8826 51.8722 81.3464 53.1288 84.0632 54.5691C86.7592 56.0248 89.7587 57.6951 92.3375 60.1783C93.6183 61.4155 94.7322 62.7761 95.5706 64.238C96.4174 65.6933 96.9739 67.2512 97.2149 68.7818C97.448 70.3164 97.3942 71.7946 97.2793 73.1574C97.1603 74.5223 96.9814 75.7833 96.8527 76.9368C96.5646 79.2402 96.5778 81.1278 96.7858 82.4072C96.9039 83.043 97.0083 83.5365 97.1211 83.859C97.166 84.0132 97.2017 84.1361 97.2295 84.2326C97.2519 84.3172 97.2621 84.3613 97.2585 84.3626Z" fill="#414141"/>
<path d="M4.05498 150.406C4.04793 150.393 4.16821 150.309 4.40085 150.183C4.63304 150.056 4.98375 149.897 5.4358 149.75C6.33242 149.453 7.67888 149.256 9.11345 149.552C10.5485 149.848 11.7068 150.562 12.4126 151.19C12.7695 151.504 13.0286 151.789 13.192 151.997C13.356 152.205 13.4326 152.33 13.4212 152.338C13.389 152.366 13.0348 151.898 12.3087 151.315C11.5909 150.732 10.456 150.063 9.06719 149.777C7.67888 149.49 6.37207 149.655 5.48207 149.906C4.58458 150.154 4.07393 150.443 4.05498 150.406Z" fill="#0F1C22"/>
<path d="M10.4225 147.123C10.4379 147.101 10.7666 147.301 11.227 147.715C11.687 148.128 12.2629 148.774 12.7475 149.59C13.23 150.406 13.5208 151.222 13.6618 151.824C13.8045 152.426 13.8213 152.81 13.7953 152.814C13.7212 152.833 13.5089 151.303 12.5497 149.707C11.6108 148.1 10.3701 147.178 10.4225 147.123Z" fill="#0F1C22"/>
<path d="M44.0662 184.918C44.0662 184.918 48.7466 162.119 58.6644 157.731L97.9871 156.576C97.9871 156.576 110.981 165.278 113.061 185.047L44.0662 184.918Z" fill="#0F1C22"/>
<path d="M70.1601 87.8738C70.1601 87.8738 71.3184 95.1427 79.0976 94.2972C86.8767 93.4517 89.9203 89.055 89.9203 89.055L100.734 92.5066L102.435 113.422C96.2799 125.375 92.7886 138.691 92.2877 152.126C92.2035 154.387 92.1224 156.866 90.6165 158.554C89.6881 159.593 88.35 160.162 87.0305 160.612C78.6508 163.468 69.0974 162.682 61.2988 158.491C61.2988 158.491 57.9943 122.707 58.3997 121.693C58.8046 120.678 64.2164 90.5768 64.2164 90.5768L70.1601 87.8738Z" fill="white"/>
<path d="M58.6649 89.5261C58.6649 89.5261 51.7908 90.0095 49.9495 90.9303C48.1078 91.8512 24.013 122.084 23.0926 122.545C22.3233 122.929 7.98323 136.258 2.06471 149.155C0.897131 151.699 -0.00388485 155.31 1.91359 157.732C1.91359 157.732 8.82521 149.054 12.9743 152.863L31.5335 134.055L50.921 122.746L58.6649 89.5261Z" fill="#414141"/>
<g opacity="0.3">
<path d="M65.6941 148.608C73.8548 132.849 73.8548 110.02 69.9661 89.0547L66.4744 118.845L65.6941 148.608Z" fill="black"/>
</g>
<path d="M48.0947 95.0501L48.7076 120.614C48.7076 120.614 51.1639 148.918 51.6243 148.918C52.0848 148.918 53.466 158.893 51.6243 163.344C49.7827 167.794 43.7976 173.78 43.7976 173.78L51.3177 181.914C51.3177 181.914 58.3773 170.711 60.5257 163.497C62.6745 156.284 68.6595 145.388 69.5804 125.13C70.5012 104.871 70.1214 85.0896 70.1214 85.0896L64.2091 89.3709L58.5272 89.4885L48.0947 95.0501Z" fill="#414141"/>
<path d="M61.7021 162.119C61.7021 162.119 61.7197 162.035 61.7642 161.876C61.8113 161.709 61.8774 161.475 61.9633 161.171C62.1365 160.541 62.3881 159.627 62.7106 158.454C63.3345 156.088 64.2183 152.656 65.0409 148.359C65.4506 146.211 65.8401 143.846 66.1085 141.29C66.2362 140.012 66.3349 138.687 66.364 137.32C66.3904 135.954 66.3525 134.543 66.1358 133.121C66.015 132.412 65.8749 131.7 65.6317 131.002C65.3951 130.303 65.1731 129.59 64.8752 128.895C64.7347 128.544 64.5932 128.192 64.4514 127.838C64.2941 127.49 64.1359 127.14 63.9768 126.789C63.6698 126.082 63.3155 125.388 62.967 124.684C61.5562 121.874 59.9093 119.059 58.1253 116.241C56.5819 113.802 55.0019 111.454 53.3995 109.235L53.3369 109.148L53.4189 109.08C57.5349 105.703 61.4099 102.523 64.9254 99.6383L65.0008 99.8159C61.2822 100.244 57.8856 100.635 54.8755 100.982L54.6732 101.005L54.8014 100.848C57.6962 97.3014 60.0401 94.4292 61.6668 92.4359C62.4771 91.4516 63.108 90.6846 63.5429 90.1563C63.7548 89.9025 63.9187 89.7064 64.0355 89.5672C64.1474 89.4355 64.2095 89.3716 64.2095 89.3716C64.2095 89.3716 64.1601 89.4456 64.054 89.5822C63.9416 89.7249 63.7839 89.9258 63.5794 90.1858C63.1525 90.7202 62.533 91.4966 61.7377 92.4928C60.1247 94.4966 57.8001 97.3847 54.9297 100.951L54.8561 100.817C57.8649 100.46 61.2601 100.056 64.9774 99.6154L65.3176 99.5749L65.0532 99.7926C61.5426 102.683 57.6728 105.87 53.5625 109.254L53.5819 109.1C55.1914 111.325 56.7731 113.674 58.3196 116.117C60.1067 118.94 61.7554 121.762 63.1684 124.581C63.5173 125.288 63.872 125.985 64.1795 126.696C64.3386 127.049 64.4968 127.4 64.6545 127.75C64.7968 128.107 64.9382 128.461 65.0792 128.814C65.3771 129.512 65.6004 130.232 65.8375 130.937C66.0811 131.64 66.2248 132.372 66.3446 133.088C66.5609 134.529 66.5953 135.95 66.5658 137.323C66.5332 138.698 66.4301 140.028 66.2979 141.31C66.0203 143.873 65.6207 146.241 65.2004 148.39C64.3562 152.689 63.4477 156.117 62.7969 158.477C62.4687 159.657 62.1977 160.568 62.0078 161.184C61.9127 161.486 61.8391 161.717 61.7867 161.883C61.7347 162.04 61.7021 162.119 61.7021 162.119Z" fill="#0F1C22"/>
<path d="M89.9072 82.7798C89.9072 82.7798 93.7126 88.6481 94.1104 89.0547C94.1104 89.0547 110.192 93.6087 111.141 95.5244C115.056 103.43 111.894 106.27 111.141 117.134C110.204 130.639 105.682 149.434 105.682 149.434C105.682 149.434 112.046 173.955 112.711 175.307C113.377 176.661 91.0545 184.878 88.6867 181.784C86.3194 178.689 84.4592 168.036 84.4592 168.036C84.4592 168.036 82.2606 146.39 83.1066 137.766C83.9521 129.141 87.9641 120.282 89.3635 109.863C90.8408 98.858 89.9072 82.7798 89.9072 82.7798Z" fill="#414141"/>
<path d="M83.9528 143.176C83.9449 143.175 83.9625 143.067 84.0026 142.862C84.0497 142.635 84.1118 142.338 84.1894 141.967C84.2771 141.57 84.3819 141.098 84.5022 140.553C84.6736 140.011 84.8675 139.399 85.0807 138.725C85.9817 136.031 87.6639 132.449 90.0709 128.839C92.5012 125.244 95.0756 122.262 97.0596 120.234C98.0505 119.217 98.8863 118.428 99.482 117.902C99.7763 117.636 100.02 117.446 100.18 117.312C100.351 117.187 100.442 117.127 100.446 117.134C100.446 117.134 99.1242 118.288 97.1764 120.346C95.2272 122.398 92.6814 125.386 90.2612 128.966C87.8644 132.561 86.1699 136.11 85.2336 138.778C85.0093 139.445 84.8058 140.051 84.6251 140.588C84.4908 141.127 84.3736 141.595 84.2757 141.987C84.181 142.353 84.1052 142.646 84.0475 142.871C83.9933 143.073 83.9607 143.178 83.9528 143.176Z" fill="#0F1C22"/>
<path d="M94.1114 89.3277C94.1184 89.3242 94.1744 89.4282 94.2735 89.6287C94.3801 89.8498 94.5211 90.1433 94.6978 90.5103C95.0675 91.3025 95.5852 92.411 96.2201 93.7716C96.5395 94.4637 96.888 95.2189 97.2612 96.0283C97.448 96.4345 97.641 96.8544 97.8392 97.2866C98.0349 97.7202 98.2547 98.159 98.4182 98.6349C99.1245 100.518 99.8995 102.584 100.713 104.754C101.35 106.466 101.964 108.114 102.538 109.655L102.582 109.773L102.459 109.8C100.91 110.134 99.465 110.446 98.1613 110.728L98.2265 110.597C99.1174 112.555 99.8559 114.18 100.382 115.338C100.628 115.893 100.823 116.335 100.967 116.66C101.027 116.801 101.075 116.916 101.115 117.01C101.146 117.09 101.16 117.132 101.156 117.134C101.152 117.136 101.129 117.098 101.088 117.022C101.042 116.931 100.985 116.819 100.916 116.683C100.76 116.364 100.549 115.928 100.284 115.383C99.7395 114.233 98.976 112.621 98.0551 110.675L98.0049 110.57L98.1199 110.544C99.4219 110.253 100.864 109.931 102.411 109.586L102.332 109.731C101.756 108.192 101.139 106.547 100.499 104.837C99.6915 102.666 98.9227 100.599 98.2221 98.7151C98.0618 98.2388 97.845 97.7991 97.6524 97.3642C97.4577 96.9306 97.2682 96.5099 97.0854 96.1023C96.7215 95.2894 96.3818 94.5307 96.0707 93.8359C95.4636 92.4639 94.9692 91.3457 94.6158 90.5469C94.4555 90.1723 94.3273 89.8732 94.2308 89.6476C94.1457 89.4414 94.1043 89.3312 94.1114 89.3277Z" fill="#0F1C22"/>
<path d="M104.696 146.69C104.696 146.69 112.923 154.916 117.153 154.446C121.384 153.976 126.908 144.809 126.908 141.636C126.908 138.463 122.961 118.012 122.961 118.012L124.605 110.312L109.169 110.02L106.077 133.726L104.696 146.69Z" fill="#414141"/>
<path d="M114.704 91.7398C114.707 91.7411 114.689 91.7984 114.648 91.909C114.603 92.0292 114.542 92.1914 114.465 92.398C114.38 92.6161 114.277 92.88 114.156 93.1902C114.022 93.5004 113.869 93.8564 113.696 94.2551C113.34 95.0522 112.871 96.0127 112.285 97.1067C111.677 98.1879 110.969 99.4123 110.08 100.698C108.314 103.271 105.92 106.162 102.781 108.859C101.211 110.201 99.4827 111.528 97.5374 112.666C95.5997 113.807 93.4346 114.766 91.0858 115.253C88.7414 115.749 86.3344 115.687 84.1526 115.086C83.063 114.78 82.0307 114.339 81.1001 113.771C80.1705 113.2 79.3545 112.493 78.6614 111.72C77.2687 110.169 76.3091 108.432 75.4262 106.828C74.5467 105.219 73.7431 103.709 73.0707 102.299C72.4019 100.887 71.8688 99.5753 71.4824 98.395C71.0938 97.2151 70.855 96.1695 70.7052 95.3086C70.4329 93.5788 70.4932 92.6073 70.4932 92.6073C70.4972 92.6073 70.5034 92.6677 70.5122 92.7849C70.5201 92.9131 70.5307 93.0858 70.5448 93.3057C70.5743 93.763 70.6461 94.4358 70.7937 95.2932C70.9568 96.1475 71.2066 97.1842 71.6049 98.3544C72.0005 99.5251 72.542 100.827 73.2174 102.229C73.8968 103.63 74.7075 105.132 75.5936 106.737C76.4818 108.334 77.4432 110.057 78.8187 111.578C79.5034 112.338 80.3035 113.027 81.2156 113.584C82.1285 114.14 83.1423 114.571 84.2134 114.87C86.3586 115.458 88.7291 115.518 91.04 115.03C93.3575 114.549 95.5006 113.602 97.4247 112.473C99.3562 111.347 101.079 110.03 102.644 108.7C105.775 106.026 108.171 103.158 109.948 100.607C110.842 99.3321 111.557 98.1178 112.174 97.0459C112.768 95.9611 113.248 95.009 113.616 94.2194C113.795 93.8242 113.955 93.4722 114.095 93.1651C114.223 92.8589 114.332 92.5976 114.423 92.3826C114.51 92.1795 114.577 92.0204 114.628 91.9023C114.674 91.7931 114.7 91.7384 114.704 91.7398Z" fill="#0F1C22"/>
<path d="M111.447 92.3031C111.452 92.3088 111.363 92.4066 111.188 92.5877C110.998 92.7815 110.741 93.0428 110.418 93.3715C109.727 94.0606 108.752 95.0308 107.556 96.223C106.34 97.4307 104.9 98.8609 103.302 100.448C102.482 101.225 101.575 102.009 100.52 102.661C99.4721 103.311 98.2494 103.828 96.9259 103.944C95.6142 104.07 94.2775 103.854 93.183 103.225C92.0789 102.611 91.3206 101.534 91.0395 100.425C90.7298 99.3178 90.6879 98.2282 90.6752 97.2245C90.6721 96.2177 90.7135 95.2841 90.7298 94.4324C90.7716 92.7309 90.6932 91.3487 90.4465 90.4296C90.3064 89.9776 90.198 89.6247 90.0729 89.4066C89.9662 89.1806 89.9134 89.0589 89.92 89.0545C89.9266 89.0506 89.9931 89.1638 90.1143 89.3854C90.254 89.5996 90.3773 89.9507 90.5328 90.4063C90.81 91.3311 90.914 92.7282 90.8924 94.4347C90.8862 95.2885 90.8545 96.223 90.8655 97.2227C90.8858 98.2189 90.9369 99.2957 91.2426 100.365C91.5224 101.438 92.2388 102.443 93.2949 103.031C94.3405 103.628 95.6319 103.838 96.9043 103.716C98.1864 103.603 99.3694 103.106 100.403 102.47C101.439 101.833 102.339 101.063 103.157 100.295C103.979 99.5266 104.708 98.741 105.437 98.0502C106.156 97.3532 106.828 96.7028 107.442 96.1076C108.661 94.9365 109.652 93.9835 110.357 93.3072C110.692 92.9913 110.959 92.7401 111.157 92.5542C111.341 92.3841 111.441 92.2973 111.447 92.3031Z" fill="#0F1C22"/>
<path d="M53.0943 152.194C53.0903 152.195 53.0819 152.154 53.0687 152.074C53.055 151.98 53.0383 151.863 53.0172 151.716C52.9749 151.385 52.9158 150.925 52.8409 150.341C52.692 149.128 52.4805 147.403 52.2201 145.279C51.7002 141.004 50.9675 135.1 50.2722 128.564C49.9286 125.295 49.6374 122.177 49.4034 119.339C49.1844 116.499 49.0042 113.94 48.9112 111.788C48.8522 110.712 48.8218 109.739 48.7949 108.884C48.7636 108.028 48.7465 107.292 48.7438 106.689C48.7399 106.1 48.7363 105.637 48.7341 105.302C48.7355 105.155 48.7363 105.036 48.7372 104.942C48.7394 104.86 48.7421 104.819 48.746 104.819C48.75 104.819 48.7548 104.86 48.7606 104.941C48.7659 105.035 48.772 105.154 48.7799 105.301C48.7927 105.635 48.8104 106.099 48.8328 106.687C48.8491 107.289 48.8795 108.024 48.9227 108.878C48.9615 109.733 49.0038 110.705 49.0729 111.779C49.1866 113.929 49.3836 116.485 49.614 119.321C49.8594 122.157 50.1564 125.273 50.5 128.54C51.1953 135.073 51.902 140.98 52.3809 145.26C52.6109 147.388 52.7982 149.116 52.9295 150.33C52.9859 150.916 53.0304 151.378 53.0625 151.711C53.0744 151.858 53.0837 151.976 53.0916 152.07C53.0973 152.152 53.0978 152.194 53.0943 152.194Z" fill="#0F1C22"/>
<path d="M124.605 110.312C124.605 110.315 124.58 110.317 124.532 110.319C124.473 110.32 124.403 110.322 124.316 110.324C124.111 110.324 123.832 110.324 123.477 110.324C122.727 110.317 121.657 110.306 120.31 110.293C117.577 110.252 113.723 110.193 109.167 110.124L109.271 110.039C108.644 113.35 108.138 117.12 107.747 121.109C107.05 128.426 106.761 135.081 106.4 139.887C106.232 142.291 106.067 144.234 105.94 145.576C105.871 146.234 105.818 146.751 105.78 147.119C105.76 147.286 105.744 147.417 105.732 147.52C105.72 147.611 105.712 147.657 105.708 147.656C105.704 147.656 105.705 147.609 105.709 147.518C105.715 147.415 105.723 147.282 105.733 147.116C105.761 146.746 105.8 146.228 105.851 145.569C105.951 144.225 106.09 142.281 106.238 139.877C106.557 135.07 106.82 128.414 107.519 121.087C107.91 117.092 108.425 113.316 109.067 110L109.083 109.914L109.171 109.916C113.726 110.02 117.58 110.107 120.313 110.169C121.659 110.207 122.729 110.237 123.478 110.258C123.833 110.272 124.112 110.283 124.317 110.291C124.404 110.295 124.474 110.3 124.532 110.303C124.581 110.306 124.605 110.309 124.605 110.312Z" fill="#0F1C22"/>
<path d="M120.836 115.901C121.503 115.901 122.044 115.36 122.044 114.693C122.044 114.025 121.503 113.484 120.836 113.484C120.168 113.484 119.627 114.025 119.627 114.693C119.627 115.36 120.168 115.901 120.836 115.901Z" fill="white"/>
<path d="M122.045 114.692C122.026 114.693 122.02 114.585 121.964 114.408C121.908 114.235 121.782 113.984 121.519 113.796C121.264 113.607 120.853 113.506 120.461 113.656C120.071 113.795 119.738 114.209 119.743 114.692C119.738 115.175 120.071 115.59 120.461 115.728C120.853 115.878 121.264 115.778 121.519 115.588C121.782 115.4 121.908 115.15 121.964 114.977C122.02 114.8 122.026 114.692 122.045 114.692C122.057 114.691 122.083 114.801 122.051 114.998C122.018 115.192 121.905 115.484 121.617 115.717C121.34 115.951 120.862 116.094 120.389 115.926C119.92 115.774 119.508 115.277 119.513 114.692C119.508 114.107 119.92 113.609 120.389 113.457C120.862 113.29 121.34 113.433 121.617 113.667C121.905 113.9 122.018 114.193 122.051 114.386C122.083 114.584 122.057 114.693 122.045 114.692Z" fill="#0F1C22"/>
<path d="M86.524 153.064C87.1915 153.064 87.7325 152.523 87.7325 151.856C87.7325 151.188 87.1915 150.647 86.524 150.647C85.8565 150.647 85.3154 151.188 85.3154 151.856C85.3154 152.523 85.8565 153.064 86.524 153.064Z" fill="white"/>
<path d="M87.7321 151.855C87.7127 151.856 87.7074 151.748 87.6511 151.571C87.5951 151.398 87.4691 151.147 87.2056 150.959C86.9509 150.77 86.5403 150.669 86.1477 150.82C85.7582 150.958 85.4252 151.373 85.4296 151.855C85.4252 152.338 85.7582 152.752 86.1477 152.891C86.5403 153.041 86.9509 152.94 87.2056 152.751C87.4691 152.563 87.5951 152.313 87.6511 152.139C87.7074 151.963 87.7123 151.855 87.7321 151.855C87.744 151.855 87.7704 151.964 87.7374 152.161C87.7048 152.355 87.5911 152.647 87.3039 152.88C87.0263 153.114 86.5487 153.257 86.0755 153.09C85.6067 152.938 85.1943 152.44 85.2 151.855C85.1943 151.27 85.6067 150.772 86.0755 150.62C86.5487 150.453 87.0263 150.596 87.3039 150.83C87.5911 151.063 87.7048 151.356 87.7374 151.549C87.7704 151.747 87.7436 151.856 87.7321 151.855Z" fill="#0F1C22"/>
<path d="M90.2269 170.246C90.2269 170.914 89.6859 171.455 89.0184 171.455C88.3509 171.455 87.8098 170.914 87.8098 170.246C87.8098 169.579 88.3509 169.038 89.0184 169.038C89.6859 169.038 90.2269 169.579 90.2269 170.246Z" fill="white"/>
<path d="M90.2265 170.246C90.2071 170.247 90.2018 170.139 90.1454 169.962C90.0895 169.788 89.9635 169.538 89.7 169.35C89.4453 169.161 89.0347 169.06 88.6421 169.21C88.2526 169.349 87.9195 169.763 87.9239 170.246C87.9195 170.729 88.2526 171.143 88.6421 171.282C89.0347 171.432 89.4453 171.331 89.7 171.142C89.9635 170.954 90.0895 170.704 90.1454 170.53C90.2018 170.354 90.2067 170.246 90.2265 170.246C90.2384 170.245 90.2648 170.355 90.2318 170.552C90.1992 170.745 90.0855 171.038 89.7982 171.271C89.5207 171.505 89.0431 171.647 88.5699 171.48C88.1011 171.329 87.6887 170.831 87.6944 170.246C87.6887 169.661 88.1011 169.163 88.5699 169.011C89.0431 168.844 89.5207 168.987 89.7982 169.221C90.0855 169.454 90.1992 169.747 90.2318 169.94C90.2648 170.138 90.2379 170.247 90.2265 170.246Z" fill="#0F1C22"/>
<path d="M122.961 118.012C122.958 118.076 119.798 117.982 115.905 117.803C112.01 117.625 108.855 117.428 108.858 117.365C108.861 117.302 112.02 117.395 115.915 117.574C119.809 117.753 122.964 117.949 122.961 118.012Z" fill="#0F1C22"/>
<path opacity="0.46" d="M53.2554 141.609L48.7076 143.427L38.814 118.674C36.4855 112.848 29.851 110.003 24.025 112.331C18.199 114.66 15.3536 121.294 17.6822 127.12L27.5757 151.873L23.0279 153.691L13.1343 128.938C9.80344 120.605 13.8737 111.114 22.2071 107.784C30.5405 104.453 40.0305 108.523 43.3614 116.856L53.2554 141.609Z" fill="white"/>
<path d="M53.2547 141.609C53.2547 141.609 53.1815 141.441 53.0489 141.117C52.9159 140.79 52.7211 140.311 52.4664 139.684C51.9571 138.422 51.209 136.569 50.2463 134.185C49.2858 131.8 48.1116 128.883 46.7488 125.499C46.069 123.807 45.342 121.998 44.5714 120.079C43.7664 118.18 43.1161 116.066 41.8644 114.142C40.6426 112.208 38.8996 110.476 36.7755 109.167C36.5081 109.007 36.2442 108.836 35.9697 108.682C35.6859 108.545 35.4013 108.406 35.1149 108.267C34.554 107.962 33.931 107.787 33.3292 107.547C33.026 107.432 32.704 107.37 32.3903 107.279C32.0722 107.204 31.7615 107.087 31.4329 107.046C30.7808 106.945 30.1278 106.799 29.4541 106.782C28.1143 106.64 26.7432 106.779 25.372 106.976C25.0341 107.055 24.6948 107.134 24.3538 107.213L23.8418 107.333C23.674 107.383 23.5087 107.445 23.3418 107.501C23.0082 107.615 22.6734 107.73 22.3376 107.845C22.0076 107.975 21.6891 108.137 21.3626 108.283C18.7552 109.467 16.4522 111.477 14.7739 113.982C13.9368 115.242 13.3037 116.645 12.8173 118.111C12.3612 119.591 12.1326 121.149 12.0881 122.728C12.0718 124.31 12.3163 125.9 12.7437 127.454C13.2292 128.988 13.8919 130.498 14.4933 132.036C16.9492 138.178 19.4918 144.538 22.0962 151.051C22.4438 151.921 22.7906 152.788 23.1338 153.647L22.9849 153.584C24.5318 152.965 26.0558 152.356 27.5327 151.766L27.4688 151.915C25.502 146.991 23.5775 142.174 21.7076 137.494C20.7731 135.153 19.8518 132.847 18.9459 130.578C18.493 129.444 18.044 128.319 17.5986 127.204C17.1646 126.072 16.8879 124.894 16.7936 123.706C16.6447 121.331 17.2201 118.961 18.4097 117.008C18.5653 116.769 18.6926 116.511 18.8706 116.289L19.3817 115.61C19.7606 115.192 20.1184 114.754 20.5497 114.397C20.9511 114.007 21.4106 113.692 21.8561 113.365C22.0843 113.21 22.3288 113.081 22.5632 112.939L22.9179 112.731L23.2902 112.559C24.2644 112.061 25.3191 111.785 26.3603 111.582C27.412 111.411 28.4694 111.397 29.5004 111.497C31.5536 111.753 33.4975 112.505 35.055 113.688C35.8595 114.247 36.5226 114.955 37.1447 115.665C37.7157 116.418 38.2418 117.193 38.6097 118.031C38.7049 118.239 38.7992 118.446 38.8935 118.651C38.9767 118.86 39.0596 119.068 39.1419 119.275C39.3067 119.689 39.4702 120.099 39.6323 120.505C39.9562 121.318 40.2734 122.115 40.5849 122.896C41.8291 126.022 42.9725 128.895 44.0039 131.486C46.0602 136.666 47.6684 140.718 48.7381 143.413L48.6945 143.395C50.2432 142.785 51.3782 142.339 52.1307 142.042C52.5048 141.896 52.7832 141.788 52.9727 141.714C53.1591 141.643 53.2547 141.609 53.2547 141.609C53.2547 141.609 53.1701 141.647 52.9885 141.722C52.8022 141.799 52.5281 141.911 52.1593 142.062C51.4059 142.368 50.2696 142.829 48.7196 143.458L48.6883 143.471L48.6756 143.439C47.593 140.749 45.965 136.705 43.8841 131.535C42.8452 128.947 41.6934 126.077 40.4404 122.955C40.1271 122.174 39.8077 121.378 39.4821 120.566C39.3195 120.16 39.1552 119.751 38.9891 119.337C38.9062 119.13 38.823 118.922 38.7392 118.714C38.6458 118.511 38.552 118.308 38.4581 118.103C38.0942 117.277 37.5739 116.515 37.0103 115.775C36.3957 115.078 35.7423 114.382 34.9492 113.833C33.4138 112.671 31.4989 111.935 29.4797 111.686C28.465 111.589 27.4261 111.604 26.392 111.774C25.3689 111.975 24.3322 112.247 23.3752 112.739L23.0095 112.907L22.6615 113.113C22.4315 113.253 22.1914 113.38 21.9671 113.532C21.53 113.854 21.0789 114.163 20.6854 114.548C20.2616 114.898 19.9113 115.33 19.5394 115.74L19.0385 116.408C18.864 116.626 18.7393 116.88 18.5868 117.115C17.4202 119.033 16.8584 121.362 17.006 123.692C17.0998 124.858 17.3717 126.012 17.7991 127.124C18.2449 128.239 18.6952 129.364 19.149 130.498C20.0562 132.766 20.9788 135.071 21.9151 137.411C23.7868 142.091 25.7126 146.907 27.6812 151.83L27.7235 151.937L27.6173 151.979C26.1404 152.569 24.6164 153.179 23.0699 153.797L22.9633 153.84L22.9205 153.733C22.5769 152.873 22.2301 152.006 21.8829 151.136C19.2799 144.622 16.739 138.262 14.2844 132.119C13.683 130.577 13.0252 129.082 12.5304 127.517C12.0978 125.942 11.851 124.33 11.8691 122.725C11.9149 121.125 12.148 119.546 12.6115 118.047C13.105 116.562 13.7482 115.141 14.5973 113.865C16.2993 111.329 18.6353 109.296 21.2767 108.1C21.6076 107.953 21.9301 107.789 22.2645 107.658C22.6046 107.542 22.9435 107.426 23.2814 107.311C23.4506 107.255 23.618 107.192 23.7881 107.142L24.3067 107.021C24.6516 106.942 24.9953 106.862 25.3377 106.783C26.726 106.584 28.1134 106.447 29.4691 106.592C30.1507 106.611 30.8107 106.758 31.4703 106.862C31.8025 106.905 32.1167 107.023 32.4383 107.099C32.7555 107.192 33.0811 107.255 33.3873 107.372C33.9958 107.616 34.625 107.795 35.1916 108.104C35.4806 108.245 35.7683 108.385 36.0547 108.525C36.3318 108.681 36.5984 108.853 36.8685 109.016C39.0133 110.343 40.7708 112.097 42.0005 114.054C43.262 116.004 43.9096 118.131 44.7111 120.038C45.4777 121.966 46.2003 123.784 46.8762 125.484C48.2239 128.881 49.3845 131.807 50.334 134.2C51.2777 136.585 52.0104 138.438 52.5096 139.699C52.755 140.324 52.9423 140.801 53.0705 141.126C53.1956 141.447 53.2547 141.609 53.2547 141.609Z" fill="#0F1C22"/>
<path d="M64.7173 159.48L30.1614 173.292C27.9003 174.196 25.3342 173.095 24.4301 170.834L13.7792 144.186C12.8755 141.925 13.9757 139.359 16.2373 138.455L50.7932 124.643C53.0548 123.74 55.6203 124.84 56.5244 127.101L67.1754 153.749C68.0791 156.01 66.9784 158.576 64.7173 159.48Z" fill="#F19100"/>
<g opacity="0.3">
<path d="M64.5627 159.543L30.3174 173.23C27.9704 174.168 25.307 173.026 24.369 170.679L13.8422 144.342C12.9042 141.995 14.0462 139.332 16.3933 138.394L50.6386 124.706C52.9856 123.768 55.649 124.91 56.5871 127.257L67.1138 153.594C68.0522 155.941 66.9102 158.604 64.5627 159.543Z" fill="black"/>
</g>
<path d="M59.6885 161.49L28.2023 174.075C25.9464 174.977 23.3861 173.879 22.4846 171.622L11.8262 144.955C10.9243 142.7 12.0223 140.139 14.2786 139.238L45.7648 126.653C48.0207 125.751 50.581 126.849 51.4824 129.105L62.1409 155.773C63.0423 158.028 61.9444 160.588 59.6885 161.49Z" fill="#F19100"/>
<g opacity="0.3">
<path d="M41.2676 145.092C40.1467 142.288 36.8744 140.986 34.1079 142.327C31.8226 143.435 30.6541 146.081 31.378 148.515C32.1244 151.026 34.5159 152.473 36.9383 152.224L39.3145 158.169C39.6075 158.902 40.4389 159.259 41.172 158.966C41.9047 158.673 42.2616 157.841 41.9686 157.109L39.592 151.163C41.3972 149.769 42.1563 147.315 41.2676 145.092Z" fill="black"/>
</g>
<path d="M62.4908 156.576C62.4318 156.6 59.9851 150.541 57.027 143.047C54.0675 135.55 51.7174 129.456 51.776 129.432C51.835 129.409 54.2808 135.466 57.2402 142.963C60.1988 150.457 62.5499 156.553 62.4908 156.576Z" fill="#0F1C22"/>
<path d="M40.8975 151.663C40.8565 151.626 41.5262 151.138 42.1417 150.012C42.4493 149.454 42.7198 148.735 42.8454 147.903C42.9727 147.074 42.9339 146.131 42.6453 145.208C42.3427 144.289 41.825 143.499 41.2385 142.9C40.6521 142.297 40.0128 141.869 39.4383 141.594C38.2821 141.037 37.4538 141.03 37.4657 140.976C37.4661 140.964 37.6679 140.961 38.0292 141.009C38.3901 141.056 38.9087 141.182 39.5074 141.447C40.1062 141.71 40.775 142.136 41.3896 142.751C42.0038 143.363 42.5484 144.18 42.8639 145.137C43.1648 146.1 43.1974 147.081 43.0542 147.935C42.9128 148.793 42.6167 149.529 42.2832 150.092C41.9505 150.656 41.6025 151.06 41.3363 151.308C41.0711 151.558 40.905 151.672 40.8975 151.663Z" fill="#0F1C22"/>
<path d="M41.105 129.739C41.1292 129.798 35.8399 132.05 29.2917 134.768C22.7414 137.488 17.4137 139.644 17.3895 139.586C17.3653 139.527 22.6537 137.276 29.2036 134.556C35.7517 131.838 41.0807 129.681 41.105 129.739Z" fill="white"/>
<path d="M32.4285 151.662C32.4197 151.673 32.3012 151.599 32.106 151.439C31.9104 151.279 31.646 151.024 31.364 150.669C30.7996 149.97 30.1973 148.801 30.1061 147.402C30.0171 146.002 30.4643 144.766 30.9344 144C31.1684 143.611 31.3979 143.324 31.5715 143.141C31.7447 142.957 31.8531 142.869 31.8628 142.879C31.8958 142.907 31.4971 143.302 31.0754 144.079C30.6533 144.846 30.2498 146.043 30.3352 147.387C30.4229 148.73 30.9767 149.865 31.494 150.571C32.0113 151.289 32.4576 151.63 32.4285 151.662Z" fill="white"/>
<path d="M35.2722 153.199C35.2616 153.261 34.9276 153.258 34.5258 153.191C34.124 153.124 33.8068 153.019 33.8169 152.957C33.8275 152.894 34.1614 152.898 34.5633 152.965C34.9655 153.031 35.2828 153.136 35.2722 153.199Z" fill="white"/>
<path d="M21.0591 109.249C21.0679 109.267 20.7837 109.409 20.2876 109.692C19.7906 109.973 19.0918 110.419 18.2992 111.059C16.7179 112.321 14.7969 114.525 13.7804 117.476C12.7675 120.429 12.9283 123.348 13.3998 125.315C13.6306 126.308 13.9078 127.089 14.1272 127.616C14.3448 128.144 14.4814 128.431 14.4633 128.439C14.4563 128.443 14.4149 128.375 14.3431 128.242C14.2748 128.108 14.1589 127.916 14.0452 127.652C13.7994 127.132 13.4958 126.352 13.242 125.353C12.7243 123.374 12.5327 120.406 13.5637 117.401C14.5977 114.398 16.5734 112.175 18.1978 110.933C19.0125 110.301 19.7311 109.872 20.2444 109.613C20.4964 109.475 20.7057 109.394 20.8427 109.33C20.9815 109.27 21.056 109.242 21.0591 109.249Z" fill="white"/>
<path d="M15.8203 132.85C15.7613 132.873 15.4925 132.323 15.2202 131.621C14.9479 130.92 14.7748 130.333 14.8338 130.31C14.8929 130.287 15.1616 130.837 15.4339 131.538C15.7062 132.24 15.8793 132.827 15.8203 132.85Z" fill="white"/>
<g opacity="0.3">
<path d="M48.7868 106.815C46.8085 112.479 47.7836 118.843 49.9888 124.422C49.9888 124.422 48.8375 112.741 48.7868 106.815Z" fill="black"/>
</g>
<g opacity="0.3">
<path d="M83.4238 148.146C85.6035 143.221 87.7919 138.28 90.5998 133.685C93.4082 129.089 96.7527 124.719 101.065 121.493C102.229 120.622 104.402 118.97 104.402 118.97C104.402 118.97 103.821 117.87 103.248 116.958C102.584 115.901 101.489 114.067 100.902 113.164L103.48 113.679C103.48 113.679 101.711 109.618 101.764 109.89C101.764 109.89 99.5113 110.471 98.2732 110.608C99.1751 112.77 100.136 114.719 101.038 116.881C96.1822 120.733 92.2186 125.583 88.907 130.712C85.5955 135.842 83.2824 141.795 83.4014 147.899" fill="black"/>
</g>
<path d="M92.636 70.8258C92.6968 70.7813 92.832 70.8222 92.9845 70.9998C93.1338 71.1743 93.2876 71.4968 93.2871 71.9325C93.2854 72.1489 93.2448 72.393 93.1347 72.6397C93.0241 72.8855 92.8395 73.1336 92.5954 73.3195C92.1152 73.6936 91.3943 73.8786 90.6832 73.6187C89.9778 73.3429 89.5602 72.7269 89.4474 72.1286C89.387 71.8277 89.4134 71.5197 89.4932 71.262C89.5743 71.0038 89.7051 70.794 89.847 70.6306C90.1351 70.3032 90.4638 70.164 90.6912 70.1318C90.9225 70.0997 91.0511 70.1583 91.0674 70.2323C91.1058 70.3909 90.7246 70.5962 90.5176 71.0875C90.4145 71.3316 90.3766 71.6105 90.4757 71.8841C90.5673 72.1617 90.807 72.441 91.089 72.5458C91.3697 72.6538 91.7345 72.6031 91.9865 72.456C92.2421 72.3163 92.398 72.0823 92.4826 71.8312C92.6523 71.3254 92.5024 70.9192 92.636 70.8258Z" fill="white"/>
<path d="M13.0713 164.993C13.0713 164.993 14.5737 169.832 15.3492 170.812C16.1246 171.791 21.3095 172.31 21.3095 172.31L13.0713 164.993Z" fill="#FAAC73"/>
<path d="M19.283 157.299L22.1597 159.608L30.6989 166.192C30.6989 166.192 30.6469 167.774 28.725 167.413C27.1675 167.119 23.7075 165.21 23.7075 165.21C23.7075 165.21 27.7707 169.027 27.9112 170.811V171.135C27.9112 171.529 27.7596 171.907 27.4874 172.192L22.7439 169.021C22.7439 169.021 23.7595 170.811 24.7596 172.666C25.0795 173.26 24.9235 174.468 24.434 174.932L13.8646 166.063L13.7954 159.457L19.283 157.299Z" fill="#FAAC73"/>
<path d="M18.1605 161.431C18.1645 161.416 18.3037 161.448 18.5561 161.52C18.6786 161.565 18.8236 161.632 18.9941 161.706C19.1589 161.789 19.3444 161.889 19.5462 162.005C20.3472 162.479 21.3685 163.253 22.4924 164.097C23.6146 164.945 24.6646 165.661 25.4704 166.098C26.2741 166.54 26.8213 166.705 26.8094 166.746C26.805 166.761 26.6657 166.729 26.4155 166.656C26.2886 166.624 26.1383 166.571 25.9692 166.498C25.7982 166.428 25.6008 166.352 25.3959 166.242C24.5584 165.836 23.4798 165.132 22.355 164.281C21.227 163.434 20.2282 162.645 19.4602 162.143C19.2725 162.028 19.0976 161.92 18.9342 161.82C18.7853 161.742 18.6491 161.67 18.5218 161.603C18.2874 161.508 18.1565 161.446 18.1605 161.431Z" fill="#884C3B"/>
<path d="M17.191 164.654C17.2091 164.629 17.5576 164.842 18.0982 165.22C18.6388 165.597 19.3693 166.142 20.15 166.777C20.9308 167.412 21.6128 168.016 22.0926 168.469C22.5724 168.921 22.8522 169.219 22.8311 169.242C22.809 169.266 22.4909 169.01 21.9851 168.59C21.4128 168.118 20.744 167.565 20.0051 166.955C19.2574 166.356 18.5806 165.814 18.0008 165.35C17.4866 164.94 17.1721 164.681 17.191 164.654Z" fill="#884C3B"/>
<path d="M2.92618 156.576C2.85216 156.66 2.96408 156.82 3.03501 156.968C4.18497 159.371 14.0481 166.192 14.0481 166.192L19.4476 157.02C19.4476 157.02 23.3557 158.91 24.9586 158.474C26.2729 158.116 28.7645 157.845 27.6172 155.53C27.6172 155.53 22.1075 154.514 20.2328 153.71C18.358 152.906 17.1913 152.485 17.1913 152.485C17.1913 152.485 13.6485 152.596 10.8265 151.855C10.8265 151.855 7.49912 151.389 2.92618 156.576Z" fill="#FAAC73"/>
<path d="M24.1669 174.709C24.1449 174.734 23.6739 174.354 22.9161 173.737C22.1089 173.082 21.0841 172.251 19.9504 171.331C18.7921 170.391 17.7558 169.521 17.024 168.871C16.6578 168.546 16.3657 168.279 16.1692 168.088C15.9718 167.898 15.8678 167.787 15.8784 167.775C15.9004 167.751 16.371 168.13 17.1293 168.747C17.9364 169.402 18.9617 170.233 20.0954 171.153C21.2537 172.094 22.2895 172.963 23.0214 173.613C23.3875 173.938 23.6796 174.205 23.8765 174.396C24.0731 174.586 24.177 174.697 24.1669 174.709Z" fill="#884C3B"/>
<path d="M116.631 76.9601L120.029 77.4945L120.437 74.8999L119.116 74.6919L119.302 73.5124L118.075 73.3194L118.239 72.2814L119.654 72.5039L119.795 71.6073L117.53 71.2509C117.548 71.1345 117.566 71.0204 117.584 70.909L117.53 71.2509C117.548 71.1372 117.566 71.0231 117.584 70.909C117.649 70.4908 117.262 70.052 116.847 70.0353C116.384 70.0163 116.044 70.3238 115.973 70.7719C115.313 74.9677 114.653 79.1631 113.993 83.3589C113.817 84.478 113.641 85.5971 113.465 86.7162C111.385 86.7739 109.571 88.3067 109.237 90.4339C108.905 92.54 110.132 94.5381 112.059 95.2501C112.328 95.3492 112.61 95.4237 112.903 95.4695C114.065 95.6523 115.229 95.3717 116.18 94.6795C117.131 93.9869 117.756 92.9656 117.939 91.8033C118.274 89.6761 117.017 87.6604 115.057 86.9669C115.566 83.736 116.074 80.5051 116.583 77.2742L116.631 76.9601ZM116.821 91.6275C116.685 92.4911 116.221 93.2502 115.514 93.7653C114.807 94.2799 113.942 94.4883 113.079 94.3526C111.294 94.0715 110.073 92.3933 110.353 90.6102C110.634 88.8271 112.313 87.6049 114.096 87.8851C115.88 88.1658 117.102 89.8444 116.821 91.6275Z" fill="white"/>
<path d="M116.822 91.6273C116.779 91.6287 116.926 91.1004 116.679 90.2434C116.547 89.8253 116.31 89.3257 115.872 88.8952C115.451 88.4546 114.821 88.103 114.082 87.9823L114.137 87.7937L114.821 88.0925L114.081 87.9827C113.367 87.8766 112.54 88.0175 111.844 88.4859C111.149 88.9432 110.606 89.7257 110.468 90.6285C110.368 91.3066 110.481 91.9974 110.785 92.5693C111.076 93.1465 111.543 93.6047 112.062 93.8907C112.58 94.1854 113.156 94.3044 113.685 94.296C114.217 94.285 114.705 94.1414 115.104 93.9277C115.916 93.4986 116.352 92.8456 116.56 92.3852C116.768 91.9142 116.799 91.6221 116.822 91.6273C116.829 91.6282 116.827 91.7009 116.805 91.8375C116.784 91.9741 116.736 92.1737 116.642 92.42C116.454 92.9037 116.023 93.6008 115.182 94.0704C114.767 94.304 114.253 94.4657 113.69 94.4859C113.13 94.5035 112.516 94.3846 111.96 94.0757C111.403 93.7757 110.901 93.2893 110.585 92.6729C110.257 92.0622 110.133 91.3198 110.241 90.5933C110.389 89.6248 110.976 88.7855 111.722 88.3017C112.469 87.8052 113.355 87.6637 114.113 87.7871L114.057 87.9757L113.342 87.6519L114.113 87.7871C114.896 87.9246 115.557 88.3101 115.99 88.7824C116.439 89.245 116.671 89.7742 116.791 90.2122C116.908 90.6563 116.905 91.0198 116.888 91.2617C116.859 91.5031 116.831 91.6291 116.822 91.6273Z" fill="#0F1C22"/>
<path d="M116.632 76.96C116.632 76.96 116.625 77.0649 116.597 77.2768L116.568 77.2715L116.569 77.2702L116.597 77.2768C116.472 78.2342 115.94 81.7563 115.136 86.9796L115.084 86.8919C115.854 87.1708 116.603 87.6678 117.149 88.3913C117.699 89.1046 118.058 90.0241 118.085 91.0053C118.109 91.9821 117.814 93.0096 117.176 93.8454C116.543 94.6772 115.59 95.3148 114.5 95.5368C113.415 95.7638 112.211 95.5791 111.222 94.9592C110.229 94.3521 109.463 93.3273 109.192 92.1421C108.901 90.9626 109.139 89.647 109.835 88.6036C110.533 87.5621 111.694 86.8148 112.976 86.6447C113.138 86.6174 113.302 86.6165 113.461 86.602L113.351 86.6989C113.913 83.1385 114.455 79.7067 114.963 76.4895C115.218 74.8817 115.465 73.3273 115.701 71.8377C115.76 71.4645 115.819 71.0957 115.878 70.7309C115.935 70.3295 116.285 69.9695 116.695 69.9427C117.11 69.8841 117.498 70.1722 117.634 70.5348C117.716 70.7177 117.682 70.9432 117.651 71.0988L117.631 71.2265L117.626 71.2587L117.625 71.2627C117.541 71.2508 117.814 71.2953 117.435 71.2367L117.437 71.2288L117.439 71.2129L117.449 71.149L117.49 70.8952L117.678 70.9247C117.659 71.0446 117.642 71.1556 117.624 71.2662L117.545 71.1583C118.328 71.2834 119.082 71.4041 119.809 71.5204L119.897 71.5345L119.883 71.6218C119.832 71.9399 119.785 72.2311 119.739 72.5175L119.726 72.603L119.641 72.5893C119.138 72.5087 118.676 72.4347 118.226 72.3624L118.32 72.2941C118.26 72.6682 118.205 73.0035 118.153 73.3313L118.088 73.2414C118.533 73.3132 118.929 73.3767 119.314 73.4388L119.387 73.4507L119.375 73.5238C119.305 73.9574 119.244 74.3363 119.185 74.7024L119.127 74.6231C119.619 74.7028 120.042 74.7711 120.447 74.8368L120.51 74.8469L120.5 74.9095C120.339 75.8964 120.198 76.7578 120.077 77.502L120.069 77.5504L120.022 77.5425C118.933 77.3592 118.093 77.2173 117.512 77.1195C117.233 77.0706 117.017 77.0327 116.859 77.005C116.711 76.9785 116.632 76.96 116.632 76.96C116.629 76.9565 116.701 76.9649 116.845 76.9838C117.001 77.0054 117.215 77.0354 117.491 77.0737C118.08 77.1601 118.932 77.2847 120.037 77.4464L119.982 77.487C120.094 76.7415 120.225 75.8788 120.375 74.8901L120.428 74.9628C120.022 74.9007 119.599 74.8359 119.106 74.7606L119.038 74.75L119.048 74.6808C119.105 74.3142 119.163 73.9349 119.229 73.5009L119.291 73.5855C118.906 73.5265 118.509 73.4652 118.064 73.3969L117.986 73.385L117.998 73.307C118.049 72.9788 118.101 72.6431 118.158 72.2686L118.171 72.1879L118.252 72.2003C118.702 72.2699 119.165 72.3413 119.668 72.4188L119.57 72.4906C119.614 72.2038 119.659 71.9121 119.708 71.594L119.782 71.6953C119.055 71.5826 118.299 71.4658 117.516 71.3446L117.423 71.3301L117.438 71.2367C117.455 71.1261 117.472 71.0146 117.491 70.8948L117.679 70.9243L117.64 71.1781L117.63 71.242L117.627 71.2578L117.626 71.2658C117.248 71.2054 117.522 71.2468 117.437 71.2323L117.438 71.2283L117.442 71.1966L117.462 71.0684C117.494 70.8873 117.516 70.7511 117.453 70.604C117.342 70.3167 117.034 70.0889 116.718 70.14C116.393 70.1656 116.129 70.4352 116.079 70.7666C116.022 71.1301 115.964 71.4975 115.906 71.8694C115.673 73.3599 115.431 74.9143 115.18 76.523C114.675 79.7406 114.137 83.1729 113.578 86.7342L113.565 86.8219L113.468 86.8311C113.318 86.8457 113.162 86.8457 113.008 86.8717C111.793 87.0329 110.689 87.7427 110.025 88.731C109.364 89.7206 109.136 90.9705 109.411 92.0905C109.667 93.2171 110.395 94.1935 111.337 94.7729C112.277 95.3646 113.425 95.5435 114.458 95.3302C115.497 95.1218 116.41 94.5155 117.017 93.7234C117.629 92.9281 117.916 91.9456 117.897 91.0097C117.875 90.0704 117.536 89.1861 117.011 88.4975C116.49 87.7987 115.771 87.3167 115.031 87.0422L114.968 87.0188L114.979 86.954C115.817 81.7365 116.394 78.221 116.569 77.2715L116.597 77.2781L116.597 77.2772L116.569 77.272C116.61 77.0464 116.632 76.96 116.632 76.96Z" fill="#0F1C22"/>
<path d="M109.149 89.7273L114.587 88.2954L117.419 88.6607C117.94 88.7281 118.39 89.059 118.61 89.537L120.443 93.5266C120.443 93.5266 123.098 95.7128 122.785 97.0399C122.473 98.367 120.023 110.22 120.023 110.22L112.727 110C112.727 110 110.684 107.658 110.528 104.457C110.447 102.793 111.08 101.774 110.925 100.893C110.818 100.29 111.192 99.2147 111.358 98.3877L111.579 97.5867L111.093 97.8171C110.199 98.241 109.112 97.6942 108.99 96.7125C108.985 96.6703 108.982 96.6275 108.979 96.5843C108.933 95.6353 109.294 94.7118 109.972 94.0461L112.727 91.3404C112.727 91.3404 109.696 93.0944 109.149 89.7273Z" fill="#FAAC73"/>
<path d="M118.415 96.3516C118.412 96.3671 118.233 96.3459 117.912 96.2935C117.543 96.2278 117.091 96.1468 116.557 96.0516C115.97 95.9379 115.295 95.8071 114.554 95.6639C114.177 95.5947 113.782 95.4929 113.382 95.459C112.985 95.4224 112.56 95.4969 112.292 95.8053C112.022 96.1102 111.917 96.5349 111.829 96.9341C111.742 97.3412 111.659 97.7347 111.578 98.1123C111.431 98.8644 111.224 99.5376 111.223 100.098C111.209 100.667 111.494 101.073 111.747 101.248C112.005 101.43 112.202 101.411 112.197 101.436C112.197 101.442 112.151 101.453 112.063 101.446C111.976 101.44 111.844 101.411 111.698 101.323C111.408 101.161 111.066 100.715 111.06 100.101C111.043 99.4927 111.237 98.8229 111.371 98.0691C111.447 97.6906 111.526 97.2958 111.608 96.8874C111.698 96.4807 111.797 96.0225 112.121 95.652C112.451 95.2704 112.98 95.1894 113.399 95.2352C113.833 95.2761 114.22 95.3828 114.596 95.4572C115.332 95.6185 116.004 95.7652 116.589 95.893C117.117 96.0163 117.565 96.1212 117.929 96.2062C118.245 96.2851 118.418 96.3362 118.415 96.3516Z" fill="#884C3B"/>
<path d="M115.578 102.377C115.588 102.367 115.595 102.604 115.303 102.816C115.162 102.918 114.947 102.991 114.7 102.986C114.453 102.984 114.185 102.919 113.899 102.832C113.339 102.653 112.621 102.353 112.16 101.65C111.701 100.94 111.753 99.9387 112.126 99.1011C112.314 98.6786 112.512 98.2825 112.802 97.9331C112.95 97.7634 113.136 97.6154 113.354 97.5414C113.571 97.4669 113.795 97.4674 113.997 97.4956C114.792 97.6484 115.446 97.9036 115.998 98.1331C116.546 98.368 116.97 98.5997 117.254 98.7707C117.539 98.9425 117.686 99.0526 117.679 99.065C117.659 99.0998 117.033 98.7125 115.937 98.2829C115.393 98.0767 114.715 97.8366 113.97 97.7048C113.786 97.6819 113.598 97.6868 113.426 97.7476C113.254 97.8075 113.102 97.9282 112.972 98.0798C112.717 98.3873 112.514 98.7892 112.337 99.1892C111.982 99.9889 111.94 100.9 112.34 101.537C112.74 102.175 113.411 102.486 113.949 102.677C114.225 102.771 114.48 102.844 114.704 102.856C114.929 102.872 115.119 102.821 115.254 102.74C115.531 102.576 115.558 102.365 115.578 102.377Z" fill="#884C3B"/>
<path d="M115.508 101.586C115.516 101.614 115.381 101.687 115.137 101.715C114.896 101.744 114.542 101.711 114.203 101.536C113.864 101.361 113.633 101.092 113.517 100.879C113.398 100.664 113.38 100.511 113.407 100.501C113.466 100.47 113.703 101.022 114.309 101.332C114.912 101.646 115.499 101.52 115.508 101.586Z" fill="#884C3B"/>
<path d="M116.039 103.062C116.004 103.111 115.66 102.907 115.411 102.497C115.16 102.087 115.136 101.689 115.196 101.68C115.261 101.667 115.379 102.008 115.607 102.377C115.831 102.749 116.081 103.01 116.039 103.062Z" fill="#884C3B"/>
<path d="M115.891 107.1C115.843 107.13 115.423 106.262 115.466 105.104C115.498 103.944 115.974 103.106 116.02 103.139C116.086 103.165 115.725 104.007 115.696 105.111C115.653 106.214 115.959 107.079 115.891 107.1Z" fill="#884C3B"/>
<path d="M115.755 103.492C115.78 103.559 114.848 103.798 114.04 104.602C113.217 105.392 112.958 106.319 112.891 106.292C112.865 106.286 112.89 106.046 113.034 105.685C113.175 105.326 113.455 104.855 113.88 104.439C114.306 104.023 114.783 103.755 115.146 103.621C115.509 103.486 115.749 103.466 115.755 103.492Z" fill="#884C3B"/>
<path d="M113.52 94.4212C113.582 94.4243 113.621 94.6455 113.546 94.9028C113.473 95.1605 113.323 95.3279 113.269 95.2975C113.212 95.2671 113.26 95.0702 113.325 94.8398C113.392 94.6093 113.456 94.4172 113.52 94.4212Z" fill="#884C3B"/>
<path d="M119.993 94.4997C119.976 94.5266 119.562 94.3037 118.905 93.9212C118.248 93.5392 117.348 92.9968 116.363 92.3871C115.872 92.0835 115.397 91.8121 114.936 91.6425C114.477 91.4671 114.036 91.4059 113.668 91.4208C112.92 91.4517 112.535 91.7777 112.516 91.7385C112.508 91.7288 112.59 91.638 112.778 91.527C112.964 91.4173 113.265 91.2948 113.657 91.2591C114.046 91.2217 114.523 91.2706 115.008 91.4437C115.496 91.6112 115.989 91.8865 116.483 92.1919C117.47 92.8021 118.355 93.3656 118.99 93.7833C119.625 94.201 120.01 94.4728 119.993 94.4997Z" fill="#884C3B"/>
<path d="M116.629 77.1115C116.566 77.1023 116.712 75.7681 116.955 74.1326C117.197 72.4963 117.445 71.1776 117.508 71.1868C117.57 71.1961 117.424 72.5298 117.181 74.1661C116.939 75.8021 116.692 77.1208 116.629 77.1115Z" fill="#0F1C22"/>
<g opacity="0.3">
<path d="M117.507 71.3296C118.042 73.1576 117.605 75.2161 116.66 76.8119C116.976 75.2051 117.295 73.0272 117.507 71.3296Z" fill="black"/>
</g>
<path d="M166.297 149.891C164.257 147.928 161.192 147.095 158.438 147.756C155.685 148.417 153.332 150.551 152.406 153.226L153.411 157.113C153.793 155.789 154.611 154.509 155.877 153.963C157.193 153.396 158.718 153.719 160.066 154.208C161.413 154.698 162.736 155.353 164.167 155.441C165.597 155.529 167.212 154.851 167.641 153.483C168.044 152.197 167.268 150.826 166.297 149.891Z" fill="#7B7B7B"/>
<g opacity="0.3">
<path d="M166.297 149.891C164.257 147.928 161.192 147.095 158.438 147.756C155.685 148.417 153.332 150.551 152.406 153.226L153.411 157.113C153.793 155.789 154.611 154.509 155.877 153.963C157.193 153.396 158.718 153.719 160.066 154.208C161.413 154.698 162.736 155.353 164.167 155.441C165.597 155.529 167.212 154.851 167.641 153.483C168.044 152.197 167.268 150.826 166.297 149.891Z" fill="black"/>
</g>
<path d="M142.075 162.861C139.975 160.866 140.08 157.395 141.127 154.695C142.175 151.996 144.46 149.923 147.013 148.557C151.962 145.909 158.148 145.709 163.257 148.031C160.747 148.114 158.319 149.539 157.023 151.691C155.873 153.601 155.617 155.92 154.667 157.938C153.608 160.185 151.665 162.002 149.351 162.906C147.037 163.811 144.377 163.794 142.075 162.861Z" fill="#7B7B7B"/>
<path d="M141.065 150.88C138.741 148.137 138.432 143.733 138.774 140.153C139.117 136.574 139.946 132.972 139.382 129.421C139.047 127.317 138.231 125.308 137.956 123.197C137.68 121.084 138.071 118.696 139.707 117.332C141.589 115.765 144.55 116.135 146.508 117.606C148.464 119.078 149.598 121.389 150.427 123.693C152.247 128.754 152.915 134.367 151.42 139.533C149.924 144.7 146.416 149.32 141.268 150.88" fill="#7B7B7B"/>
<path d="M139.95 173.389C139.943 173.389 139.941 173.28 139.941 173.073C139.944 172.866 139.941 172.559 139.958 172.166C139.988 171.38 140.063 170.241 140.24 168.843C140.417 167.446 140.693 165.789 141.133 163.978C141.566 162.163 142.306 160.228 143.353 158.345C144.404 156.461 145.685 154.834 146.982 153.494C148.281 152.153 149.611 151.109 150.785 150.331C151.366 149.929 151.927 149.624 152.411 149.342C152.906 149.082 153.339 148.869 153.694 148.697C154.044 148.55 154.323 148.433 154.53 148.346C154.722 148.267 154.824 148.229 154.826 148.236C154.829 148.242 154.732 148.292 154.545 148.381C154.342 148.476 154.069 148.604 153.726 148.765C153.377 148.946 152.952 149.168 152.463 149.436C151.987 149.726 151.433 150.037 150.861 150.443C149.703 151.232 148.392 152.279 147.109 153.617C145.83 154.954 144.563 156.57 143.521 158.438C141.384 162.176 140.799 166.107 140.375 168.862C140.182 170.253 140.085 171.386 140.033 172.17C140.01 172.549 139.993 172.85 139.979 173.074C139.967 173.281 139.956 173.389 139.95 173.389Z" fill="#263238"/>
<path d="M119.904 140.057C115.604 142.651 115.617 145.013 116.335 147.242C117.054 149.471 119.693 151.019 121.881 150.185C123.117 149.713 124.014 148.638 124.779 147.557C125.544 146.477 126.263 145.321 127.336 144.545C128.068 144.015 129.025 143.71 129.901 143.813L119.904 140.057Z" fill="#7B7B7B"/>
<g opacity="0.3">
<path d="M119.904 140.057C115.604 142.651 115.617 145.013 116.335 147.242C117.054 149.471 119.693 151.019 121.881 150.185C123.117 149.713 124.014 148.638 124.779 147.557C125.544 146.477 126.263 145.321 127.336 144.545C128.068 144.015 129.025 143.71 129.901 143.813L119.904 140.057Z" fill="black"/>
</g>
<path d="M116.615 143.02C117.739 141.466 120.517 141.017 122.271 141.792C124.025 142.567 125.31 144.104 126.46 145.639C127.61 147.173 128.729 148.794 130.322 149.862C131.915 150.929 134.14 151.316 135.728 150.24C136.77 149.534 137.375 148.306 137.564 147.061C137.753 145.816 137.571 144.544 137.312 143.311C136.932 141.508 136.313 139.624 134.869 138.478C133.261 137.201 131.029 137.141 128.976 137.208C126.621 137.285 124.231 137.462 122.02 138.278C119.809 139.095 117.553 140.858 116.615 143.02Z" fill="#7B7B7B"/>
<path d="M136.376 169.946C136.373 169.946 136.369 169.914 136.365 169.851C136.361 169.777 136.356 169.687 136.35 169.574C136.341 169.314 136.329 168.958 136.313 168.507C136.286 167.564 136.247 166.227 136.2 164.581C136.148 162.925 136.08 160.952 135.961 158.764C135.839 156.577 135.676 154.172 135.344 151.669C135.175 150.419 134.978 149.197 134.632 148.065C134.283 146.933 133.819 145.878 133.314 144.912C132.804 143.948 132.245 143.071 131.652 142.303C131.055 141.537 130.44 140.872 129.836 140.31C128.616 139.195 127.449 138.514 126.618 138.116C126.408 138.02 126.225 137.925 126.06 137.858C125.898 137.795 125.758 137.741 125.64 137.695C125.536 137.653 125.451 137.619 125.383 137.591C125.325 137.567 125.296 137.553 125.297 137.549C125.298 137.546 125.329 137.554 125.389 137.572C125.459 137.595 125.546 137.623 125.653 137.659C125.774 137.7 125.916 137.749 126.082 137.805C126.249 137.867 126.436 137.956 126.65 138.048C127.495 138.427 128.685 139.096 129.928 140.209C130.543 140.771 131.17 141.436 131.778 142.205C132.383 142.976 132.952 143.859 133.471 144.829C133.985 145.803 134.456 146.863 134.812 148.009C135.167 149.16 135.366 150.388 135.535 151.643C135.869 154.156 136.025 156.565 136.139 158.754C136.248 160.945 136.302 162.919 136.337 164.577C136.371 166.235 136.384 167.577 136.388 168.504C136.389 168.956 136.389 169.313 136.389 169.572C136.388 169.685 136.386 169.776 136.385 169.85C136.382 169.913 136.38 169.946 136.376 169.946Z" fill="#263238"/>
<path d="M137.923 171.888C137.923 171.888 137.683 171.25 137.452 170.042C137.229 168.835 137.06 167.046 137.256 164.854C137.439 162.661 138 160.088 138.894 157.327C139.777 154.56 140.975 151.601 141.998 148.422C142.506 146.83 142.937 145.256 143.233 143.71C143.532 142.165 143.722 140.657 143.842 139.215C144.083 136.33 144.05 133.716 143.979 131.527C143.905 129.337 143.789 127.567 143.716 126.343C143.68 125.74 143.653 125.268 143.633 124.934C143.626 124.781 143.62 124.659 143.616 124.566C143.613 124.484 143.613 124.441 143.616 124.441C143.619 124.441 143.626 124.483 143.635 124.565C143.644 124.658 143.656 124.778 143.671 124.931C143.699 125.265 143.739 125.736 143.79 126.338C143.886 127.561 144.023 129.331 144.115 131.523C144.202 133.714 144.25 136.333 144.019 139.23C143.902 140.677 143.716 142.193 143.417 143.746C143.122 145.301 142.689 146.884 142.181 148.48C141.153 151.671 139.951 154.626 139.062 157.381C138.162 160.131 137.59 162.687 137.39 164.866C137.179 167.046 137.326 168.824 137.526 170.029C137.631 170.632 137.728 171.098 137.813 171.409C137.849 171.557 137.878 171.675 137.9 171.765C137.919 171.845 137.927 171.887 137.923 171.888Z" fill="#263238"/>
<path d="M151.349 170.802H125.704L125.119 165.866H151.349V170.802Z" fill="#455A64"/>
<path d="M128.456 170.24L131.662 185.047H145.597L148.597 170.24H128.456Z" fill="#455A64"/>
<path d="M151.35 170.801C151.349 170.869 145.711 170.908 138.757 170.888C131.801 170.869 126.165 170.798 126.165 170.731C126.165 170.664 131.802 170.625 138.758 170.644C145.712 170.664 151.35 170.734 151.35 170.801Z" fill="#455A64"/>
<path d="M147.202 177.128C147.17 177.175 146.418 176.419 144.882 175.762C144.12 175.438 143.159 175.15 142.067 175.085C140.975 175.008 139.785 175.287 138.583 175.699C137.375 176.105 136.253 176.596 135.142 176.823C134.031 177.024 133.01 176.963 132.176 176.828C131.341 176.683 130.69 176.445 130.27 176.225C130.063 176.109 129.904 176.017 129.807 175.938C129.707 175.863 129.658 175.821 129.663 175.814C129.677 175.794 129.888 175.946 130.311 176.139C130.735 176.328 131.38 176.536 132.202 176.657C133.022 176.768 134.026 176.809 135.099 176.602C136.163 176.373 137.289 175.876 138.505 175.468C139.716 175.052 140.949 174.769 142.081 174.86C143.206 174.94 144.184 175.253 144.952 175.604C145.726 175.95 146.291 176.346 146.663 176.634C146.849 176.78 146.986 176.9 147.073 176.988C147.163 177.074 147.207 177.122 147.202 177.128Z" fill="white"/>
<path d="M151.576 170.823C151.576 170.89 145.808 170.945 138.693 170.945C131.575 170.945 125.808 170.89 125.808 170.823C125.808 170.755 131.575 170.701 138.693 170.701C145.808 170.701 151.576 170.755 151.576 170.823Z" fill="#263238"/>
</svg>
