<svg width="779" height="754" viewBox="0 0 779 754" fill="none" xmlns="http://www.w3.org/2000/svg"
>
<g filter="url(#filter0_d_0_1)">
<rect x="60.6006" y="60" width="114.234" height="114.234" rx="10.5442" fill="white"/>
</g>
<g filter="url(#filter1_d_0_1)">
<rect x="338.57" y="60" width="120.044" height="114.141" rx="10.5442" fill="white"/>
</g>
<g filter="url(#filter2_d_0_1)">
<rect x="60.6006" y="233.255" width="114.234" height="114.234" rx="10.5442" fill="white"/>
</g>
<g filter="url(#filter3_d_0_1)">
<rect x="60.6006" y="406.511" width="114.234" height="114.234" rx="10.5442" fill="white"/>
</g>
<g filter="url(#filter4_d_0_1)">
<rect x="60.6006" y="579.766" width="114.234" height="114.234" rx="10.5442" fill="white"/>
</g>
<g filter="url(#filter5_d_0_1)">
<rect x="604.165" y="579.766" width="114.234" height="114.234" rx="10.5442" fill="white"/>
</g>
<g filter="url(#filter6_d_0_1)">
<rect x="604.165" y="323.69" width="114.234" height="114.234" rx="10.5442" fill="white"/>
</g>
<g filter="url(#filter7_d_0_1)">
<rect x="604.165" y="60" width="114.234" height="114.234" rx="10.5442" fill="white"/>
</g>
<g filter="url(#filter8_d_0_1)">
<rect x="322.387" y="579.766" width="151.36" height="114.234" rx="10.5442" fill="white"/>
</g>
<path d="M80.6583 149.562V139.886H84.1066C86.352 139.886 87.4614 141.142 87.4614 142.92C87.4614 144.223 86.8733 145.212 85.6971 145.646L87.8356 149.562H86.1649L84.2002 145.914H84.1066H82.1285V149.562H80.6583ZM82.1285 144.644H83.9596C85.3897 144.644 85.9778 144.016 85.9778 142.92C85.9778 141.824 85.3897 141.142 83.9596 141.142H82.1285V144.644ZM92.0057 149.71C89.8672 149.71 88.5574 148.239 88.5574 145.981C88.5574 143.748 89.8939 142.211 91.9121 142.211C93.5694 142.211 95.1332 143.241 95.1332 145.86V146.368H89.9741C90.0142 147.745 90.8228 148.533 92.019 148.533C92.8343 148.533 93.3556 148.186 93.5962 147.745H95.0397C94.7189 148.921 93.5962 149.71 92.0057 149.71ZM89.9875 145.299H93.7298C93.7298 144.19 93.0215 143.388 91.9255 143.388C90.7827 143.388 90.0409 144.27 89.9875 145.299ZM99.5973 152.436C97.7662 152.436 96.5633 151.621 96.4297 150.271H97.8865C98.0202 150.953 98.6617 151.287 99.6107 151.287C100.747 151.287 101.469 150.805 101.469 149.669V148.239H101.375C101.121 148.707 100.6 149.456 99.2632 149.456C97.5524 149.456 96.2292 148.172 96.2292 145.86C96.2292 143.548 97.5257 142.211 99.2765 142.211C100.626 142.211 101.121 143.027 101.388 143.481H101.482V142.305H102.872V149.723C102.872 151.581 101.469 152.436 99.5973 152.436ZM99.584 148.279C100.8 148.279 101.482 147.384 101.482 145.887C101.482 144.417 100.814 143.428 99.584 143.428C98.3142 143.428 97.686 144.497 97.686 145.887C97.686 147.304 98.341 148.279 99.584 148.279ZM104.609 149.562V142.305H106.04V149.562H104.609ZM105.331 141.182C104.837 141.182 104.422 140.808 104.422 140.34C104.422 139.872 104.837 139.498 105.331 139.498C105.812 139.498 106.227 139.872 106.227 140.34C106.227 140.808 105.812 141.182 105.331 141.182ZM111.854 144.283C111.72 143.708 111.265 143.334 110.477 143.334C109.662 143.334 109.074 143.762 109.087 144.31C109.074 144.738 109.421 145.045 110.223 145.232L111.372 145.499C112.709 145.793 113.351 146.435 113.364 147.464C113.351 148.774 112.255 149.71 110.397 149.71C108.659 149.71 107.617 148.934 107.443 147.584H108.9C109.02 148.239 109.528 148.56 110.383 148.56C111.306 148.56 111.894 148.186 111.907 147.571C111.894 147.103 111.546 146.796 110.784 146.622L109.648 146.381C108.338 146.087 107.657 145.392 107.657 144.39C107.657 143.094 108.779 142.211 110.464 142.211C112.081 142.211 113.083 143.04 113.23 144.283H111.854ZM118.149 142.305V143.441H116.665V147.424C116.665 148.239 117.08 148.386 117.534 148.4C117.734 148.4 118.055 148.373 118.256 148.36V149.603C118.055 149.629 117.748 149.656 117.36 149.656C116.237 149.656 115.235 149.041 115.248 147.718V143.441H114.179V142.305H115.248V140.567H116.665V142.305H118.149ZM119.539 149.562V142.305H120.915V143.454H120.996C121.263 142.679 121.985 142.198 122.84 142.198C123.014 142.198 123.295 142.211 123.442 142.225V143.588C123.321 143.561 122.987 143.508 122.693 143.508C121.704 143.508 120.969 144.19 120.969 145.138V149.562H119.539ZM124.096 147.518C124.096 145.86 125.5 145.433 126.81 145.339C127.291 145.306 128.38 145.245 128.721 145.232L128.708 144.657C128.708 143.842 128.213 143.361 127.237 143.361C126.395 143.361 125.887 143.748 125.74 144.283H124.324C124.457 143.08 125.58 142.211 127.291 142.211C128.44 142.211 130.138 142.639 130.138 144.738V149.562H128.748V148.573H128.694C128.414 149.121 127.745 149.723 126.542 149.723C125.166 149.723 124.096 148.934 124.096 147.518ZM125.486 147.531C125.486 148.226 126.061 148.587 126.863 148.587C128.026 148.587 128.721 147.812 128.721 146.943V146.275L127.01 146.395C126.075 146.462 125.486 146.809 125.486 147.531ZM135.257 142.305V143.441H133.773V147.424C133.773 148.239 134.187 148.386 134.642 148.4C134.842 148.4 135.163 148.373 135.364 148.36V149.603C135.163 149.629 134.856 149.656 134.468 149.656C133.345 149.656 132.343 149.041 132.356 147.718V143.441H131.287V142.305H132.356V140.567H133.773V142.305H135.257ZM136.647 149.562V142.305H138.077V149.562H136.647ZM137.368 141.182C136.874 141.182 136.46 140.808 136.46 140.34C136.46 139.872 136.874 139.498 137.368 139.498C137.85 139.498 138.264 139.872 138.264 140.34C138.264 140.808 137.85 141.182 137.368 141.182ZM142.888 149.71C140.83 149.71 139.494 148.213 139.494 145.967C139.494 143.708 140.83 142.211 142.888 142.211C144.933 142.211 146.27 143.708 146.27 145.967C146.27 148.213 144.933 149.71 142.888 149.71ZM142.888 148.52C144.198 148.52 144.826 147.357 144.826 145.967C144.826 144.577 144.198 143.388 142.888 143.388C141.552 143.388 140.924 144.577 140.924 145.967C140.924 147.357 141.552 148.52 142.888 148.52ZM149.103 145.259V149.562H147.673V142.305H149.05V143.495H149.13C149.478 142.719 150.186 142.211 151.269 142.211C152.766 142.211 153.741 143.147 153.741 144.951V149.562H152.325V145.125C152.325 144.069 151.75 143.441 150.788 143.441C149.812 143.441 149.103 144.096 149.103 145.259Z" fill="#2A384E"/>
<path d="M91.3114 313.039H92.7816V319.896C92.7816 321.767 91.6055 322.849 89.8278 322.849C88.1839 322.849 86.9542 321.927 86.9542 320.283H88.4111C88.4245 321.099 89.0259 321.593 89.8679 321.593C90.7902 321.593 91.3114 321.005 91.3114 319.896V313.039ZM97.7002 322.863C95.6419 322.863 94.3053 321.366 94.3053 319.12C94.3053 316.862 95.6419 315.365 97.7002 315.365C99.7451 315.365 101.082 316.862 101.082 319.12C101.082 321.366 99.7451 322.863 97.7002 322.863ZM97.7002 321.673C99.01 321.673 99.6382 320.51 99.6382 319.12C99.6382 317.73 99.01 316.541 97.7002 316.541C96.3636 316.541 95.7354 317.73 95.7354 319.12C95.7354 320.51 96.3636 321.673 97.7002 321.673ZM102.605 322.716V313.039H104.022V316.634H104.102C104.37 316.18 104.851 315.365 106.187 315.365C107.938 315.365 109.248 316.741 109.248 319.107C109.248 321.446 107.965 322.863 106.201 322.863C104.877 322.863 104.37 322.061 104.102 321.58H103.995V322.716H102.605ZM103.995 319.08C103.995 320.604 104.677 321.647 105.88 321.647C107.136 321.647 107.791 320.537 107.791 319.08C107.791 317.65 107.15 316.581 105.88 316.581C104.664 316.581 103.995 317.57 103.995 319.08ZM114.126 322.716V313.039H117.575C119.82 313.039 120.93 314.389 120.93 316.18C120.93 317.958 119.82 319.321 117.575 319.321H115.597V322.716H114.126ZM115.597 318.065H117.428C118.858 318.065 119.446 317.263 119.446 316.18C119.446 315.084 118.858 314.296 117.428 314.296H115.597V318.065ZM125.34 322.863C123.282 322.863 121.945 321.366 121.945 319.12C121.945 316.862 123.282 315.365 125.34 315.365C127.385 315.365 128.722 316.862 128.722 319.12C128.722 321.366 127.385 322.863 125.34 322.863ZM125.34 321.673C126.65 321.673 127.278 320.51 127.278 319.12C127.278 317.73 126.65 316.541 125.34 316.541C124.004 316.541 123.375 317.73 123.375 319.12C123.375 320.51 124.004 321.673 125.34 321.673ZM130.125 322.716V315.458H131.502V316.608H131.582C131.849 315.833 132.571 315.351 133.426 315.351C133.6 315.351 133.881 315.365 134.028 315.378V316.741C133.908 316.715 133.573 316.661 133.279 316.661C132.29 316.661 131.555 317.343 131.555 318.292V322.716H130.125ZM138.92 315.458V316.594H137.436V320.577C137.436 321.393 137.85 321.54 138.305 321.553C138.505 321.553 138.826 321.526 139.027 321.513V322.756C138.826 322.783 138.519 322.809 138.131 322.809C137.008 322.809 136.006 322.195 136.019 320.871V316.594H134.95V315.458H136.019V313.721H137.436V315.458H138.92ZM139.976 320.671C139.976 319.014 141.379 318.586 142.689 318.492C143.17 318.459 144.259 318.399 144.6 318.385L144.587 317.811C144.587 316.995 144.092 316.514 143.116 316.514C142.274 316.514 141.767 316.902 141.619 317.436H140.203C140.336 316.234 141.459 315.365 143.17 315.365C144.319 315.365 146.017 315.792 146.017 317.891V322.716H144.627V321.727H144.573C144.293 322.275 143.624 322.876 142.421 322.876C141.045 322.876 139.976 322.088 139.976 320.671ZM141.366 320.684C141.366 321.379 141.94 321.74 142.742 321.74C143.905 321.74 144.6 320.965 144.6 320.096V319.428L142.889 319.548C141.954 319.615 141.366 319.963 141.366 320.684ZM149.171 313.039V322.716H147.741V313.039H149.171Z" fill="#2A384E"/>
<path d="M370.987 139.575V149.252H369.516V139.575H370.987ZM375.544 149.399C373.793 149.399 372.51 147.982 372.51 145.643C372.51 143.278 373.807 141.901 375.558 141.901C376.908 141.901 377.402 142.716 377.656 143.171H377.723V139.575H379.153V149.252H377.763V148.116H377.656C377.389 148.597 376.867 149.399 375.544 149.399ZM375.865 148.183C377.081 148.183 377.763 147.14 377.763 145.617C377.763 144.106 377.095 143.117 375.865 143.117C374.595 143.117 373.967 144.186 373.967 145.617C373.967 147.073 374.622 148.183 375.865 148.183ZM384.138 149.399C382 149.399 380.69 147.929 380.69 145.67C380.69 143.438 382.027 141.901 384.045 141.901C385.702 141.901 387.266 142.93 387.266 145.55V146.058H382.107C382.147 147.434 382.955 148.223 384.152 148.223C384.967 148.223 385.488 147.875 385.729 147.434H387.172C386.852 148.61 385.729 149.399 384.138 149.399ZM382.12 144.988H385.862C385.862 143.879 385.154 143.077 384.058 143.077C382.915 143.077 382.174 143.959 382.12 144.988ZM388.348 147.207C388.348 145.55 389.752 145.122 391.062 145.028C391.543 144.995 392.632 144.935 392.973 144.922L392.96 144.347C392.96 143.531 392.465 143.05 391.489 143.05C390.647 143.05 390.139 143.438 389.992 143.973H388.576C388.709 142.77 389.832 141.901 391.543 141.901C392.692 141.901 394.39 142.329 394.39 144.427V149.252H393V148.263H392.946C392.666 148.811 391.997 149.412 390.794 149.412C389.418 149.412 388.348 148.624 388.348 147.207ZM389.739 147.22C389.739 147.915 390.313 148.276 391.115 148.276C392.278 148.276 392.973 147.501 392.973 146.632V145.964L391.262 146.084C390.327 146.151 389.739 146.499 389.739 147.22ZM399.576 149.252V139.575H403.117C405.176 139.575 406.178 140.685 406.178 142.115C406.178 143.318 405.443 143.932 404.548 144.16V144.253C405.51 144.307 406.552 145.149 406.552 146.646C406.552 148.129 405.537 149.252 403.278 149.252H399.576ZM403.144 147.996C404.534 147.996 405.096 147.381 405.096 146.579C405.096 145.657 404.36 144.908 403.198 144.908H401.046V147.996H403.144ZM402.997 143.759C403.973 143.759 404.735 143.157 404.735 142.235C404.735 141.433 404.187 140.832 403.024 140.832H401.046V143.759H402.997ZM407.675 147.207C407.675 145.55 409.079 145.122 410.388 145.028C410.869 144.995 411.959 144.935 412.3 144.922L412.286 144.347C412.286 143.531 411.792 143.05 410.816 143.05C409.974 143.05 409.466 143.438 409.319 143.973H407.902C408.036 142.77 409.159 141.901 410.869 141.901C412.019 141.901 413.716 142.329 413.716 144.427V149.252H412.326V148.263H412.273C411.992 148.811 411.324 149.412 410.121 149.412C408.744 149.412 407.675 148.624 407.675 147.207ZM409.065 147.22C409.065 147.915 409.64 148.276 410.442 148.276C411.605 148.276 412.3 147.501 412.3 146.632V145.964L410.589 146.084C409.653 146.151 409.065 146.499 409.065 147.22ZM416.871 144.948V149.252H415.441V141.994H416.817V143.184H416.897C417.245 142.409 417.953 141.901 419.036 141.901C420.533 141.901 421.509 142.836 421.509 144.641V149.252H420.092V144.815C420.092 143.759 419.517 143.131 418.555 143.131C417.579 143.131 416.871 143.785 416.871 144.948ZM423.246 149.252V139.575H424.676V145.055H424.796L427.67 141.994H429.381L426.454 145.109L429.581 149.252H427.83L425.371 145.991L424.676 146.672V149.252H423.246Z" fill="#2A384E"/>
<path d="M79.6849 502.427V492.75H83.1332C85.3786 492.75 86.488 494.006 86.488 495.784C86.488 497.087 85.8999 498.076 84.7237 498.511L86.8622 502.427H85.1915L83.2268 498.778H83.1332H81.1551V502.427H79.6849ZM81.1551 497.508H82.9862C84.4163 497.508 85.0044 496.88 85.0044 495.784C85.0044 494.688 84.4163 494.006 82.9862 494.006H81.1551V497.508ZM91.0323 502.574C88.8938 502.574 87.5839 501.104 87.5839 498.845C87.5839 496.613 88.9205 495.076 90.9387 495.076C92.596 495.076 94.1598 496.105 94.1598 498.724V499.232H89.0007C89.0408 500.609 89.8494 501.398 91.0456 501.398C91.8609 501.398 92.3822 501.05 92.6228 500.609H94.0663C93.7455 501.785 92.6228 502.574 91.0323 502.574ZM89.0141 498.163H92.7564C92.7564 497.054 92.048 496.252 90.9521 496.252C89.8093 496.252 89.0675 497.134 89.0141 498.163ZM98.6506 502.574C96.5389 502.574 95.2558 501.01 95.2558 498.831C95.2558 496.613 96.579 495.076 98.6239 495.076C100.281 495.076 101.484 496.051 101.631 497.522H100.241C100.094 496.84 99.5461 496.265 98.6506 496.265C97.4745 496.265 96.6859 497.241 96.6859 498.791C96.6859 500.382 97.4611 501.358 98.6506 501.358C99.4526 501.358 100.067 500.916 100.241 500.128H101.631C101.471 501.531 100.361 502.574 98.6506 502.574ZM102.981 502.427V495.169H104.358V496.319H104.438C104.705 495.543 105.427 495.062 106.282 495.062C106.456 495.062 106.737 495.076 106.884 495.089V496.452C106.764 496.426 106.429 496.372 106.135 496.372C105.146 496.372 104.411 497.054 104.411 498.003V502.427H102.981ZM112.564 499.406V495.169H113.981V502.427H112.591V501.17H112.511C112.177 501.946 111.428 502.52 110.346 502.52C108.942 502.52 107.953 501.585 107.953 499.78V495.169H109.383V499.607C109.383 500.596 109.985 501.224 110.853 501.224C111.642 501.224 112.564 500.649 112.564 499.406ZM115.718 502.427V495.169H117.149V502.427H115.718ZM116.44 494.047C115.946 494.047 115.531 493.672 115.531 493.205C115.531 492.737 115.946 492.362 116.44 492.362C116.921 492.362 117.336 492.737 117.336 493.205C117.336 493.672 116.921 494.047 116.44 494.047ZM122.281 495.169V496.305H120.797V500.288C120.797 501.104 121.212 501.251 121.666 501.264C121.867 501.264 122.187 501.237 122.388 501.224V502.467C122.187 502.494 121.88 502.52 121.492 502.52C120.37 502.52 119.367 501.906 119.381 500.582V496.305H118.311V495.169H119.381V493.432H120.797V495.169H122.281ZM123.671 502.427V495.169H125.048V496.359H125.128C125.435 495.543 126.144 495.076 127.106 495.076C128.068 495.076 128.75 495.557 129.057 496.359H129.138C129.485 495.57 130.26 495.076 131.316 495.076C132.626 495.076 133.562 495.904 133.562 497.562V502.427H132.131V497.695C132.131 496.72 131.517 496.305 130.768 496.305C129.846 496.305 129.325 496.934 129.325 497.802V502.427H127.908V497.615C127.908 496.827 127.36 496.305 126.585 496.305C125.783 496.305 125.101 496.974 125.101 497.949V502.427H123.671ZM138.413 502.574C136.275 502.574 134.965 501.104 134.965 498.845C134.965 496.613 136.301 495.076 138.32 495.076C139.977 495.076 141.541 496.105 141.541 498.724V499.232H136.382C136.422 500.609 137.23 501.398 138.427 501.398C139.242 501.398 139.763 501.05 140.004 500.609H141.447C141.126 501.785 140.004 502.574 138.413 502.574ZM136.395 498.163H140.137C140.137 497.054 139.429 496.252 138.333 496.252C137.19 496.252 136.449 497.134 136.395 498.163ZM144.388 498.123V502.427H142.958V495.169H144.334V496.359H144.414C144.762 495.584 145.47 495.076 146.553 495.076C148.05 495.076 149.026 496.011 149.026 497.816V502.427H147.609V497.989C147.609 496.934 147.034 496.305 146.072 496.305C145.096 496.305 144.388 496.96 144.388 498.123ZM154.158 495.169V496.305H152.674V500.288C152.674 501.104 153.089 501.251 153.543 501.264C153.744 501.264 154.064 501.237 154.265 501.224V502.467C154.064 502.494 153.757 502.52 153.369 502.52C152.247 502.52 151.244 501.906 151.258 500.582V496.305H150.188V495.169H151.258V493.432H152.674V495.169H154.158Z" fill="#2A384E"/>
<path d="M631.593 669.97H628.452V660.293H631.686C634.533 660.293 636.244 662.111 636.244 665.118C636.244 668.139 634.533 669.97 631.593 669.97ZM629.922 668.687H631.513C633.705 668.687 634.787 667.404 634.787 665.118C634.787 662.846 633.705 661.576 631.593 661.576H629.922V668.687ZM637.447 667.925C637.447 666.267 638.85 665.84 640.16 665.746C640.641 665.713 641.731 665.653 642.071 665.639L642.058 665.065C642.058 664.249 641.564 663.768 640.588 663.768C639.746 663.768 639.238 664.156 639.091 664.69H637.674C637.808 663.487 638.931 662.619 640.641 662.619C641.791 662.619 643.488 663.046 643.488 665.145V669.97H642.098V668.981H642.045C641.764 669.529 641.096 670.13 639.893 670.13C638.516 670.13 637.447 669.342 637.447 667.925ZM638.837 667.938C638.837 668.633 639.412 668.994 640.214 668.994C641.376 668.994 642.071 668.219 642.071 667.35V666.682L640.361 666.802C639.425 666.869 638.837 667.216 638.837 667.938ZM649.289 664.69C649.155 664.116 648.701 663.741 647.912 663.741C647.097 663.741 646.509 664.169 646.522 664.717C646.509 665.145 646.856 665.452 647.658 665.639L648.808 665.907C650.144 666.201 650.786 666.842 650.799 667.871C650.786 669.181 649.69 670.117 647.832 670.117C646.095 670.117 645.052 669.342 644.878 667.992H646.335C646.455 668.647 646.963 668.967 647.819 668.967C648.741 668.967 649.329 668.593 649.342 667.978C649.329 667.51 648.981 667.203 648.22 667.029L647.084 666.789C645.774 666.495 645.092 665.8 645.092 664.797C645.092 663.501 646.215 662.619 647.899 662.619C649.516 662.619 650.519 663.447 650.666 664.69H649.289ZM653.619 665.666V669.97H652.189V660.293H653.593V663.902H653.686C654.034 663.113 654.702 662.619 655.838 662.619C657.335 662.619 658.324 663.541 658.324 665.359V669.97H656.894V665.532C656.894 664.463 656.319 663.848 655.357 663.848C654.354 663.848 653.619 664.503 653.619 665.666ZM660.168 669.97V660.293H661.585V663.888H661.665C661.933 663.434 662.414 662.619 663.75 662.619C665.501 662.619 666.811 663.995 666.811 666.361C666.811 668.7 665.528 670.117 663.764 670.117C662.441 670.117 661.933 669.315 661.665 668.834H661.559V669.97H660.168ZM661.559 666.334C661.559 667.858 662.24 668.9 663.443 668.9C664.699 668.9 665.354 667.791 665.354 666.334C665.354 664.904 664.713 663.835 663.443 663.835C662.227 663.835 661.559 664.824 661.559 666.334ZM671.302 670.117C669.244 670.117 667.907 668.62 667.907 666.374C667.907 664.116 669.244 662.619 671.302 662.619C673.347 662.619 674.684 664.116 674.684 666.374C674.684 668.62 673.347 670.117 671.302 670.117ZM671.302 668.927C672.612 668.927 673.24 667.764 673.24 666.374C673.24 664.984 672.612 663.795 671.302 663.795C669.965 663.795 669.337 664.984 669.337 666.374C669.337 667.764 669.965 668.927 671.302 668.927ZM675.753 667.925C675.753 666.267 677.156 665.84 678.466 665.746C678.947 665.713 680.036 665.653 680.377 665.639L680.364 665.065C680.364 664.249 679.869 663.768 678.894 663.768C678.052 663.768 677.544 664.156 677.397 664.69H675.98C676.114 663.487 677.236 662.619 678.947 662.619C680.097 662.619 681.794 663.046 681.794 665.145V669.97H680.404V668.981H680.351C680.07 669.529 679.402 670.13 678.199 670.13C676.822 670.13 675.753 669.342 675.753 667.925ZM677.143 667.938C677.143 668.633 677.717 668.994 678.519 668.994C679.682 668.994 680.377 668.219 680.377 667.35V666.682L678.666 666.802C677.731 666.869 677.143 667.216 677.143 667.938ZM683.518 669.97V662.712H684.895V663.862H684.975C685.242 663.086 685.964 662.605 686.819 662.605C686.993 662.605 687.274 662.619 687.421 662.632V663.995C687.301 663.969 686.966 663.915 686.672 663.915C685.683 663.915 684.948 664.597 684.948 665.546V669.97H683.518ZM690.963 670.117C689.212 670.117 687.929 668.7 687.929 666.361C687.929 663.995 689.225 662.619 690.976 662.619C692.326 662.619 692.821 663.434 693.075 663.888H693.141V660.293H694.571V669.97H693.181V668.834H693.075C692.807 669.315 692.286 670.117 690.963 670.117ZM691.284 668.9C692.5 668.9 693.181 667.858 693.181 666.334C693.181 664.824 692.513 663.835 691.284 663.835C690.014 663.835 689.386 664.904 689.386 666.334C689.386 667.791 690.041 668.9 691.284 668.9Z" fill="#2A384E"/>
<path d="M622.366 415.591V405.914H628.434V407.184H623.837V410.111H628.114V411.367H623.837V414.321H628.488V415.591H622.366ZM634.395 410.886V412.116H630.105V410.886H634.395ZM639.194 415.738C637.082 415.738 635.799 414.174 635.799 411.995C635.799 409.777 637.122 408.24 639.167 408.24C640.824 408.24 642.027 409.215 642.174 410.686H640.784C640.637 410.004 640.089 409.429 639.194 409.429C638.017 409.429 637.229 410.405 637.229 411.955C637.229 413.546 638.004 414.522 639.194 414.522C639.996 414.522 640.61 414.081 640.784 413.292H642.174C642.014 414.695 640.904 415.738 639.194 415.738ZM646.598 415.738C644.54 415.738 643.203 414.241 643.203 411.995C643.203 409.737 644.54 408.24 646.598 408.24C648.643 408.24 649.98 409.737 649.98 411.995C649.98 414.241 648.643 415.738 646.598 415.738ZM646.598 414.548C647.908 414.548 648.536 413.385 648.536 411.995C648.536 410.605 647.908 409.416 646.598 409.416C645.262 409.416 644.633 410.605 644.633 411.995C644.633 413.385 645.262 414.548 646.598 414.548ZM651.383 415.591V408.333H652.76V409.523H652.84C653.147 408.708 653.856 408.24 654.818 408.24C655.78 408.24 656.462 408.721 656.769 409.523H656.85C657.197 408.734 657.972 408.24 659.028 408.24C660.338 408.24 661.274 409.068 661.274 410.726V415.591H659.843V410.859C659.843 409.884 659.229 409.469 658.48 409.469C657.558 409.469 657.037 410.098 657.037 410.966V415.591H655.62V410.779C655.62 409.991 655.072 409.469 654.297 409.469C653.495 409.469 652.813 410.138 652.813 411.113V415.591H651.383ZM662.998 415.591V408.333H664.374V409.523H664.455C664.762 408.708 665.47 408.24 666.433 408.24C667.395 408.24 668.077 408.721 668.384 409.523H668.464C668.812 408.734 669.587 408.24 670.643 408.24C671.953 408.24 672.888 409.068 672.888 410.726V415.591H671.458V410.859C671.458 409.884 670.843 409.469 670.095 409.469C669.173 409.469 668.651 410.098 668.651 410.966V415.591H667.235V410.779C667.235 409.991 666.687 409.469 665.911 409.469C665.109 409.469 664.428 410.138 664.428 411.113V415.591H662.998ZM677.74 415.738C675.601 415.738 674.292 414.268 674.292 412.009C674.292 409.777 675.628 408.24 677.646 408.24C679.304 408.24 680.868 409.269 680.868 411.889V412.396H675.708C675.748 413.773 676.557 414.562 677.753 414.562C678.569 414.562 679.09 414.214 679.33 413.773H680.774C680.453 414.949 679.33 415.738 677.74 415.738ZM675.722 411.327H679.464C679.464 410.218 678.756 409.416 677.66 409.416C676.517 409.416 675.775 410.298 675.722 411.327ZM682.284 415.591V408.333H683.661V409.483H683.741C684.008 408.708 684.73 408.226 685.586 408.226C685.759 408.226 686.04 408.24 686.187 408.253V409.616C686.067 409.59 685.733 409.536 685.439 409.536C684.449 409.536 683.714 410.218 683.714 411.167V415.591H682.284ZM690.09 415.738C687.978 415.738 686.695 414.174 686.695 411.995C686.695 409.777 688.018 408.24 690.063 408.24C691.72 408.24 692.923 409.215 693.07 410.686H691.68C691.533 410.004 690.985 409.429 690.09 409.429C688.914 409.429 688.125 410.405 688.125 411.955C688.125 413.546 688.9 414.522 690.09 414.522C690.892 414.522 691.507 414.081 691.68 413.292H693.07C692.91 414.695 691.801 415.738 690.09 415.738ZM697.548 415.738C695.409 415.738 694.099 414.268 694.099 412.009C694.099 409.777 695.436 408.24 697.454 408.24C699.112 408.24 700.675 409.269 700.675 411.889V412.396H695.516C695.556 413.773 696.365 414.562 697.561 414.562C698.376 414.562 698.898 414.214 699.138 413.773H700.582C700.261 414.949 699.138 415.738 697.548 415.738ZM695.53 411.327H699.272C699.272 410.218 698.564 409.416 697.468 409.416C696.325 409.416 695.583 410.298 695.53 411.327Z" fill="#2A384E"/>
<path d="M633.947 156.868H632.383L635.858 147.191H637.555L641.044 156.868H639.48L638.598 154.315H634.829L633.947 156.868ZM635.257 153.086H638.17L636.74 148.956H636.673L635.257 153.086ZM643.583 152.564V156.868H642.153V149.611H643.53V150.8H643.61C643.958 150.025 644.666 149.517 645.749 149.517C647.246 149.517 648.221 150.453 648.221 152.257V156.868H646.804V152.431C646.804 151.375 646.23 150.747 645.267 150.747C644.292 150.747 643.583 151.402 643.583 152.564ZM649.625 154.823C649.625 153.166 651.028 152.738 652.338 152.645C652.819 152.611 653.908 152.551 654.249 152.538L654.236 151.963C654.236 151.148 653.741 150.667 652.765 150.667C651.923 150.667 651.416 151.054 651.269 151.589H649.852C649.985 150.386 651.108 149.517 652.819 149.517C653.968 149.517 655.666 149.945 655.666 152.043V156.868H654.276V155.879H654.222C653.942 156.427 653.273 157.029 652.07 157.029C650.694 157.029 649.625 156.24 649.625 154.823ZM651.015 154.837C651.015 155.532 651.589 155.892 652.391 155.892C653.554 155.892 654.249 155.117 654.249 154.249V153.58L652.538 153.701C651.603 153.767 651.015 154.115 651.015 154.837ZM658.82 147.191V156.868H657.39V147.191H658.82ZM661.44 159.595C661.146 159.595 660.865 159.581 660.678 159.555V158.365C660.838 158.378 661.119 158.392 661.319 158.392C661.761 158.392 662.135 158.352 662.469 157.443L662.643 156.962L659.983 149.611H661.507L663.338 155.238H663.418L665.249 149.611H666.786L663.792 157.83C663.378 158.98 662.629 159.595 661.44 159.595ZM671.344 149.611V150.747H669.86V154.73C669.86 155.545 670.274 155.692 670.729 155.705C670.929 155.705 671.25 155.679 671.451 155.665V156.908C671.25 156.935 670.943 156.962 670.555 156.962C669.432 156.962 668.43 156.347 668.443 155.024V150.747H667.374V149.611H668.443V147.873H669.86V149.611H671.344ZM672.734 156.868V149.611H674.164V156.868H672.734ZM673.455 148.488C672.961 148.488 672.547 148.114 672.547 147.646C672.547 147.178 672.961 146.804 673.455 146.804C673.937 146.804 674.351 147.178 674.351 147.646C674.351 148.114 673.937 148.488 673.455 148.488ZM678.975 157.015C676.864 157.015 675.581 155.451 675.581 153.273C675.581 151.054 676.904 149.517 678.949 149.517C680.606 149.517 681.809 150.493 681.956 151.963H680.566C680.419 151.281 679.871 150.707 678.975 150.707C677.799 150.707 677.011 151.682 677.011 153.233C677.011 154.823 677.786 155.799 678.975 155.799C679.777 155.799 680.392 155.358 680.566 154.569H681.956C681.796 155.973 680.686 157.015 678.975 157.015ZM687.382 151.589C687.249 151.014 686.794 150.64 686.006 150.64C685.19 150.64 684.602 151.068 684.616 151.615C684.602 152.043 684.95 152.351 685.752 152.538L686.901 152.805C688.238 153.099 688.879 153.741 688.893 154.77C688.879 156.08 687.783 157.015 685.926 157.015C684.188 157.015 683.145 156.24 682.972 154.89H684.429C684.549 155.545 685.057 155.866 685.912 155.866C686.834 155.866 687.422 155.492 687.436 154.877C687.422 154.409 687.075 154.101 686.313 153.928L685.177 153.687C683.867 153.393 683.186 152.698 683.186 151.696C683.186 150.399 684.308 149.517 685.992 149.517C687.61 149.517 688.612 150.346 688.759 151.589H687.382Z" fill="#2A384E"/>
<path d="M350.479 668.066V658.39H351.949V666.797H356.32V668.066H350.479ZM357.375 666.021C357.375 664.364 358.779 663.936 360.089 663.843C360.57 663.809 361.659 663.749 362 663.736L361.987 663.161C361.987 662.346 361.492 661.865 360.516 661.865C359.674 661.865 359.166 662.252 359.019 662.787H357.603C357.736 661.584 358.859 660.715 360.57 660.715C361.719 660.715 363.417 661.143 363.417 663.241V668.066H362.027V667.077H361.973C361.693 667.625 361.024 668.227 359.821 668.227C358.445 668.227 357.375 667.438 357.375 666.021ZM358.765 666.035C358.765 666.73 359.34 667.091 360.142 667.091C361.305 667.091 362 666.316 362 665.447V664.778L360.289 664.899C359.354 664.966 358.765 665.313 358.765 666.035ZM365.261 668.066V658.39H366.678V661.985H366.758C367.025 661.531 367.507 660.715 368.843 660.715C370.594 660.715 371.904 662.092 371.904 664.458C371.904 666.797 370.621 668.213 368.856 668.213C367.533 668.213 367.025 667.411 366.758 666.93H366.651V668.066H365.261ZM366.651 664.431C366.651 665.955 367.333 666.997 368.536 666.997C369.792 666.997 370.447 665.888 370.447 664.431C370.447 663.001 369.805 661.932 368.536 661.932C367.319 661.932 366.651 662.921 366.651 664.431ZM376.395 668.213C374.336 668.213 373 666.716 373 664.471C373 662.212 374.336 660.715 376.395 660.715C378.44 660.715 379.776 662.212 379.776 664.471C379.776 666.716 378.44 668.213 376.395 668.213ZM376.395 667.024C377.704 667.024 378.333 665.861 378.333 664.471C378.333 663.081 377.704 661.892 376.395 661.892C375.058 661.892 374.43 663.081 374.43 664.471C374.43 665.861 375.058 667.024 376.395 667.024ZM381.18 668.066V660.809H382.556V661.958H382.636C382.904 661.183 383.625 660.702 384.481 660.702C384.655 660.702 384.935 660.715 385.082 660.729V662.092C384.962 662.065 384.628 662.012 384.334 662.012C383.345 662.012 382.61 662.693 382.61 663.642V668.066H381.18ZM391.083 658.39V668.066H389.613V658.39H391.083ZM394.358 663.763V668.066H392.928V660.809H394.305V661.998H394.385C394.732 661.223 395.441 660.715 396.523 660.715C398.02 660.715 398.996 661.651 398.996 663.455V668.066H397.579V663.629C397.579 662.573 397.004 661.945 396.042 661.945C395.066 661.945 394.358 662.6 394.358 663.763ZM404.81 662.787C404.676 662.212 404.222 661.838 403.433 661.838C402.618 661.838 402.03 662.266 402.043 662.814C402.03 663.241 402.377 663.549 403.179 663.736L404.329 664.003C405.665 664.297 406.307 664.939 406.32 665.968C406.307 667.278 405.211 668.213 403.353 668.213C401.616 668.213 400.573 667.438 400.399 666.088H401.856C401.976 666.743 402.484 667.064 403.34 667.064C404.262 667.064 404.85 666.69 404.863 666.075C404.85 665.607 404.502 665.3 403.741 665.126L402.605 664.885C401.295 664.591 400.613 663.896 400.613 662.894C400.613 661.597 401.736 660.715 403.42 660.715C405.037 660.715 406.04 661.544 406.187 662.787H404.81ZM407.71 670.793V660.809H409.1V661.985H409.221C409.474 661.531 409.969 660.715 411.306 660.715C413.056 660.715 414.353 662.092 414.353 664.458C414.353 666.797 413.083 668.213 411.319 668.213C409.996 668.213 409.474 667.411 409.221 666.93H409.14V670.793H407.71ZM409.114 664.431C409.114 665.955 409.782 666.997 410.998 666.997C412.255 666.997 412.909 665.888 412.909 664.431C412.909 663.001 412.268 661.932 410.998 661.932C409.769 661.932 409.114 662.921 409.114 664.431ZM418.897 668.213C416.759 668.213 415.449 666.743 415.449 664.484C415.449 662.252 416.785 660.715 418.804 660.715C420.461 660.715 422.025 661.744 422.025 664.364V664.872H416.866C416.906 666.249 417.714 667.037 418.911 667.037C419.726 667.037 420.247 666.69 420.488 666.249H421.931C421.61 667.425 420.488 668.213 418.897 668.213ZM416.879 663.803H420.621C420.621 662.693 419.913 661.892 418.817 661.892C417.674 661.892 416.932 662.774 416.879 663.803ZM426.516 668.213C424.404 668.213 423.121 666.65 423.121 664.471C423.121 662.252 424.444 660.715 426.489 660.715C428.146 660.715 429.349 661.691 429.496 663.161H428.106C427.959 662.48 427.411 661.905 426.516 661.905C425.339 661.905 424.551 662.881 424.551 664.431C424.551 666.021 425.326 666.997 426.516 666.997C427.318 666.997 427.932 666.556 428.106 665.768H429.496C429.336 667.171 428.226 668.213 426.516 668.213ZM434.241 660.809V661.945H432.757V665.928C432.757 666.743 433.172 666.89 433.626 666.904C433.827 666.904 434.147 666.877 434.348 666.864V668.107C434.147 668.133 433.84 668.16 433.452 668.16C432.33 668.16 431.327 667.545 431.341 666.222V661.945H430.271V660.809H431.341V659.071H432.757V660.809H434.241ZM435.631 668.066V660.809H437.061V668.066H435.631ZM436.353 659.686C435.858 659.686 435.444 659.312 435.444 658.844C435.444 658.376 435.858 658.002 436.353 658.002C436.834 658.002 437.248 658.376 437.248 658.844C437.248 659.312 436.834 659.686 436.353 659.686ZM441.873 668.213C439.814 668.213 438.478 666.716 438.478 664.471C438.478 662.212 439.814 660.715 441.873 660.715C443.918 660.715 445.254 662.212 445.254 664.471C445.254 666.716 443.918 668.213 441.873 668.213ZM441.873 667.024C443.182 667.024 443.811 665.861 443.811 664.471C443.811 663.081 443.182 661.892 441.873 661.892C440.536 661.892 439.908 663.081 439.908 664.471C439.908 665.861 440.536 667.024 441.873 667.024ZM448.088 663.763V668.066H446.658V660.809H448.034V661.998H448.114C448.462 661.223 449.17 660.715 450.253 660.715C451.75 660.715 452.725 661.651 452.725 663.455V668.066H451.309V663.629C451.309 662.573 450.734 661.945 449.772 661.945C448.796 661.945 448.088 662.6 448.088 663.763Z" fill="#2A384E"/>
<path d="M85.4113 665.21V655.533H91.4793V656.803H86.8815V659.73H91.1585V660.986H86.8815V663.94H91.5327V665.21H85.4113ZM97.4403 660.505V661.735H93.15V660.505H97.4403ZM100.595 655.533V665.21H99.1645V655.533H100.595ZM105.46 665.357C103.321 665.357 102.011 663.887 102.011 661.628C102.011 659.396 103.348 657.859 105.366 657.859C107.023 657.859 108.587 658.888 108.587 661.508V662.016H103.428C103.468 663.392 104.277 664.181 105.473 664.181C106.288 664.181 106.81 663.833 107.05 663.392H108.494C108.173 664.568 107.05 665.357 105.46 665.357ZM103.441 660.946H107.184C107.184 659.837 106.475 659.035 105.379 659.035C104.237 659.035 103.495 659.917 103.441 660.946ZM109.67 663.165C109.67 661.508 111.073 661.08 112.383 660.986C112.864 660.953 113.954 660.893 114.294 660.88L114.281 660.305C114.281 659.489 113.786 659.008 112.811 659.008C111.969 659.008 111.461 659.396 111.314 659.931H109.897C110.031 658.728 111.153 657.859 112.864 657.859C114.014 657.859 115.711 658.287 115.711 660.385V665.21H114.321V664.221H114.268C113.987 664.769 113.319 665.37 112.116 665.37C110.739 665.37 109.67 664.582 109.67 663.165ZM111.06 663.178C111.06 663.873 111.635 664.234 112.437 664.234C113.599 664.234 114.294 663.459 114.294 662.59V661.922L112.584 662.042C111.648 662.109 111.06 662.457 111.06 663.178ZM117.435 665.21V657.952H118.812V659.102H118.892C119.159 658.327 119.881 657.846 120.737 657.846C120.91 657.846 121.191 657.859 121.338 657.872V659.236C121.218 659.209 120.884 659.155 120.59 659.155C119.6 659.155 118.865 659.837 118.865 660.786V665.21H117.435ZM123.837 660.906V665.21H122.407V657.952H123.784V659.142H123.864C124.212 658.367 124.92 657.859 126.003 657.859C127.5 657.859 128.475 658.794 128.475 660.599V665.21H127.058V660.773C127.058 659.717 126.484 659.089 125.521 659.089C124.546 659.089 123.837 659.743 123.837 660.906ZM130.213 665.21V657.952H131.643V665.21H130.213ZM130.934 656.83C130.44 656.83 130.026 656.456 130.026 655.988C130.026 655.52 130.44 655.146 130.934 655.146C131.416 655.146 131.83 655.52 131.83 655.988C131.83 656.456 131.416 656.83 130.934 656.83ZM134.811 660.906V665.21H133.38V657.952H134.757V659.142H134.837C135.185 658.367 135.893 657.859 136.976 657.859C138.473 657.859 139.448 658.794 139.448 660.599V665.21H138.032V660.773C138.032 659.717 137.457 659.089 136.495 659.089C135.519 659.089 134.811 659.743 134.811 660.906ZM144.233 668.084C142.402 668.084 141.199 667.268 141.066 665.918H142.522C142.656 666.6 143.298 666.934 144.247 666.934C145.383 666.934 146.104 666.453 146.104 665.317V663.887H146.011C145.757 664.355 145.236 665.103 143.899 665.103C142.188 665.103 140.865 663.82 140.865 661.508C140.865 659.195 142.162 657.859 143.912 657.859C145.262 657.859 145.757 658.674 146.024 659.129H146.118V657.952H147.508V665.37C147.508 667.228 146.104 668.084 144.233 668.084ZM144.22 663.927C145.436 663.927 146.118 663.031 146.118 661.534C146.118 660.064 145.45 659.075 144.22 659.075C142.95 659.075 142.322 660.144 142.322 661.534C142.322 662.951 142.977 663.927 144.22 663.927Z" fill="#2A384E"/>
<path d="M174.835 126.161H242.9C253.94 126.161 262.891 135.111 262.891 146.152V340.35C262.891 351.391 271.841 360.341 282.882 360.341H322.388" stroke="url(#paint0_linear_0_1)" stroke-width="3"/>
<path d="M399.496 171.854V223.26C399.496 234.301 408.446 243.251 419.487 243.251H528.485C539.526 243.251 548.476 252.201 548.476 263.242V340.35C548.476 351.391 557.426 360.341 568.467 360.341H604.165" stroke="url(#paint1_linear_0_1)" stroke-width="3"/>
<path d="M174.835 476.003H242.9C253.94 476.003 262.891 467.053 262.891 456.012V422.694C262.891 411.653 271.841 402.703 282.882 402.703H322.388" stroke="url(#paint2_linear_0_1)" stroke-width="3"/>
<path d="M322.387 654.018H254.323C243.282 654.018 234.332 645.067 234.332 634.027V619.747C234.332 608.707 225.381 599.756 214.341 599.756H174.835" stroke="url(#paint3_linear_0_1)" stroke-width="3"/>
<path d="M605.593 139.964H533.721C526.623 139.964 520.87 134.21 520.87 127.113V127.113C520.87 120.015 515.116 114.261 508.018 114.261H461.373" stroke="url(#paint4_linear_0_1)" stroke-width="3"/>
<path d="M606.069 636.883H537.529C526.488 636.883 517.538 627.933 517.538 616.892V429.357C517.538 418.317 526.488 409.366 537.529 409.366H604.165" stroke="url(#paint5_linear_0_1)" stroke-width="3"/>
<path d="M401.399 579.766V530.152V494.841V455.06" stroke="url(#paint6_linear_0_1)" stroke-width="3"/>
<path d="M118.67 579.766V520.745" stroke="url(#paint7_linear_0_1)" stroke-width="3"/>
<path d="M118.67 406.511V347.49" stroke="url(#paint8_linear_0_1)" stroke-width="3"/>
<path d="M661.282 323.69L661.282 174.234" stroke="url(#paint9_linear_0_1)" stroke-width="3"/>
<path d="M117.718 233.255V174.234" stroke="url(#paint10_linear_0_1)" stroke-width="3"/>
<rect x="322.387" y="304.651" width="151.36" height="151.36" rx="10.5442" fill="url(#paint11_radial_0_1)"/>
<path d="M367.76 362.826V345.529H379.372V348.491H371.344V352.696H378.774V355.659H371.344V359.864H379.395V362.826H367.76ZM385.631 345.529V362.826H382.095V345.529H385.631ZM388.379 362.826V349.853H391.747V352.123H391.891C392.44 350.618 393.754 349.686 395.498 349.686C397.29 349.686 398.604 350.618 399.034 352.123H399.154C399.703 350.641 401.161 349.686 403.072 349.686C405.485 349.686 407.158 351.287 407.158 354.106V362.826H403.622V354.799C403.622 353.317 402.761 352.601 401.591 352.601C400.253 352.601 399.488 353.532 399.488 354.894V362.826H396.048V354.703C396.048 353.413 395.236 352.601 394.041 352.601C392.846 352.601 391.915 353.556 391.915 355.038V362.826H388.379ZM409.881 362.826V349.853H413.417V362.826H409.881ZM411.649 348.157C410.574 348.157 409.714 347.344 409.714 346.365C409.714 345.361 410.574 344.549 411.649 344.549C412.7 344.549 413.56 345.361 413.56 346.365C413.56 347.344 412.7 348.157 411.649 348.157ZM423.571 353.7C423.428 352.792 422.615 352.194 421.445 352.194C420.298 352.194 419.414 352.744 419.438 353.532C419.414 354.106 419.892 354.56 421.11 354.822L423.428 355.3C425.936 355.826 427.155 356.949 427.179 358.812C427.155 361.369 424.861 363.089 421.421 363.089C417.909 363.089 415.854 361.512 415.567 358.98H419.127C419.294 360.007 420.131 360.533 421.421 360.533C422.711 360.533 423.571 360.007 423.571 359.171C423.571 358.502 423.022 358.096 421.803 357.833L419.653 357.403C417.192 356.925 415.902 355.635 415.926 353.723C415.902 351.239 418.052 349.686 421.397 349.686C424.67 349.686 426.701 351.239 426.892 353.7H423.571ZM365.98 372.529H370.424L375.226 384.259H375.418L380.22 372.529H384.664V389.826H381.175V378.502H381.032L376.517 389.754H374.127L369.612 378.454H369.468V389.826H365.98V372.529ZM387.507 389.826V376.853H391.043V389.826H387.507ZM389.275 375.157C388.2 375.157 387.339 374.344 387.339 373.365C387.339 372.361 388.2 371.549 389.275 371.549C390.326 371.549 391.186 372.361 391.186 373.365C391.186 374.344 390.326 375.157 389.275 375.157ZM399.62 390.089C395.654 390.089 393.265 387.341 393.265 383.375C393.265 379.409 395.678 376.686 399.62 376.686C402.965 376.686 405.234 378.645 405.378 381.607H402.057C401.842 380.317 401.005 379.433 399.667 379.433C397.971 379.433 396.848 380.867 396.848 383.328C396.848 385.836 397.947 387.27 399.667 387.27C400.91 387.27 401.842 386.505 402.057 385.12H405.378C405.21 388.058 403.06 390.089 399.62 390.089ZM407.576 389.826V376.853H410.992V379.099H411.135C411.613 377.498 412.808 376.662 414.265 376.662C414.624 376.662 415.078 376.71 415.388 376.781V379.935C415.054 379.839 414.385 379.744 413.883 379.744C412.282 379.744 411.112 380.867 411.112 382.444V389.826H407.576ZM422.532 390.089C418.614 390.089 416.177 387.389 416.177 383.375C416.177 379.362 418.614 376.686 422.532 376.686C426.45 376.686 428.911 379.362 428.911 383.375C428.911 387.389 426.45 390.089 422.532 390.089ZM422.556 387.341C424.371 387.341 425.303 385.645 425.303 383.375C425.303 381.082 424.371 379.386 422.556 379.386C420.716 379.386 419.76 381.082 419.76 383.375C419.76 385.645 420.716 387.341 422.556 387.341ZM357.75 404.474C357.606 403.112 356.507 402.3 354.763 402.3C352.947 402.3 351.944 403.136 351.92 404.283C351.896 405.525 353.21 406.099 354.692 406.433L356.244 406.816C359.207 407.485 361.429 408.99 361.429 411.881C361.429 415.058 358.944 417.065 354.739 417.065C350.558 417.065 347.882 415.13 347.787 411.427H351.275C351.394 413.171 352.78 414.055 354.692 414.055C356.579 414.055 357.797 413.171 357.797 411.881C357.797 410.71 356.722 410.16 354.835 409.683L352.947 409.229C350.033 408.512 348.241 407.055 348.241 404.522C348.241 401.368 351.012 399.29 354.787 399.29C358.61 399.29 361.142 401.416 361.19 404.474H357.75ZM369.576 417.089C365.61 417.089 363.173 414.509 363.173 410.399C363.173 406.386 365.634 403.686 369.433 403.686C372.849 403.686 375.525 405.836 375.525 410.256V411.259H366.661C366.661 413.219 367.832 414.437 369.648 414.437C370.842 414.437 371.702 413.911 372.061 413.123H375.429C374.928 415.512 372.777 417.089 369.576 417.089ZM366.661 409.038H372.18C372.18 407.461 371.081 406.338 369.504 406.338C367.88 406.338 366.721 407.544 366.661 409.038ZM377.747 416.826V403.853H381.163V406.099H381.307C381.785 404.498 382.979 403.662 384.437 403.662C384.795 403.662 385.249 403.71 385.559 403.781V406.935C385.225 406.839 384.556 406.744 384.054 406.744C382.454 406.744 381.283 407.867 381.283 409.444V416.826H377.747ZM399.727 403.853L395.164 416.826H391.198L386.659 403.853H390.386L393.109 413.171H393.253L395.976 403.853H399.727ZM401.447 416.826V403.853H404.983V416.826H401.447ZM403.215 402.157C402.14 402.157 401.28 401.344 401.28 400.365C401.28 399.361 402.14 398.549 403.215 398.549C404.267 398.549 405.127 399.361 405.127 400.365C405.127 401.344 404.267 402.157 403.215 402.157ZM413.56 417.089C409.594 417.089 407.205 414.341 407.205 410.375C407.205 406.409 409.618 403.686 413.56 403.686C416.905 403.686 419.175 405.645 419.318 408.607H415.997C415.782 407.317 414.946 406.433 413.608 406.433C411.912 406.433 410.789 407.867 410.789 410.328C410.789 412.836 411.888 414.27 413.608 414.27C414.851 414.27 415.782 413.505 415.997 412.12H419.318C419.151 415.058 417.001 417.089 413.56 417.089ZM427.394 417.089C423.428 417.089 420.991 414.509 420.991 410.399C420.991 406.386 423.452 403.686 427.25 403.686C430.667 403.686 433.343 405.836 433.343 410.256V411.259H424.479C424.479 413.219 425.65 414.437 427.465 414.437C428.66 414.437 429.52 413.911 429.878 413.123H433.247C432.745 415.512 430.595 417.089 427.394 417.089ZM424.479 409.038H429.998C429.998 407.461 428.899 406.338 427.322 406.338C425.697 406.338 424.539 407.544 424.479 409.038ZM442.971 407.7C442.828 406.792 442.015 406.194 440.845 406.194C439.698 406.194 438.814 406.744 438.838 407.532C438.814 408.106 439.292 408.56 440.51 408.822L442.828 409.3C445.336 409.826 446.555 410.949 446.579 412.812C446.555 415.369 444.261 417.089 440.821 417.089C437.309 417.089 435.254 415.512 434.967 412.98H438.527C438.694 414.007 439.531 414.533 440.821 414.533C442.111 414.533 442.971 414.007 442.971 413.171C442.971 412.502 442.422 412.096 441.203 411.833L439.053 411.403C436.592 410.925 435.302 409.635 435.326 407.723C435.302 405.239 437.452 403.686 440.797 403.686C444.07 403.686 446.101 405.239 446.292 407.7H442.971Z" fill="white"/>
<path d="M663.375 98.9771C663.375 99.4665 663.18 99.9358 662.834 100.282C662.488 100.628 662.019 100.822 661.53 100.822C661.04 100.822 660.571 100.628 660.225 100.282C659.879 99.9358 659.684 99.4665 659.684 98.9771C659.684 98.4877 659.879 98.0183 660.225 97.6723C660.571 97.3262 661.04 97.1318 661.53 97.1318C662.019 97.1318 662.488 97.3262 662.834 97.6723C663.18 98.0183 663.375 98.4877 663.375 98.9771ZM663.434 91.7345C662.881 91.3308 662.214 91.1133 661.53 91.1133C660.845 91.1133 660.178 91.3308 659.625 91.7345L645.932 101.726C644.127 103.042 645.059 105.897 647.29 105.897H647.69V116.599C646.857 117.024 646.158 117.672 645.669 118.469C645.181 119.267 644.922 120.184 644.922 121.12V123.888C644.922 124.65 645.542 125.272 646.306 125.272H676.753C677.12 125.272 677.472 125.126 677.731 124.866C677.991 124.607 678.137 124.255 678.137 123.888V121.12C678.137 120.184 677.878 119.267 677.39 118.469C676.902 117.672 676.202 117.024 675.369 116.599V105.897H675.769C678.002 105.897 678.93 103.042 677.127 101.726L663.434 91.7327V91.7345ZM661.256 93.9691C661.335 93.9114 661.431 93.8803 661.529 93.8803C661.627 93.8803 661.722 93.9114 661.801 93.9691L674.354 103.129H648.705L661.256 93.9691ZM672.601 105.897V116.045H668.911V105.897H672.601ZM666.143 105.897V116.045H662.914V105.897H666.143ZM660.146 105.897V116.045H656.917V105.897H660.146ZM649.997 118.813H673.062C674.336 118.813 675.369 119.847 675.369 121.12V122.504H647.69V121.12C647.69 119.847 648.724 118.813 649.997 118.813ZM650.458 116.045V105.897H654.149V116.045H650.458Z" fill="url(#paint12_linear_0_1)"/>
<g clip-path="url(#clip0_0_1)">
<path fill-rule="evenodd" clip-rule="evenodd" d="M661.326 609.759C665.567 609.753 669.65 611.366 672.741 614.27L673.131 614.649C674.684 616.198 675.915 618.038 676.754 620.064C677.593 622.089 678.024 624.261 678.021 626.454C678.021 635.674 670.547 643.149 661.326 643.149C652.106 643.149 644.631 635.674 644.631 626.454C644.631 617.233 652.106 609.759 661.326 609.759ZM662.996 613.201V614.767C662.996 615.21 662.82 615.635 662.507 615.948C662.194 616.261 661.769 616.437 661.326 616.437C660.883 616.437 660.459 616.261 660.146 615.948C659.833 615.635 659.657 615.21 659.657 614.767V613.201C657.279 613.497 655.026 614.431 653.136 615.903L654.243 617.009C654.402 617.163 654.529 617.348 654.617 617.551C654.704 617.755 654.75 617.974 654.752 618.196C654.754 618.417 654.712 618.637 654.628 618.842C654.544 619.048 654.42 619.234 654.263 619.391C654.107 619.548 653.92 619.672 653.715 619.755C653.51 619.839 653.29 619.882 653.068 619.88C652.847 619.878 652.628 619.832 652.424 619.744C652.22 619.657 652.036 619.53 651.882 619.37L650.775 618.263C649.303 620.154 648.37 622.407 648.074 624.784H649.64C650.083 624.784 650.507 624.96 650.82 625.273C651.133 625.586 651.309 626.011 651.309 626.454C651.309 626.897 651.133 627.321 650.82 627.634C650.507 627.947 650.083 628.123 649.64 628.123H648.074C648.481 631.351 650.052 634.318 652.492 636.47C654.932 638.621 658.073 639.808 661.326 639.808C664.579 639.808 667.72 638.621 670.16 636.47C672.6 634.318 674.171 631.351 674.579 628.123H673.013C672.57 628.123 672.145 627.947 671.832 627.634C671.519 627.321 671.343 626.897 671.343 626.454C671.343 626.011 671.519 625.586 671.832 625.273C672.145 624.96 672.57 624.784 673.013 624.784H674.579C674.283 622.407 673.349 620.154 671.877 618.263L665.847 624.295C666.356 625.361 666.472 626.573 666.175 627.716C665.877 628.86 665.184 629.861 664.22 630.543C663.255 631.225 662.08 631.545 660.903 631.444C659.726 631.344 658.622 630.831 657.786 629.995C656.951 629.16 656.438 628.056 656.337 626.879C656.237 625.702 656.556 624.527 657.239 623.562C657.921 622.597 658.922 621.905 660.065 621.607C661.209 621.309 662.42 621.425 663.487 621.934L669.517 615.903C667.626 614.431 665.373 613.497 662.996 613.201ZM661.326 624.784C660.883 624.784 660.459 624.96 660.146 625.273C659.833 625.586 659.657 626.011 659.657 626.454C659.657 626.897 659.833 627.321 660.146 627.634C660.459 627.947 660.883 628.123 661.326 628.123C661.769 628.123 662.194 627.947 662.507 627.634C662.82 627.321 662.996 626.897 662.996 626.454C662.996 626.011 662.82 625.586 662.507 625.273C662.194 624.96 661.769 624.784 661.326 624.784Z" fill="url(#paint13_linear_0_1)"/>
</g>
<g clip-path="url(#clip1_0_1)">
<path fill-rule="evenodd" clip-rule="evenodd" d="M661.326 357.534C665.567 357.528 669.65 359.142 672.741 362.045L673.131 362.424C674.684 363.973 675.915 365.813 676.754 367.839C677.593 369.865 678.024 372.036 678.021 374.229C678.021 383.45 670.547 390.924 661.326 390.924C652.106 390.924 644.631 383.45 644.631 374.229C644.631 365.009 652.106 357.534 661.326 357.534ZM662.996 360.977V362.543C662.996 362.985 662.82 363.41 662.507 363.723C662.194 364.036 661.769 364.212 661.326 364.212C660.883 364.212 660.459 364.036 660.146 363.723C659.833 363.41 659.657 362.985 659.657 362.543V360.977C657.279 361.273 655.026 362.206 653.136 363.678L654.243 364.785C654.402 364.939 654.529 365.123 654.617 365.327C654.704 365.53 654.75 365.749 654.752 365.971C654.754 366.193 654.712 366.413 654.628 366.618C654.544 366.823 654.42 367.009 654.263 367.166C654.107 367.323 653.92 367.447 653.715 367.531C653.51 367.615 653.29 367.657 653.068 367.655C652.847 367.653 652.628 367.607 652.424 367.52C652.22 367.432 652.036 367.305 651.882 367.145L650.775 366.039C649.303 367.929 648.37 370.182 648.074 372.56H649.64C650.083 372.56 650.507 372.736 650.82 373.049C651.133 373.362 651.309 373.786 651.309 374.229C651.309 374.672 651.133 375.097 650.82 375.41C650.507 375.723 650.083 375.899 649.64 375.899H648.074C648.481 379.126 650.052 382.094 652.492 384.245C654.932 386.396 658.073 387.583 661.326 387.583C664.579 387.583 667.72 386.396 670.16 384.245C672.6 382.094 674.171 379.126 674.579 375.899H673.013C672.57 375.899 672.145 375.723 671.832 375.41C671.519 375.097 671.343 374.672 671.343 374.229C671.343 373.786 671.519 373.362 671.832 373.049C672.145 372.736 672.57 372.56 673.013 372.56H674.579C674.283 370.182 673.349 367.929 671.877 366.039L665.847 372.071C666.356 373.137 666.472 374.348 666.175 375.492C665.877 376.635 665.184 377.636 664.22 378.319C663.255 379.001 662.08 379.32 660.903 379.22C659.726 379.119 658.622 378.606 657.786 377.771C656.951 376.935 656.438 375.831 656.337 374.654C656.237 373.477 656.556 372.302 657.239 371.337C657.921 370.373 658.922 369.68 660.065 369.382C661.209 369.085 662.42 369.201 663.487 369.71L669.517 363.678C667.626 362.206 665.373 361.273 662.996 360.977ZM661.326 372.56C660.883 372.56 660.459 372.736 660.146 373.049C659.833 373.362 659.657 373.786 659.657 374.229C659.657 374.672 659.833 375.097 660.146 375.41C660.459 375.723 660.883 375.899 661.326 375.899C661.769 375.899 662.194 375.723 662.507 375.41C662.82 375.097 662.996 374.672 662.996 374.229C662.996 373.786 662.82 373.362 662.507 373.049C662.194 372.736 661.769 372.56 661.326 372.56Z" fill="url(#paint14_linear_0_1)"/>
</g>
<path d="M398.323 618.619H406.759C407.132 618.619 407.489 618.471 407.753 618.207C408.016 617.944 408.165 617.586 408.165 617.213C408.165 616.84 408.016 616.483 407.753 616.219C407.489 615.955 407.132 615.807 406.759 615.807H398.323C397.95 615.807 397.593 615.955 397.329 616.219C397.066 616.483 396.917 616.84 396.917 617.213C396.917 617.586 397.066 617.944 397.329 618.207C397.593 618.471 397.95 618.619 398.323 618.619ZM395.512 624.243H406.759C407.132 624.243 407.489 624.094 407.753 623.831C408.016 623.567 408.165 623.209 408.165 622.837C408.165 622.464 408.016 622.106 407.753 621.843C407.489 621.579 407.132 621.431 406.759 621.431H395.512C395.139 621.431 394.781 621.579 394.517 621.843C394.254 622.106 394.106 622.464 394.106 622.837C394.106 623.209 394.254 623.567 394.517 623.831C394.781 624.094 395.139 624.243 395.512 624.243ZM395.512 629.866H406.759C407.132 629.866 407.489 629.718 407.753 629.454C408.016 629.191 408.165 628.833 408.165 628.46C408.165 628.087 408.016 627.73 407.753 627.466C407.489 627.202 407.132 627.054 406.759 627.054H395.512C395.139 627.054 394.781 627.202 394.517 627.466C394.254 627.73 394.106 628.087 394.106 628.46C394.106 628.833 394.254 629.191 394.517 629.454C394.781 629.718 395.139 629.866 395.512 629.866ZM412.382 610.184H389.888C389.515 610.184 389.157 610.332 388.894 610.595C388.63 610.859 388.482 611.217 388.482 611.589V636.896C388.482 637.157 388.555 637.413 388.692 637.635C388.829 637.857 389.026 638.036 389.259 638.153C389.493 638.27 389.754 638.319 390.014 638.296C390.274 638.272 390.523 638.177 390.731 638.02L393.642 635.841L396.538 638.02C396.781 638.203 397.077 638.301 397.381 638.301C397.686 638.301 397.982 638.203 398.225 638.02L401.135 635.841L404.045 638.02C404.289 638.203 404.585 638.301 404.889 638.301C405.193 638.301 405.489 638.203 405.732 638.02L408.628 635.841L411.539 638.02C411.749 638.177 411.998 638.271 412.259 638.294C412.52 638.316 412.781 638.265 413.015 638.147C413.247 638.03 413.442 637.851 413.578 637.63C413.715 637.409 413.787 637.155 413.788 636.896V611.589C413.788 611.217 413.64 610.859 413.376 610.595C413.113 610.332 412.755 610.184 412.382 610.184ZM410.976 634.084L409.472 632.959C409.229 632.777 408.933 632.678 408.628 632.678C408.324 632.678 408.028 632.777 407.785 632.959L404.889 635.138L401.979 632.959C401.735 632.777 401.439 632.678 401.135 632.678C400.831 632.678 400.535 632.777 400.292 632.959L397.381 635.138L394.485 632.959C394.242 632.777 393.946 632.678 393.642 632.678C393.337 632.678 393.041 632.777 392.798 632.959L391.294 634.084V612.995H410.976V634.084Z" fill="url(#paint15_linear_0_1)"/>
<g clip-path="url(#clip2_0_1)">
<path d="M394.571 99.9242C394.208 100.508 393.789 101.037 393.315 101.511C392.842 101.985 392.305 102.411 391.705 102.79L392.913 105.727L390.118 106.863L388.91 103.95C388.279 104.108 387.6 104.187 386.874 104.187C386.147 104.187 385.468 104.108 384.837 103.95L383.629 106.863L380.834 105.727L382.042 102.79C381.458 102.427 380.929 102.008 380.455 101.535C379.982 101.061 379.555 100.524 379.177 99.9242L376.24 101.132L375.103 98.3374L378.016 97.1296C377.858 96.498 377.779 95.8191 377.779 95.0928C377.779 94.3665 377.858 93.6876 378.016 93.0561L375.103 91.8482L376.24 89.0536L379.177 90.2615C379.903 89.0773 380.858 88.1221 382.042 87.3958L380.834 84.4591L383.629 83.3223L384.837 86.2353C385.468 86.0774 386.147 85.9985 386.874 85.9985C387.6 85.9985 388.279 86.0774 388.91 86.2353L390.118 83.3223L392.913 84.4591L391.705 87.3958C392.889 88.1221 393.844 89.0773 394.571 90.2615L397.507 89.0536L398.644 91.8482L395.731 93.0561C395.889 93.6876 395.968 94.3665 395.968 95.0928C395.968 95.8191 395.889 96.498 395.731 97.1296L398.644 98.3374L397.507 101.132L394.571 99.9242ZM386.874 101.156C387.71 101.156 388.492 100.998 389.218 100.682C389.945 100.366 390.592 99.9321 391.16 99.3795C391.729 98.8269 392.163 98.1874 392.463 97.4612C392.763 96.7349 392.921 95.9454 392.937 95.0928C392.937 94.256 392.779 93.4745 392.463 92.7482C392.147 92.0219 391.713 91.3746 391.16 90.8062C390.608 90.2378 389.968 89.8036 389.242 89.5036C388.516 89.2036 387.726 89.0457 386.874 89.0299C386.037 89.0299 385.255 89.1878 384.529 89.5036C383.803 89.8194 383.155 90.2536 382.587 90.8062C382.019 91.3588 381.584 91.9982 381.284 92.7245C380.984 93.4508 380.826 94.2402 380.811 95.0928C380.811 95.9296 380.969 96.7112 381.284 97.4375C381.6 98.1638 382.034 98.8111 382.587 99.3795C383.14 99.9479 383.779 100.382 384.505 100.682C385.232 100.982 386.021 101.14 386.874 101.156ZM420.22 111.766C420.22 112.634 420.109 113.51 419.888 114.395L423.133 115.721L421.996 118.539L418.728 117.189C417.796 118.737 416.564 119.968 415.033 120.884L416.383 124.128L413.565 125.289L412.238 122.044C411.354 122.265 410.478 122.376 409.61 122.376C408.741 122.376 407.865 122.265 406.981 122.044L405.654 125.289L402.836 124.128L404.186 120.884C402.639 119.968 401.407 118.737 400.491 117.189L397.223 118.539L396.086 115.721L399.331 114.395C399.11 113.51 398.999 112.634 398.999 111.766C398.999 110.897 399.11 110.021 399.331 109.137L396.086 107.811L397.223 104.992L400.491 106.342C401.407 104.811 402.639 103.579 404.186 102.648L402.836 99.3795L405.654 98.2427L406.981 101.487C407.865 101.266 408.741 101.156 409.61 101.156C410.478 101.156 411.354 101.266 412.238 101.487L413.565 98.2427L416.383 99.3795L415.033 102.648C416.564 103.579 417.796 104.811 418.728 106.342L421.996 104.992L423.133 107.811L419.888 109.137C420.109 110.021 420.22 110.897 420.22 111.766ZM409.61 119.344C410.652 119.344 411.63 119.147 412.546 118.752C413.462 118.358 414.259 117.821 414.938 117.142C415.617 116.463 416.162 115.658 416.572 114.726C416.983 113.795 417.188 112.808 417.188 111.766C417.188 110.724 416.991 109.745 416.596 108.829C416.201 107.913 415.657 107.116 414.962 106.437C414.267 105.758 413.462 105.213 412.546 104.803C411.63 104.392 410.652 104.187 409.61 104.187C408.567 104.187 407.589 104.385 406.673 104.779C405.757 105.174 404.952 105.719 404.257 106.413C403.562 107.108 403.018 107.913 402.623 108.829C402.228 109.745 402.031 110.724 402.031 111.766C402.031 112.808 402.228 113.787 402.623 114.703C403.018 115.618 403.554 116.424 404.233 117.118C404.912 117.813 405.718 118.358 406.649 118.752C407.581 119.147 408.567 119.344 409.61 119.344Z" fill="url(#paint16_linear_0_1)"/>
</g>
<path d="M133.123 607.235C132.949 607.085 132.737 606.986 132.511 606.947C132.285 606.908 132.052 606.932 131.839 607.015L103.432 618.132C103.029 618.289 102.689 618.572 102.461 618.939C102.233 619.306 102.131 619.737 102.169 620.167C102.207 620.597 102.385 621.004 102.674 621.324C102.963 621.645 103.349 621.863 103.773 621.946L111.133 623.391V631.598C111.131 632.045 111.264 632.482 111.514 632.853C111.764 633.224 112.12 633.511 112.535 633.677C112.949 633.846 113.405 633.887 113.842 633.793C114.28 633.7 114.68 633.477 114.989 633.154L118.538 629.473L124.169 634.402C124.575 634.762 125.099 634.961 125.642 634.962C125.88 634.962 126.116 634.925 126.343 634.852C126.713 634.734 127.045 634.522 127.308 634.236C127.57 633.95 127.753 633.6 127.838 633.221L133.528 608.47C133.579 608.247 133.568 608.014 133.496 607.797C133.425 607.579 133.296 607.385 133.123 607.235ZM124.553 612.282L111.995 621.275L105.043 619.911L124.553 612.282ZM113.376 631.598V624.943L116.85 627.99L113.376 631.598ZM125.645 632.72L114.055 622.557L130.736 610.602L125.645 632.72Z" fill="url(#paint17_linear_0_1)"/>
<path d="M127.09 442.127H132.362V447.399H127.09V442.127ZM127.09 450.035H132.362V455.307H127.09V450.035ZM119.182 442.127H124.454V447.399H119.182V442.127ZM119.182 450.035H124.454V455.307H119.182V450.035Z" fill="url(#paint18_linear_0_1)"/>
<path d="M115.887 467.17C116.979 467.17 117.864 466.285 117.864 465.193C117.864 464.101 116.979 463.216 115.887 463.216C114.795 463.216 113.91 464.101 113.91 465.193C113.91 466.285 114.795 467.17 115.887 467.17Z" fill="url(#paint19_linear_0_1)"/>
<path d="M124.454 472.443H107.32C106.621 472.442 105.951 472.164 105.456 471.67C104.962 471.176 104.684 470.506 104.684 469.807V438.174C104.684 437.475 104.962 436.805 105.456 436.311C105.951 435.817 106.621 435.539 107.32 435.538H124.454V438.174H107.32V469.807H124.454V459.263H127.09V469.807C127.089 470.506 126.811 471.176 126.317 471.67C125.823 472.164 125.153 472.442 124.454 472.443Z" fill="url(#paint20_linear_0_1)"/>
<path d="M124.19 292.603C123.6 292.364 123.178 291.83 123.079 291.197C123.009 290.832 123.079 290.578 123.642 289.566C125.751 285.77 126.833 281.482 126.777 277.138C126.833 272.92 125.807 268.801 123.782 265.104C123.487 264.485 123.22 263.895 122.995 263.262C123.079 262.728 123.346 262.236 123.782 261.94C124.415 261.603 125.188 261.673 125.765 262.067C126.158 262.573 126.496 263.079 126.777 263.67C128.29 266.567 129.32 269.692 129.828 272.92C130.151 275.465 130.193 278.052 129.954 280.611C129.518 283.9 128.548 287.078 127.058 290.044C126.158 291.844 125.652 292.603 125.118 292.603H124.19ZM118.06 289.496C117.259 289.271 116.753 288.456 116.922 287.64C116.922 287.471 117.357 286.698 117.751 285.911C119.41 282.72 120.127 279.12 119.804 275.535C119.607 272.963 118.862 270.46 117.639 268.197C116.753 266.425 116.697 266.144 117.217 265.385C117.835 264.696 118.862 264.598 119.621 265.188C120.633 266.678 121.434 268.309 122.025 270.024C123.825 275.353 123.543 281.159 121.238 286.276C120.057 288.934 119.227 289.791 118.06 289.426V289.496ZM111.734 286.361C111.483 286.248 111.261 286.082 111.084 285.872C110.906 285.663 110.778 285.417 110.708 285.152C110.708 284.871 110.708 284.505 111.34 283.38C112.371 281.512 112.911 279.413 112.911 277.279C112.911 275.145 112.371 273.046 111.34 271.177C110.426 269.406 110.426 269.04 111.171 268.365C111.439 268.056 111.832 267.901 112.254 267.958C113.154 267.958 113.66 268.393 114.419 269.982C115.614 272.177 116.234 274.639 116.219 277.138C116.275 279.683 115.656 282.213 114.433 284.449C113.674 285.925 113.294 286.276 112.535 286.403C112.268 286.431 111.987 286.403 111.734 286.276V286.361ZM105.815 283.366C105.351 283.141 104.986 282.762 104.803 282.27C104.662 281.778 104.803 281.356 105.365 280.456C106.068 279.5 106.405 278.319 106.335 277.138C106.434 275.943 106.11 274.762 105.421 273.778C105.188 273.424 104.981 273.052 104.803 272.667C104.648 271.782 105.239 270.938 106.209 270.769C106.968 270.629 107.502 270.952 108.205 272.021C109.202 273.538 109.734 275.315 109.734 277.131C109.734 278.947 109.202 280.724 108.205 282.242C107.488 283.324 106.673 283.647 105.829 283.366H105.815Z" fill="url(#paint21_linear_0_1)"/>
<path d="M114.384 98.7915L110.649 95.0571L115.429 90.2771C115.728 89.9784 116.064 89.7543 116.438 89.6049C116.811 89.4555 117.184 89.3809 117.558 89.3809C117.931 89.3809 118.305 89.4555 118.678 89.6049C119.052 89.7543 119.388 89.9784 119.687 90.2771L124.467 95.0571L120.732 98.7915L117.558 95.6173L114.384 98.7915ZM108.035 111.489L103.255 106.708C102.956 106.41 102.732 106.074 102.583 105.7C102.434 105.327 102.359 104.953 102.359 104.58C102.359 104.206 102.434 103.833 102.583 103.46C102.732 103.086 102.956 102.75 103.255 102.451L108.035 97.6712L111.77 101.406L108.595 104.58L111.77 107.754L108.035 111.489ZM127.081 111.489L123.346 107.754L126.52 104.58L123.346 101.406L127.081 97.6712L131.861 102.451C132.159 102.75 132.383 103.086 132.533 103.46C132.682 103.833 132.757 104.206 132.757 104.58C132.757 104.953 132.682 105.327 132.533 105.7C132.383 106.074 132.159 106.41 131.861 106.708L127.081 111.489ZM117.558 119.779C117.184 119.779 116.811 119.704 116.438 119.555C116.064 119.405 115.728 119.181 115.429 118.883L110.649 114.103L114.384 110.368L117.558 113.542L120.732 110.368L124.467 114.103L119.687 118.883C119.388 119.181 119.052 119.405 118.678 119.555C118.305 119.704 117.931 119.779 117.558 119.779ZM119.687 104.58C119.687 105.152 119.475 105.65 119.052 106.074C118.628 106.497 118.131 106.708 117.558 106.708C116.985 106.708 116.487 106.497 116.064 106.074C115.641 105.65 115.429 105.152 115.429 104.58C115.429 104.007 115.641 103.509 116.064 103.086C116.487 102.663 116.985 102.451 117.558 102.451C118.131 102.451 118.628 102.663 119.052 103.086C119.475 103.509 119.687 104.007 119.687 104.58Z" fill="url(#paint22_linear_0_1)"/>
<defs>
<filter id="filter0_d_0_1" x="0.600586" y="0" width="234.234" height="234.234" filterUnits="userSpaceOnUse" color-interpolation-filters="sRGB">
<feFlood flood-opacity="0" result="BackgroundImageFix"/>
<feColorMatrix in="SourceAlpha" type="matrix" values="0 0 0 0 0 0 0 0 0 0 0 0 0 0 0 0 0 0 127 0" result="hardAlpha"/>
<feOffset/>
<feGaussianBlur stdDeviation="30"/>
<feComposite in2="hardAlpha" operator="out"/>
<feColorMatrix type="matrix" values="0 0 0 0 0.200642 0 0 0 0 0.314898 0 0 0 0 0.379167 0 0 0 0.1 0"/>
<feBlend mode="normal" in2="BackgroundImageFix" result="effect1_dropShadow_0_1"/>
<feBlend mode="normal" in="SourceGraphic" in2="effect1_dropShadow_0_1" result="shape"/>
</filter>
<filter id="filter1_d_0_1" x="278.57" y="0" width="240.044" height="234.141" filterUnits="userSpaceOnUse" color-interpolation-filters="sRGB">
<feFlood flood-opacity="0" result="BackgroundImageFix"/>
<feColorMatrix in="SourceAlpha" type="matrix" values="0 0 0 0 0 0 0 0 0 0 0 0 0 0 0 0 0 0 127 0" result="hardAlpha"/>
<feOffset/>
<feGaussianBlur stdDeviation="30"/>
<feComposite in2="hardAlpha" operator="out"/>
<feColorMatrix type="matrix" values="0 0 0 0 0.200642 0 0 0 0 0.314898 0 0 0 0 0.379167 0 0 0 0.1 0"/>
<feBlend mode="normal" in2="BackgroundImageFix" result="effect1_dropShadow_0_1"/>
<feBlend mode="normal" in="SourceGraphic" in2="effect1_dropShadow_0_1" result="shape"/>
</filter>
<filter id="filter2_d_0_1" x="0.600586" y="173.255" width="234.234" height="234.234" filterUnits="userSpaceOnUse" color-interpolation-filters="sRGB">
<feFlood flood-opacity="0" result="BackgroundImageFix"/>
<feColorMatrix in="SourceAlpha" type="matrix" values="0 0 0 0 0 0 0 0 0 0 0 0 0 0 0 0 0 0 127 0" result="hardAlpha"/>
<feOffset/>
<feGaussianBlur stdDeviation="30"/>
<feComposite in2="hardAlpha" operator="out"/>
<feColorMatrix type="matrix" values="0 0 0 0 0.200642 0 0 0 0 0.314898 0 0 0 0 0.379167 0 0 0 0.1 0"/>
<feBlend mode="normal" in2="BackgroundImageFix" result="effect1_dropShadow_0_1"/>
<feBlend mode="normal" in="SourceGraphic" in2="effect1_dropShadow_0_1" result="shape"/>
</filter>
<filter id="filter3_d_0_1" x="0.600586" y="346.511" width="234.234" height="234.234" filterUnits="userSpaceOnUse" color-interpolation-filters="sRGB">
<feFlood flood-opacity="0" result="BackgroundImageFix"/>
<feColorMatrix in="SourceAlpha" type="matrix" values="0 0 0 0 0 0 0 0 0 0 0 0 0 0 0 0 0 0 127 0" result="hardAlpha"/>
<feOffset/>
<feGaussianBlur stdDeviation="30"/>
<feComposite in2="hardAlpha" operator="out"/>
<feColorMatrix type="matrix" values="0 0 0 0 0.200642 0 0 0 0 0.314898 0 0 0 0 0.379167 0 0 0 0.1 0"/>
<feBlend mode="normal" in2="BackgroundImageFix" result="effect1_dropShadow_0_1"/>
<feBlend mode="normal" in="SourceGraphic" in2="effect1_dropShadow_0_1" result="shape"/>
</filter>
<filter id="filter4_d_0_1" x="0.600586" y="519.766" width="234.234" height="234.234" filterUnits="userSpaceOnUse" color-interpolation-filters="sRGB">
<feFlood flood-opacity="0" result="BackgroundImageFix"/>
<feColorMatrix in="SourceAlpha" type="matrix" values="0 0 0 0 0 0 0 0 0 0 0 0 0 0 0 0 0 0 127 0" result="hardAlpha"/>
<feOffset/>
<feGaussianBlur stdDeviation="30"/>
<feComposite in2="hardAlpha" operator="out"/>
<feColorMatrix type="matrix" values="0 0 0 0 0.200642 0 0 0 0 0.314898 0 0 0 0 0.379167 0 0 0 0.1 0"/>
<feBlend mode="normal" in2="BackgroundImageFix" result="effect1_dropShadow_0_1"/>
<feBlend mode="normal" in="SourceGraphic" in2="effect1_dropShadow_0_1" result="shape"/>
</filter>
<filter id="filter5_d_0_1" x="544.165" y="519.766" width="234.234" height="234.234" filterUnits="userSpaceOnUse" color-interpolation-filters="sRGB">
<feFlood flood-opacity="0" result="BackgroundImageFix"/>
<feColorMatrix in="SourceAlpha" type="matrix" values="0 0 0 0 0 0 0 0 0 0 0 0 0 0 0 0 0 0 127 0" result="hardAlpha"/>
<feOffset/>
<feGaussianBlur stdDeviation="30"/>
<feComposite in2="hardAlpha" operator="out"/>
<feColorMatrix type="matrix" values="0 0 0 0 0.200642 0 0 0 0 0.314898 0 0 0 0 0.379167 0 0 0 0.1 0"/>
<feBlend mode="normal" in2="BackgroundImageFix" result="effect1_dropShadow_0_1"/>
<feBlend mode="normal" in="SourceGraphic" in2="effect1_dropShadow_0_1" result="shape"/>
</filter>
<filter id="filter6_d_0_1" x="544.165" y="263.69" width="234.234" height="234.234" filterUnits="userSpaceOnUse" color-interpolation-filters="sRGB">
<feFlood flood-opacity="0" result="BackgroundImageFix"/>
<feColorMatrix in="SourceAlpha" type="matrix" values="0 0 0 0 0 0 0 0 0 0 0 0 0 0 0 0 0 0 127 0" result="hardAlpha"/>
<feOffset/>
<feGaussianBlur stdDeviation="30"/>
<feComposite in2="hardAlpha" operator="out"/>
<feColorMatrix type="matrix" values="0 0 0 0 0.200642 0 0 0 0 0.314898 0 0 0 0 0.379167 0 0 0 0.1 0"/>
<feBlend mode="normal" in2="BackgroundImageFix" result="effect1_dropShadow_0_1"/>
<feBlend mode="normal" in="SourceGraphic" in2="effect1_dropShadow_0_1" result="shape"/>
</filter>
<filter id="filter7_d_0_1" x="544.165" y="0" width="234.234" height="234.234" filterUnits="userSpaceOnUse" color-interpolation-filters="sRGB">
<feFlood flood-opacity="0" result="BackgroundImageFix"/>
<feColorMatrix in="SourceAlpha" type="matrix" values="0 0 0 0 0 0 0 0 0 0 0 0 0 0 0 0 0 0 127 0" result="hardAlpha"/>
<feOffset/>
<feGaussianBlur stdDeviation="30"/>
<feComposite in2="hardAlpha" operator="out"/>
<feColorMatrix type="matrix" values="0 0 0 0 0.200642 0 0 0 0 0.314898 0 0 0 0 0.379167 0 0 0 0.1 0"/>
<feBlend mode="normal" in2="BackgroundImageFix" result="effect1_dropShadow_0_1"/>
<feBlend mode="normal" in="SourceGraphic" in2="effect1_dropShadow_0_1" result="shape"/>
</filter>
<filter id="filter8_d_0_1" x="262.387" y="519.766" width="271.36" height="234.234" filterUnits="userSpaceOnUse" color-interpolation-filters="sRGB">
<feFlood flood-opacity="0" result="BackgroundImageFix"/>
<feColorMatrix in="SourceAlpha" type="matrix" values="0 0 0 0 0 0 0 0 0 0 0 0 0 0 0 0 0 0 127 0" result="hardAlpha"/>
<feOffset/>
<feGaussianBlur stdDeviation="30"/>
<feComposite in2="hardAlpha" operator="out"/>
<feColorMatrix type="matrix" values="0 0 0 0 0.200642 0 0 0 0 0.314898 0 0 0 0 0.379167 0 0 0 0.1 0"/>
<feBlend mode="normal" in2="BackgroundImageFix" result="effect1_dropShadow_0_1"/>
<feBlend mode="normal" in="SourceGraphic" in2="effect1_dropShadow_0_1" result="shape"/>
</filter>
<linearGradient id="paint0_linear_0_1" x1="248.611" y1="126.161" x2="248.611" y2="432.5" gradientUnits="userSpaceOnUse">
<stop stop-color="#8C3DE7"/>
<stop offset="1" stop-color="#00FFFF"/>
</linearGradient>
<linearGradient id="paint1_linear_0_1" x1="534.197" y1="126.161" x2="445.5" y2="439" gradientUnits="userSpaceOnUse">
<stop stop-color="#8C3DE7"/>
<stop offset="1" stop-color="#00FFFF"/>
</linearGradient>
<linearGradient id="paint2_linear_0_1" x1="248.611" y1="636.883" x2="248.611" y2="402.703" gradientUnits="userSpaceOnUse">
<stop stop-color="#8C3DE7"/>
<stop offset="1" stop-color="#00FFFF"/>
</linearGradient>
<linearGradient id="paint3_linear_0_1" x1="248.611" y1="833.936" x2="138" y2="545" gradientUnits="userSpaceOnUse">
<stop stop-color="#8C3DE7"/>
<stop offset="1" stop-color="#00FFFF"/>
</linearGradient>
<linearGradient id="paint4_linear_0_1" x1="535.149" y1="348.441" x2="535.149" y2="47.5" gradientUnits="userSpaceOnUse">
<stop stop-color="#8C3DE7"/>
<stop offset="1" stop-color="#00FFFF"/>
</linearGradient>
<linearGradient id="paint5_linear_0_1" x1="531.894" y1="636.883" x2="633" y2="371" gradientUnits="userSpaceOnUse">
<stop stop-color="#8C3DE7"/>
<stop offset="1" stop-color="#00FFFF"/>
</linearGradient>
<linearGradient id="paint6_linear_0_1" x1="-4.32594e+12" y1="626.251" x2="-4.32594e+12" y2="406.34" gradientUnits="userSpaceOnUse">
<stop stop-color="#8C3DE7"/>
<stop offset="1" stop-color="#00FFFF"/>
</linearGradient>
<linearGradient id="paint7_linear_0_1" x1="4.5497e+12" y1="668.504" x2="4.5497e+12" y2="465.438" gradientUnits="userSpaceOnUse">
<stop stop-color="#8C3DE7"/>
<stop offset="1" stop-color="#00F8A4"/>
</linearGradient>
<linearGradient id="paint8_linear_0_1" x1="4.5497e+12" y1="495.249" x2="4.5497e+12" y2="292.183" gradientUnits="userSpaceOnUse">
<stop stop-color="#8C3DE7"/>
<stop offset="1" stop-color="#00F8E9"/>
</linearGradient>
<linearGradient id="paint9_linear_0_1" x1="4.5497e+12" y1="199422" x2="4.5497e+12" y2="198908" gradientUnits="userSpaceOnUse">
<stop stop-color="#8C3DE7"/>
<stop offset="1" stop-color="#00F8E9"/>
</linearGradient>
<linearGradient id="paint10_linear_0_1" x1="4.5497e+12" y1="321.993" x2="4.5497e+12" y2="118.928" gradientUnits="userSpaceOnUse">
<stop stop-color="#8C3DE7"/>
<stop offset="1" stop-color="#00F8E9"/>
</linearGradient>
<radialGradient id="paint11_radial_0_1" cx="0" cy="0" r="1" gradientUnits="userSpaceOnUse" gradientTransform="translate(398.067 317.5) rotate(90) scale(138.512)">
<stop stop-color="#005796"/>
<stop offset="0.477477" stop-color="#078AE9"/>
<stop offset="1" stop-color="#0069B5"/>
</radialGradient>
<linearGradient id="paint12_linear_0_1" x1="661.53" y1="91.1133" x2="661.53" y2="125.272" gradientUnits="userSpaceOnUse">
<stop stop-color="#A9BCD9"/>
<stop offset="1" stop-color="#97ACBF"/>
</linearGradient>
<linearGradient id="paint13_linear_0_1" x1="661.326" y1="609.759" x2="661.326" y2="643.149" gradientUnits="userSpaceOnUse">
<stop stop-color="#A9BCD9"/>
<stop offset="1" stop-color="#97ACBF"/>
</linearGradient>
<linearGradient id="paint14_linear_0_1" x1="661.326" y1="357.534" x2="661.326" y2="390.924" gradientUnits="userSpaceOnUse">
<stop stop-color="#A9BCD9"/>
<stop offset="1" stop-color="#97ACBF"/>
</linearGradient>
<linearGradient id="paint15_linear_0_1" x1="401.135" y1="610.184" x2="401.135" y2="638.301" gradientUnits="userSpaceOnUse">
<stop stop-color="#A9BCD9"/>
<stop offset="1" stop-color="#97ACBF"/>
</linearGradient>
<linearGradient id="paint16_linear_0_1" x1="399.118" y1="83.3223" x2="399.118" y2="125.289" gradientUnits="userSpaceOnUse">
<stop stop-color="#A9BCD9"/>
<stop offset="1" stop-color="#97ACBF"/>
</linearGradient>
<linearGradient id="paint17_linear_0_1" x1="117.86" y1="606.929" x2="117.86" y2="634.962" gradientUnits="userSpaceOnUse">
<stop stop-color="#A9BCD9"/>
<stop offset="1" stop-color="#97ACBF"/>
</linearGradient>
<linearGradient id="paint18_linear_0_1" x1="125.772" y1="442.127" x2="125.772" y2="455.307" gradientUnits="userSpaceOnUse">
<stop stop-color="#A9BCD9"/>
<stop offset="1" stop-color="#97ACBF"/>
</linearGradient>
<linearGradient id="paint19_linear_0_1" x1="115.887" y1="463.216" x2="115.887" y2="467.17" gradientUnits="userSpaceOnUse">
<stop stop-color="#A9BCD9"/>
<stop offset="1" stop-color="#97ACBF"/>
</linearGradient>
<linearGradient id="paint20_linear_0_1" x1="115.887" y1="435.538" x2="115.887" y2="472.443" gradientUnits="userSpaceOnUse">
<stop stop-color="#A9BCD9"/>
<stop offset="1" stop-color="#97ACBF"/>
</linearGradient>
<linearGradient id="paint21_linear_0_1" x1="117.429" y1="261.725" x2="117.429" y2="292.603" gradientUnits="userSpaceOnUse">
<stop stop-color="#A9BCD9"/>
<stop offset="1" stop-color="#97ACBF"/>
</linearGradient>
<linearGradient id="paint22_linear_0_1" x1="117.558" y1="89.3809" x2="117.558" y2="119.779" gradientUnits="userSpaceOnUse">
<stop stop-color="#A9BCD9"/>
<stop offset="1" stop-color="#97ACBF"/>
</linearGradient>
<clipPath id="clip0_0_1">
<rect width="40.0679" height="40.0679" fill="white" transform="translate(641.291 606.421)"/>
</clipPath>
<clipPath id="clip1_0_1">
<rect width="40.0679" height="40.0679" fill="white" transform="translate(641.291 354.196)"/>
</clipPath>
<clipPath id="clip2_0_1">
<rect width="48.5033" height="48.5033" fill="white" transform="translate(374.745 79.9355)"/>
</clipPath>
</defs>
</svg>
